<svg width="78" height="79" viewBox="0 0 78 79" fill="none" xmlns="http://www.w3.org/2000/svg">
<g filter="url(#filter0_d)">
<path d="M39 71C58.33 71 74 55.33 74 36C74 16.67 58.33 1 39 1C19.67 1 4 16.67 4 36C4 55.33 19.67 71 39 71Z" fill="#7B2627"/>
</g>
<path d="M39.0004 69.5848C57.5491 69.5848 72.5858 54.5481 72.5858 35.9994C72.5858 17.4507 57.5491 2.41406 39.0004 2.41406C20.4517 2.41406 5.41504 17.4507 5.41504 35.9994C5.41504 54.5481 20.4517 69.5848 39.0004 69.5848Z" stroke="white" stroke-width="4"/>
<path d="M20.5278 37.4196C20.5666 37.4139 20.6063 37.4175 20.6435 37.4299C20.6808 37.4423 20.7147 37.4633 20.7425 37.4912C20.7702 37.519 20.7912 37.553 20.8036 37.5905C20.816 37.6279 20.8195 37.6677 20.814 37.7068V38.3287C20.814 38.5384 20.719 38.6424 20.5278 38.6424H14.7331C13.9519 38.6424 13.5522 38.295 13.5342 37.6002V34.9134C13.6452 34.2583 14.0448 33.9105 14.7331 33.8699H20.5278C20.7198 33.8699 20.814 33.9842 20.814 34.2113V34.7654C20.814 34.9661 20.719 35.0656 20.5278 35.0656H15.8254C15.7793 35.0591 15.7323 35.0633 15.6881 35.0782C15.6439 35.0931 15.6038 35.1181 15.5709 35.1512C15.538 35.1844 15.5132 35.2248 15.4986 35.2692C15.4839 35.3137 15.4798 35.3609 15.4865 35.4073C15.4865 35.6003 15.599 35.6946 15.8254 35.6946H20.5015C20.5439 35.6888 20.587 35.6929 20.6276 35.7066C20.6681 35.7203 20.7049 35.7433 20.7352 35.7736C20.7654 35.804 20.7883 35.841 20.8019 35.8817C20.8156 35.9224 20.8197 35.9658 20.814 36.0083V36.517C20.814 36.7001 20.719 36.7911 20.5278 36.7911H15.7991C15.5902 36.7911 15.4867 36.9039 15.4867 37.1327C15.4867 37.3233 15.5904 37.4201 15.7991 37.4201L20.5278 37.4196Z" fill="#F5F5F5"/>
<path d="M27.1808 38.641C27.0918 38.5915 27.0164 38.5205 26.9616 38.4344C26.9068 38.3482 26.8742 38.2497 26.8669 38.1477V35.6134C26.8669 35.3027 26.7412 35.1459 26.4872 35.1459H22.0595C21.7966 35.1459 21.6666 35.0329 21.6666 34.8058V34.2577C21.6643 34.162 21.6978 34.069 21.7606 33.9971C21.8233 33.9251 21.9106 33.8794 22.0053 33.8691H27.9066C28.5185 33.932 28.8647 34.2429 28.9449 34.8056V38.2005C28.9131 38.3003 28.8595 38.3918 28.788 38.4681C28.7165 38.5445 28.629 38.6038 28.5317 38.6418L27.1808 38.641Z" fill="#F5F5F5"/>
<path d="M31.8819 35.2987C31.8819 35.5612 31.9928 35.6927 32.2148 35.6931H34.7117C34.9038 35.6931 34.9979 35.5891 34.9979 35.3796V34.3637C35.0084 34.2526 35.0505 34.1468 35.1191 34.0589C35.1876 33.9711 35.2799 33.9049 35.3848 33.8682H36.6641C36.7609 33.9066 36.848 33.9661 36.9192 34.0424C36.9904 34.1187 37.044 34.2099 37.0759 34.3095V38.1734C37.0549 38.2772 37.0087 38.3742 36.9415 38.4557C36.8742 38.5373 36.7879 38.6009 36.6903 38.6409H35.3848C35.2774 38.618 35.1808 38.5595 35.1106 38.4746C35.0404 38.3898 35.0007 38.2837 34.9979 38.1734V37.0769C35.0035 37.0379 35 36.998 34.9876 36.9606C34.9752 36.9231 34.9543 36.8891 34.9265 36.8612C34.8987 36.8333 34.8648 36.8123 34.8275 36.7998C34.7903 36.7874 34.7506 36.7839 34.7117 36.7896H32.168C31.9781 36.7896 31.8819 36.8936 31.8819 37.1031V38.1734C31.8789 38.2846 31.8384 38.3914 31.767 38.4764C31.6956 38.5613 31.5975 38.6194 31.489 38.6409H30.1907C30.0934 38.5994 30.0071 38.5355 29.9388 38.4542C29.8705 38.373 29.8223 38.2768 29.7979 38.1734V34.3095C29.8303 34.209 29.8848 34.1172 29.9574 34.0408C30.0299 33.9644 30.1187 33.9054 30.217 33.8682H31.4896C31.5958 33.9036 31.6895 33.9693 31.7593 34.0573C31.8291 34.1453 31.8719 34.2517 31.8825 34.3637L31.8819 35.2987Z" fill="#F5F5F5"/>
<path d="M40.0127 34.3637V38.1734C40.0097 38.2846 39.9692 38.3914 39.8978 38.4764C39.8264 38.5613 39.7284 38.6194 39.6198 38.6409H38.3216C38.2244 38.5991 38.1383 38.535 38.0701 38.4539C38.0019 38.3727 37.9535 38.2767 37.9287 38.1734V34.3095C37.9614 34.2092 38.016 34.1175 38.0885 34.0411C38.1611 33.9648 38.2497 33.9057 38.3479 33.8682H39.6198C39.7262 33.9033 39.8202 33.9689 39.89 34.057C39.9598 34.145 40.0024 34.2516 40.0127 34.3637V34.3637Z" fill="#F5F5F5"/>
<path d="M40.8652 37.7658V34.2229C40.8652 34.0085 41.0054 33.8903 41.2844 33.8683H42.2174C42.4095 33.8683 42.5211 33.9883 42.5563 34.2287V36.8154C42.5497 36.9482 42.5635 37.0812 42.5973 37.2098C42.5984 37.2177 42.6025 37.225 42.6087 37.2302C42.6149 37.2353 42.6228 37.2379 42.6308 37.2374C42.6658 37.2374 42.7375 37.1656 42.8442 37.023L46.1927 33.8672H48.224C48.3585 33.8672 48.424 33.9024 48.424 33.9744C48.408 34.0645 48.363 34.1469 48.2959 34.2088L46.1259 36.2801L48.2959 38.3C48.3619 38.3599 48.4069 38.4396 48.424 38.5273C48.424 38.5977 48.3582 38.6356 48.224 38.6401H46.1927L44.9413 37.4572L44.4346 37.7916C43.8315 38.3573 43.241 38.6402 42.6633 38.6403H41.9317C41.2203 38.6408 40.8648 38.3493 40.8652 37.7658Z" fill="#F5F5F5"/>
<path d="M53.999 38.6409H50.1575C49.5442 38.5793 49.1956 38.2675 49.1118 37.7057V34.777C49.2053 34.2287 49.5869 33.9258 50.2568 33.8682H55.272C55.9204 33.9224 56.2928 34.2241 56.3907 34.777V37.7792C56.2885 38.3225 55.9424 38.6098 55.3525 38.6411L53.999 38.6409ZM51.6888 35.1186C51.622 35.1089 51.5538 35.1149 51.4897 35.1362C51.4256 35.1575 51.3673 35.1935 51.3194 35.2413C51.2715 35.2892 51.2354 35.3476 51.2138 35.4119C51.1922 35.4762 51.1859 35.5446 51.1952 35.6118V36.8959C51.1952 37.2082 51.3194 37.3636 51.5691 37.3636H53.9728C54.2167 37.3636 54.3394 37.2303 54.3394 36.9635V35.5857C54.3462 35.5225 54.3387 35.4587 54.3177 35.3988C54.2967 35.339 54.2625 35.2846 54.2179 35.2398C54.1732 35.1949 54.119 35.1607 54.0595 35.1396C53.9999 35.1185 53.9363 35.1111 53.8735 35.118L51.6888 35.1186Z" fill="#F5F5F5"/>
<path d="M58.2878 36.7894C58.0438 36.7718 57.9036 36.6663 57.8686 36.4756V34.9117C57.9796 34.2566 58.3793 33.9088 59.0676 33.8682H64.2081C64.4168 33.8682 64.522 33.9539 64.522 34.1289V34.7637C64.522 34.9644 64.4168 35.0639 64.2081 35.0639H60.1601C59.9323 35.0639 59.8199 35.1651 59.8199 35.3659C59.8172 35.4084 59.8234 35.451 59.838 35.491C59.8526 35.531 59.8753 35.5675 59.9047 35.5982C59.934 35.6289 59.9694 35.6532 60.0086 35.6695C60.0478 35.6857 60.0899 35.6936 60.1323 35.6927H64.1819C64.2252 35.6884 64.269 35.6934 64.3103 35.7073C64.3516 35.7212 64.3896 35.7436 64.4216 35.7732C64.4537 35.8028 64.4793 35.8389 64.4966 35.8791C64.5139 35.9193 64.5225 35.9626 64.522 36.0064V37.651C64.4197 38.2755 64.0221 38.6053 63.3291 38.6405H57.5284C57.4942 38.6452 57.4595 38.6427 57.4262 38.6334C57.393 38.624 57.362 38.6079 57.3352 38.5861C57.3084 38.5642 57.2863 38.5371 57.2703 38.5064C57.2544 38.4757 57.2448 38.442 57.2423 38.4074V37.7243C57.2414 37.6832 57.2489 37.6424 57.2644 37.6043C57.2799 37.5662 57.303 37.5317 57.3323 37.503C57.3616 37.4743 57.3964 37.4519 57.4347 37.4372C57.473 37.4226 57.5138 37.416 57.5547 37.4179H62.2648C62.4809 37.4179 62.5904 37.3285 62.5904 37.1499C62.5933 37.059 62.561 36.9707 62.5002 36.9034C62.4394 36.8361 62.355 36.7952 62.2648 36.7894H58.2878Z" fill="#F5F5F5"/>
<defs>
<filter id="filter0_d" x="0" y="1" width="78" height="78" filterUnits="userSpaceOnUse" color-interpolation-filters="sRGB">
<feFlood flood-opacity="0" result="BackgroundImageFix"/>
<feColorMatrix in="SourceAlpha" type="matrix" values="0 0 0 0 0 0 0 0 0 0 0 0 0 0 0 0 0 0 127 0" result="hardAlpha"/>
<feOffset dy="4"/>
<feGaussianBlur stdDeviation="2"/>
<feColorMatrix type="matrix" values="0 0 0 0 0.458824 0 0 0 0 0.141176 0 0 0 0 0.164706 0 0 0 1 0"/>
<feBlend mode="normal" in2="BackgroundImageFix" result="effect1_dropShadow"/>
<feBlend mode="normal" in="SourceGraphic" in2="effect1_dropShadow" result="shape"/>
</filter>
</defs>
</svg>
