<svg width="78" height="79" viewBox="0 0 78 79" fill="none" xmlns="http://www.w3.org/2000/svg">
<g filter="url(#filter0_d)">
<path d="M39 71C58.33 71 74 55.33 74 36C74 16.67 58.33 1 39 1C19.67 1 4 16.67 4 36C4 55.33 19.67 71 39 71Z" fill="#1E5D79"/>
</g>
<path d="M38.9125 69.4979C57.4612 69.4979 72.4979 54.4612 72.4979 35.9125C72.4979 17.3638 57.4612 2.32715 38.9125 2.32715C20.3638 2.32715 5.32715 17.3638 5.32715 35.9125C5.32715 54.4612 20.3638 69.4979 38.9125 69.4979Z" stroke="white" stroke-width="4"/>
<path d="M16.3901 45.0171V45.537H15.0648V46.3621H16.0968V46.865H15.0648V47.7127H16.3901V48.2326H14.4238V45.0171H16.3901Z" fill="#F6BD23"/>
<path d="M16.4873 45.9492H16.9761C17.0196 45.9492 17.0522 45.9605 17.0848 45.9775C17.1119 46.0001 17.1337 46.0227 17.1445 46.0566L17.5139 47.1869C17.5356 47.266 17.5573 47.3395 17.579 47.4129C17.5953 47.4864 17.6116 47.5599 17.6279 47.6333C17.6442 47.5599 17.6605 47.4864 17.6822 47.4129C17.704 47.3395 17.7257 47.266 17.7474 47.1869L18.1276 46.0566C18.1385 46.0227 18.1548 46.0001 18.1874 45.9775C18.2145 45.9549 18.2471 45.9492 18.2851 45.9492H18.7523L17.8886 48.2324H17.3564L16.4873 45.9492Z" fill="#F6BD23"/>
<path d="M20.3925 48.2325C20.3382 48.2325 20.2948 48.2269 20.2676 48.2099C20.2405 48.193 20.2133 48.1591 20.197 48.1082L20.1481 47.9669C20.0938 48.0178 20.0395 48.063 19.9852 48.0969C19.9309 48.1364 19.882 48.1647 19.8222 48.193C19.7679 48.2212 19.7082 48.2382 19.643 48.2495C19.5778 48.2608 19.5072 48.2721 19.4311 48.2721C19.3334 48.2721 19.2465 48.2608 19.165 48.2325C19.0835 48.2043 19.0183 48.1647 18.9586 48.1138C18.8989 48.063 18.8554 47.9952 18.8228 47.916C18.7902 47.8369 18.7739 47.7465 18.7739 47.6448C18.7739 47.56 18.7957 47.4752 18.8337 47.3905C18.8771 47.3057 18.9477 47.2322 19.0455 47.1644C19.1433 47.0966 19.2791 47.0401 19.4474 46.9949C19.6158 46.9497 19.8222 46.9214 20.0775 46.9158V46.7971C20.0775 46.6558 20.0503 46.5484 19.9906 46.4806C19.9309 46.4128 19.8494 46.3789 19.7407 46.3789C19.6593 46.3789 19.5941 46.3902 19.5398 46.4071C19.4855 46.4297 19.4366 46.4467 19.3986 46.4693C19.3605 46.4919 19.3225 46.5145 19.2845 46.5315C19.2465 46.5541 19.2085 46.5597 19.1596 46.5597C19.1161 46.5597 19.0835 46.5484 19.0564 46.5258C19.0292 46.5032 19.0075 46.4806 18.9858 46.4467L18.8826 46.2489C19.0129 46.1302 19.1541 46.0398 19.3117 45.9776C19.4692 45.9155 19.6375 45.8872 19.8168 45.8872C19.9471 45.8872 20.0666 45.9098 20.1698 45.955C20.273 46.0002 20.3599 46.0624 20.4306 46.1415C20.5012 46.2206 20.5555 46.3167 20.5935 46.4241C20.6315 46.5315 20.6532 46.6558 20.6532 46.7858V48.2212H20.3925V48.2325ZM19.6158 47.8539C19.7136 47.8539 19.7951 47.8369 19.8711 47.7974C19.9417 47.7635 20.0178 47.7069 20.0884 47.6278V47.2718C19.9471 47.2774 19.8277 47.2887 19.7299 47.3113C19.6321 47.3283 19.5615 47.3566 19.5018 47.3848C19.442 47.4131 19.404 47.447 19.3823 47.4865C19.3605 47.5261 19.3497 47.5657 19.3497 47.6109C19.3497 47.7013 19.3714 47.7635 19.4203 47.7974C19.4637 47.8369 19.5343 47.8539 19.6158 47.8539Z" fill="#F6BD23"/>
<path d="M21.7131 44.9263V48.2322H21.1211V44.9263H21.7131Z" fill="#F6BD23"/>
<path d="M22.7664 45.9492V47.4016C22.7664 47.5259 22.7935 47.6277 22.8478 47.6955C22.9022 47.7633 22.9891 47.8029 23.0977 47.8029C23.1792 47.8029 23.2552 47.7859 23.3312 47.7463C23.4019 47.7068 23.4725 47.6559 23.5377 47.5938V45.9492H24.1243V48.2324H23.7603C23.6843 48.2324 23.6354 48.1985 23.6137 48.125L23.5757 47.9667C23.4888 48.0572 23.391 48.1306 23.2878 48.1871C23.1846 48.2437 23.0597 48.2719 22.9184 48.2719C22.799 48.2719 22.6903 48.2493 22.598 48.2098C22.5056 48.1645 22.4296 48.108 22.3644 48.0289C22.2992 47.9498 22.2558 47.8594 22.2232 47.752C22.1906 47.6446 22.1743 47.5316 22.1743 47.4016V45.9492H22.7664V45.9492Z" fill="#F6BD23"/>
<path d="M26.0688 48.2325C26.0145 48.2325 25.971 48.2269 25.9439 48.2099C25.9167 48.193 25.8896 48.1591 25.8733 48.1082L25.8244 47.9669C25.7701 48.0178 25.7158 48.063 25.6614 48.0969C25.6071 48.1364 25.5582 48.1647 25.4985 48.193C25.4442 48.2212 25.3844 48.2382 25.3192 48.2495C25.2541 48.2608 25.1835 48.2721 25.1074 48.2721C25.0096 48.2721 24.9227 48.2608 24.8413 48.2325C24.7598 48.2043 24.6946 48.1647 24.6349 48.1138C24.5751 48.063 24.5317 47.9952 24.4991 47.916C24.4665 47.8369 24.4502 47.7465 24.4502 47.6448C24.4502 47.56 24.4719 47.4752 24.5099 47.3905C24.5534 47.3057 24.624 47.2322 24.7218 47.1644C24.8195 47.0966 24.9553 47.0401 25.1237 46.9949C25.2921 46.9497 25.4985 46.9214 25.7538 46.9158V46.7971C25.7538 46.6558 25.7266 46.5484 25.6669 46.4806C25.6071 46.4128 25.5256 46.3789 25.417 46.3789C25.3355 46.3789 25.2704 46.3902 25.216 46.4071C25.1617 46.4297 25.1128 46.4467 25.0748 46.4693C25.0368 46.4919 24.9988 46.5145 24.9608 46.5315C24.9227 46.5541 24.8847 46.5597 24.8358 46.5597C24.7924 46.5597 24.7598 46.5484 24.7326 46.5258C24.7055 46.5032 24.6838 46.4806 24.662 46.4467L24.5588 46.2489C24.6892 46.1302 24.8304 46.0398 24.9879 45.9776C25.1454 45.9155 25.3138 45.8872 25.4931 45.8872C25.6234 45.8872 25.7429 45.9098 25.8461 45.955C25.9493 46.0002 26.0362 46.0624 26.1068 46.1415C26.1774 46.2206 26.2318 46.3167 26.2698 46.4241C26.3078 46.5315 26.3295 46.6558 26.3295 46.7858V48.2212H26.0688V48.2325ZM25.2921 47.8539C25.3899 47.8539 25.4713 47.8369 25.5474 47.7974C25.618 47.7635 25.694 47.7069 25.7646 47.6278V47.2718C25.6234 47.2774 25.5039 47.2887 25.4062 47.3113C25.3084 47.3283 25.2378 47.3566 25.178 47.3848C25.1183 47.4131 25.0803 47.447 25.0585 47.4865C25.0368 47.5261 25.0259 47.5657 25.0259 47.6109C25.0259 47.7013 25.0477 47.7635 25.0966 47.7974C25.1454 47.8369 25.2106 47.8539 25.2921 47.8539Z" fill="#F6BD23"/>
<path d="M28.3881 46.4577C28.3719 46.4803 28.3556 46.4973 28.3393 46.5142C28.323 46.5255 28.2958 46.5312 28.2687 46.5312C28.2415 46.5312 28.2143 46.5199 28.1872 46.5029C28.16 46.486 28.1329 46.469 28.0948 46.4464C28.0623 46.4238 28.0188 46.4069 27.9753 46.3899C27.9265 46.3729 27.8721 46.3616 27.8015 46.3616C27.7146 46.3616 27.6386 46.3786 27.5734 46.4125C27.5082 46.4464 27.4539 46.4916 27.4105 46.5538C27.367 46.616 27.3344 46.6894 27.3181 46.7799C27.2964 46.8703 27.2855 46.9663 27.2855 47.0794C27.2855 47.3111 27.329 47.4919 27.4213 47.6163C27.5137 47.7406 27.6332 47.8028 27.7907 47.8028C27.845 47.8028 27.8884 47.7971 27.9319 47.7858C27.9699 47.7745 28.0025 47.7632 28.0351 47.7519C28.0623 47.7349 28.0894 47.7236 28.1111 47.701C28.1329 47.6841 28.1546 47.6671 28.1709 47.6502C28.1926 47.6332 28.2089 47.6219 28.2306 47.6163C28.2524 47.605 28.2741 47.5993 28.2958 47.5993C28.3393 47.5993 28.3773 47.6163 28.4044 47.6502L28.5728 47.8706C28.5076 47.944 28.4425 48.0062 28.3719 48.0571C28.3012 48.1079 28.2252 48.1475 28.1492 48.1758C28.0731 48.204 27.9971 48.2266 27.9156 48.2379C27.8396 48.2492 27.7581 48.2549 27.682 48.2549C27.5462 48.2549 27.4213 48.2266 27.2964 48.1758C27.1769 48.1249 27.0683 48.0458 26.9814 47.944C26.889 47.8423 26.8184 47.718 26.7641 47.571C26.7098 47.4241 26.6826 47.2602 26.6826 47.0681C26.6826 46.8985 26.7043 46.7459 26.7532 46.6047C26.8021 46.4634 26.8673 46.339 26.9596 46.2317C27.052 46.1243 27.1606 46.0452 27.2964 45.983C27.4322 45.9208 27.5843 45.8926 27.7635 45.8926C27.9319 45.8926 28.0785 45.9208 28.2035 45.9773C28.3284 46.0339 28.4425 46.113 28.5457 46.2204L28.3881 46.4577Z" fill="#F6BD23"/>
<path d="M29.5344 45.2992C29.5344 45.3501 29.5236 45.401 29.5073 45.4405C29.4855 45.4857 29.4584 45.5253 29.4258 45.5592C29.3932 45.5931 29.3552 45.6214 29.3063 45.6383C29.2628 45.6553 29.214 45.6666 29.1651 45.6666C29.1162 45.6666 29.0727 45.6553 29.0293 45.6383C28.9858 45.6214 28.9478 45.5931 28.9152 45.5592C28.8826 45.5253 28.8555 45.4857 28.8392 45.4405C28.8174 45.3953 28.812 45.3501 28.812 45.2992C28.812 45.2484 28.8229 45.1975 28.8392 45.1523C28.8609 45.1071 28.8826 45.0675 28.9152 45.0336C28.9478 44.9997 28.9858 44.9715 29.0293 44.9545C29.0727 44.9376 29.1162 44.9263 29.1651 44.9263C29.214 44.9263 29.2628 44.9376 29.3063 44.9545C29.3497 44.9715 29.3878 44.9997 29.4258 45.0336C29.4584 45.0675 29.4855 45.1071 29.5073 45.1523C29.5236 45.1975 29.5344 45.2427 29.5344 45.2992ZM29.4638 45.9491V48.2322H28.8772V45.9491H29.4638Z" fill="#F6BD23"/>
<path d="M30.9571 45.9097C31.1201 45.9097 31.2722 45.938 31.4079 45.9945C31.5437 46.051 31.6578 46.1244 31.7556 46.2262C31.8533 46.3279 31.9294 46.4522 31.9783 46.5935C32.0326 46.7404 32.0597 46.9043 32.0597 47.0851C32.0597 47.266 32.0326 47.4299 31.9783 47.5768C31.924 47.7237 31.8533 47.848 31.7556 47.9498C31.6578 48.0515 31.5437 48.1306 31.4079 48.1871C31.2722 48.2436 31.1255 48.2719 30.9571 48.2719C30.7887 48.2719 30.6421 48.2436 30.5063 48.1871C30.3705 48.1306 30.2564 48.0515 30.1587 47.9498C30.0609 47.848 29.9849 47.7237 29.936 47.5768C29.8817 47.4299 29.8545 47.266 29.8545 47.0851C29.8545 46.9043 29.8817 46.7404 29.936 46.5935C29.9903 46.4466 30.0663 46.3279 30.1587 46.2262C30.2564 46.1244 30.3705 46.0453 30.5063 45.9945C30.6421 45.938 30.7887 45.9097 30.9571 45.9097ZM30.9571 47.8085C31.1255 47.8085 31.2504 47.7463 31.3319 47.6276C31.4134 47.509 31.4514 47.3281 31.4514 47.0908C31.4514 46.8534 31.4134 46.6783 31.3319 46.5539C31.2504 46.4353 31.1255 46.3731 30.9571 46.3731C30.7833 46.3731 30.6584 46.4353 30.5769 46.5539C30.4954 46.6726 30.4574 46.8534 30.4574 47.0908C30.4574 47.3281 30.4954 47.509 30.5769 47.6276C30.6584 47.7463 30.7833 47.8085 30.9571 47.8085ZM31.7447 44.9829L31.207 45.565C31.1798 45.5932 31.1527 45.6158 31.1255 45.6328C31.0983 45.6497 31.0603 45.6497 31.0169 45.6497H30.6638L30.9626 45.1072C30.9843 45.0677 31.0114 45.0338 31.0386 45.0168C31.0658 44.9999 31.1146 44.9886 31.1798 44.9886H31.7447V44.9829Z" fill="#F6BD23"/>
<path d="M32.4292 48.2324V45.9492H32.7931C32.8692 45.9492 32.918 45.9831 32.9398 46.0566L32.9778 46.2148C33.0212 46.1696 33.0701 46.1301 33.1136 46.0905C33.1625 46.051 33.2114 46.0227 33.2657 45.9944C33.32 45.9662 33.3743 45.9492 33.4395 45.9323C33.4992 45.9153 33.5698 45.9097 33.6404 45.9097C33.7599 45.9097 33.8631 45.9323 33.9555 45.9718C34.0478 46.017 34.1239 46.0736 34.189 46.1527C34.2542 46.2318 34.2977 46.3222 34.3303 46.4296C34.3629 46.537 34.3791 46.65 34.3791 46.78V48.2324H33.7925V46.78C33.7925 46.6556 33.7654 46.5539 33.7056 46.4861C33.6513 46.4183 33.5644 46.3787 33.4558 46.3787C33.3743 46.3787 33.2928 46.3957 33.2222 46.4352C33.1516 46.4748 33.081 46.5257 33.0158 46.5878V48.2324H32.4292V48.2324Z" fill="#F6BD23"/>
<path d="M37.4374 48.2325C37.3614 48.2325 37.3125 48.1986 37.2908 48.1251L37.2419 47.9273C37.155 48.029 37.0518 48.1081 36.9431 48.1703C36.8291 48.2325 36.6987 48.2664 36.5466 48.2664C36.4271 48.2664 36.3185 48.2381 36.2207 48.1873C36.123 48.1364 36.036 48.0573 35.9654 47.9612C35.8948 47.8595 35.8405 47.7408 35.7971 47.5939C35.759 47.4469 35.7373 47.2831 35.7373 47.0966C35.7373 46.927 35.759 46.7688 35.8025 46.6219C35.8459 46.4749 35.9111 46.3506 35.9926 46.2432C36.0741 46.1358 36.1718 46.0511 36.2913 45.9946C36.4054 45.9324 36.5358 45.9041 36.677 45.9041C36.7965 45.9041 36.8942 45.9211 36.9757 45.9607C37.0572 46.0002 37.1332 46.0454 37.1984 46.1132V44.9321H37.785V48.2381H37.4374V48.2325ZM36.753 47.7917C36.8562 47.7917 36.9431 47.7691 37.0137 47.7295C37.0844 47.6899 37.1495 47.6278 37.2147 47.5487V46.5427C37.1604 46.4749 37.1006 46.4297 37.0355 46.4015C36.9703 46.3732 36.8997 46.3619 36.8291 46.3619C36.7585 46.3619 36.6933 46.3732 36.6335 46.4015C36.5738 46.4297 36.5249 46.4749 36.4814 46.5314C36.438 46.5936 36.4054 46.6671 36.3837 46.7631C36.3619 46.8536 36.3511 46.9666 36.3511 47.0966C36.3511 47.2209 36.3619 47.3339 36.3782 47.4187C36.3945 47.5034 36.4217 47.5769 36.4597 47.6334C36.4977 47.6899 36.5358 47.7295 36.5846 47.7521C36.6335 47.7804 36.6933 47.7917 36.753 47.7917Z" fill="#F6BD23"/>
<path d="M39.2409 45.9097C39.3821 45.9097 39.5124 45.9323 39.6319 45.9775C39.7514 46.0227 39.8546 46.0905 39.9361 46.1809C40.023 46.2713 40.0882 46.3787 40.1371 46.5087C40.186 46.6387 40.2077 46.7856 40.2077 46.9495C40.2077 46.9947 40.2077 47.0343 40.2023 47.0625C40.1968 47.0908 40.1914 47.1134 40.1805 47.136C40.1697 47.1529 40.1588 47.1642 40.1425 47.1699C40.1262 47.1756 40.1045 47.1812 40.0773 47.1812H38.7575C38.7737 47.396 38.8335 47.5542 38.9313 47.6503C39.029 47.752 39.1594 47.7972 39.3223 47.7972C39.4038 47.7972 39.4744 47.7859 39.5342 47.7689C39.5939 47.752 39.6428 47.7294 39.6917 47.7011C39.7351 47.6785 39.7786 47.6559 39.8112 47.6333C39.8438 47.6107 39.8818 47.605 39.9198 47.605C39.9633 47.605 40.0013 47.622 40.0284 47.6559L40.1968 47.8763C40.1316 47.9498 40.0665 48.0119 39.9904 48.0628C39.9144 48.1137 39.8383 48.1532 39.7569 48.1815C39.6754 48.2097 39.5939 48.2323 39.5124 48.2436C39.431 48.2549 39.3495 48.2606 39.2735 48.2606C39.1214 48.2606 38.9747 48.2323 38.8444 48.1815C38.714 48.1306 38.5945 48.0515 38.4967 47.9498C38.399 47.8481 38.3229 47.7181 38.2632 47.5655C38.2089 47.4129 38.1763 47.2377 38.1763 47.0343C38.1763 46.8817 38.2034 46.7348 38.2523 46.5935C38.3012 46.4578 38.3718 46.3392 38.4641 46.2318C38.5565 46.1301 38.6705 46.0509 38.8009 45.9888C38.9258 45.9436 39.0725 45.9097 39.2409 45.9097ZM39.2517 46.3392C39.1105 46.3392 39.0019 46.3787 38.9204 46.4635C38.8389 46.5483 38.79 46.6669 38.7629 46.8195H39.6808C39.6808 46.7574 39.67 46.6952 39.6537 46.6387C39.6374 46.5822 39.6102 46.5313 39.5776 46.4861C39.545 46.4409 39.4961 46.407 39.4418 46.3787C39.3929 46.3561 39.3278 46.3392 39.2517 46.3392Z" fill="#F6BD23"/>
<path d="M43.1678 48.2325C43.0918 48.2325 43.0429 48.1986 43.0212 48.1251L42.9723 47.9273C42.8854 48.029 42.7822 48.1081 42.6736 48.1703C42.5595 48.2325 42.4292 48.2664 42.2771 48.2664C42.1576 48.2664 42.0489 48.2381 41.9512 48.1873C41.8534 48.1364 41.7665 48.0573 41.6959 47.9612C41.6253 47.8595 41.571 47.7408 41.5275 47.5939C41.4895 47.4469 41.4678 47.2831 41.4678 47.0966C41.4678 46.927 41.4895 46.7688 41.533 46.6219C41.5764 46.4749 41.6416 46.3506 41.7231 46.2432C41.8045 46.1358 41.9023 46.0511 42.0218 45.9946C42.1359 45.9324 42.2662 45.9041 42.4074 45.9041C42.5269 45.9041 42.6247 45.9211 42.7062 45.9607C42.7876 46.0002 42.8637 46.0454 42.9289 46.1132V44.9321H43.5155V48.2381H43.1678V48.2325ZM42.4835 47.7917C42.5867 47.7917 42.6736 47.7691 42.7442 47.7295C42.8148 47.6899 42.88 47.6278 42.9452 47.5487V46.5427C42.8908 46.4749 42.8311 46.4297 42.7659 46.4015C42.7007 46.3732 42.6301 46.3619 42.5595 46.3619C42.4889 46.3619 42.4237 46.3732 42.364 46.4015C42.3042 46.4297 42.2553 46.4749 42.2119 46.5314C42.1684 46.5936 42.1359 46.6671 42.1141 46.7631C42.0924 46.8536 42.0815 46.9666 42.0815 47.0966C42.0815 47.2209 42.0924 47.3339 42.1087 47.4187C42.125 47.5034 42.1521 47.5769 42.1902 47.6334C42.2282 47.6899 42.2662 47.7295 42.3151 47.7521C42.364 47.7804 42.4183 47.7917 42.4835 47.7917Z" fill="#F6BD23"/>
<path d="M44.9708 45.9097C45.1121 45.9097 45.2424 45.9323 45.3619 45.9775C45.4814 46.0227 45.5846 46.0905 45.6661 46.1809C45.753 46.2713 45.8182 46.3787 45.8671 46.5087C45.9159 46.6387 45.9377 46.7856 45.9377 46.9495C45.9377 46.9947 45.9377 47.0343 45.9322 47.0625C45.9268 47.0908 45.9214 47.1134 45.9105 47.136C45.8996 47.1529 45.8888 47.1642 45.8725 47.1699C45.8562 47.1756 45.8345 47.1812 45.8073 47.1812H44.4874C44.5037 47.396 44.5635 47.5542 44.6612 47.6503C44.759 47.752 44.8894 47.7972 45.0523 47.7972C45.1338 47.7972 45.2044 47.7859 45.2642 47.7689C45.3239 47.752 45.3728 47.7294 45.4217 47.7011C45.4651 47.6785 45.5086 47.6559 45.5412 47.6333C45.5738 47.6107 45.6118 47.605 45.6498 47.605C45.6932 47.605 45.7313 47.622 45.7584 47.6559L45.9268 47.8763C45.8616 47.9498 45.7964 48.0119 45.7204 48.0628C45.6444 48.1137 45.5683 48.1532 45.4868 48.1815C45.4054 48.2097 45.3239 48.2323 45.2424 48.2436C45.1609 48.2549 45.0795 48.2606 45.0034 48.2606C44.8513 48.2606 44.7047 48.2323 44.5743 48.1815C44.444 48.1306 44.3245 48.0515 44.2267 47.9498C44.1289 47.8481 44.0529 47.7181 43.9932 47.5655C43.9388 47.4129 43.9062 47.2377 43.9062 47.0343C43.9062 46.8817 43.9334 46.7348 43.9823 46.5935C44.0312 46.4578 44.1018 46.3392 44.1941 46.2318C44.2865 46.1301 44.4005 46.0509 44.5309 45.9888C44.6558 45.9436 44.8025 45.9097 44.9708 45.9097ZM44.9817 46.3392C44.8405 46.3392 44.7319 46.3787 44.6504 46.4635C44.5689 46.5483 44.52 46.6669 44.4929 46.8195H45.4108C45.4108 46.7574 45.3999 46.6952 45.3836 46.6387C45.3674 46.5822 45.3402 46.5313 45.3076 46.4861C45.275 46.4409 45.2261 46.407 45.1718 46.3787C45.1175 46.3561 45.0577 46.3392 44.9817 46.3392Z" fill="#F6BD23"/>
<path d="M47.665 46.4183C47.6487 46.4409 47.6324 46.4635 47.6161 46.4748C47.5998 46.4861 47.5781 46.4918 47.5509 46.4918C47.5237 46.4918 47.4911 46.4861 47.464 46.4691C47.4368 46.4522 47.3988 46.4409 47.3662 46.4239C47.3282 46.407 47.2847 46.39 47.2413 46.3787C47.1924 46.3618 47.1381 46.3561 47.0783 46.3561C46.9806 46.3561 46.91 46.3787 46.8556 46.4183C46.8013 46.4578 46.7742 46.5144 46.7742 46.5765C46.7742 46.6217 46.7905 46.6613 46.8176 46.6896C46.8448 46.7178 46.8882 46.7461 46.9371 46.7687C46.986 46.7913 47.0403 46.8139 47.1055 46.8308C47.1653 46.8534 47.2304 46.8704 47.2956 46.8987C47.3608 46.9213 47.426 46.9495 47.4857 46.9834C47.5455 47.0173 47.6052 47.0512 47.6541 47.1021C47.703 47.153 47.741 47.2038 47.7736 47.2716C47.8008 47.3395 47.817 47.4186 47.817 47.509C47.817 47.622 47.7953 47.7237 47.7573 47.8142C47.7193 47.9102 47.6595 47.9894 47.5835 48.0572C47.5074 48.125 47.4151 48.1758 47.301 48.2154C47.187 48.255 47.0621 48.2719 46.9154 48.2719C46.8394 48.2719 46.7633 48.2663 46.6927 48.2493C46.6167 48.238 46.546 48.2154 46.4809 48.1872C46.4157 48.1589 46.3505 48.1306 46.2908 48.0967C46.231 48.0628 46.1821 48.0233 46.1387 47.9837L46.2745 47.7577C46.2908 47.7294 46.3071 47.7124 46.3342 47.6955C46.3559 47.6785 46.3885 47.6729 46.4266 47.6729C46.4646 47.6729 46.4972 47.6842 46.5243 47.7011C46.5515 47.7181 46.5895 47.7407 46.6221 47.7633C46.6601 47.7859 46.7036 47.8029 46.7524 47.8255C46.8013 47.8424 46.8665 47.8537 46.9426 47.8537C46.9969 47.8537 47.0458 47.8481 47.0892 47.8311C47.1327 47.8198 47.1653 47.7972 47.187 47.7746C47.2141 47.752 47.2304 47.7237 47.2413 47.6955C47.2522 47.6672 47.2576 47.639 47.2576 47.6051C47.2576 47.5542 47.2413 47.5146 47.2141 47.4807C47.1815 47.4468 47.1435 47.4186 47.0946 47.396C47.0458 47.3734 46.9914 47.3508 46.9263 47.3338C46.8611 47.3168 46.7959 47.2942 46.7307 47.2716C46.6655 47.249 46.6004 47.2208 46.5352 47.1869C46.47 47.153 46.4157 47.1134 46.3668 47.0625C46.3179 47.0117 46.2799 46.9495 46.2473 46.8817C46.2147 46.8082 46.2039 46.7235 46.2039 46.6161C46.2039 46.52 46.2201 46.4296 46.2582 46.3448C46.2962 46.26 46.3451 46.1866 46.4157 46.1188C46.4863 46.051 46.5732 46.0001 46.6818 45.9662C46.785 45.9266 46.91 45.9097 47.0512 45.9097C47.2087 45.9097 47.3499 45.9379 47.4749 45.9888C47.5998 46.0396 47.7084 46.1131 47.7899 46.1979L47.665 46.4183Z" fill="#F6BD23"/>
<path d="M49.1369 45.9097C49.2781 45.9097 49.4084 45.9323 49.5279 45.9775C49.6474 46.0227 49.7506 46.0905 49.8321 46.1809C49.919 46.2713 49.9842 46.3787 50.0331 46.5087C50.082 46.6387 50.1037 46.7856 50.1037 46.9495C50.1037 46.9947 50.1037 47.0343 50.0983 47.0625C50.0928 47.0908 50.0874 47.1134 50.0765 47.136C50.0657 47.1529 50.0548 47.1642 50.0385 47.1699C50.0222 47.1756 50.0005 47.1812 49.9733 47.1812H48.6534C48.6697 47.396 48.7295 47.5542 48.8273 47.6503C48.925 47.752 49.0554 47.7972 49.2183 47.7972C49.2998 47.7972 49.3704 47.7859 49.4302 47.7689C49.4899 47.752 49.5388 47.7294 49.5877 47.7011C49.6311 47.6785 49.6746 47.6559 49.7072 47.6333C49.7398 47.6107 49.7778 47.605 49.8158 47.605C49.8593 47.605 49.8973 47.622 49.9244 47.6559L50.0928 47.8763C50.0276 47.9498 49.9625 48.0119 49.8864 48.0628C49.8104 48.1137 49.7343 48.1532 49.6529 48.1815C49.5714 48.2097 49.4899 48.2323 49.4084 48.2436C49.327 48.2549 49.2455 48.2606 49.1695 48.2606C49.0174 48.2606 48.8707 48.2323 48.7404 48.1815C48.61 48.1306 48.4905 48.0515 48.3927 47.9498C48.295 47.8481 48.2189 47.7181 48.1592 47.5655C48.1049 47.4129 48.0723 47.2377 48.0723 47.0343C48.0723 46.8817 48.0994 46.7348 48.1483 46.5935C48.1972 46.4578 48.2678 46.3392 48.3601 46.2318C48.4525 46.1301 48.5665 46.0509 48.6969 45.9888C48.8218 45.9436 48.9739 45.9097 49.1369 45.9097ZM49.1477 46.3392C49.0065 46.3392 48.8979 46.3787 48.8164 46.4635C48.7349 46.5483 48.686 46.6669 48.6589 46.8195H49.5768C49.5768 46.7574 49.566 46.6952 49.5497 46.6387C49.5334 46.5822 49.5062 46.5313 49.4736 46.4861C49.441 46.4409 49.3921 46.407 49.3378 46.3787C49.2889 46.3561 49.2238 46.3392 49.1477 46.3392Z" fill="#F6BD23"/>
<path d="M50.4678 48.2324V45.9492H50.8317C50.9077 45.9492 50.9566 45.9831 50.9783 46.0566L51.0109 46.2035C51.049 46.1639 51.087 46.1244 51.1304 46.0905C51.1739 46.0566 51.2119 46.0227 51.2608 46.0001C51.3097 45.9718 51.3586 45.9548 51.4129 45.9379C51.4672 45.9209 51.5269 45.9153 51.5921 45.9153C51.7279 45.9153 51.8365 45.9548 51.9289 46.0283C52.0212 46.1018 52.081 46.2035 52.1298 46.3278C52.1679 46.2544 52.2113 46.1922 52.2602 46.1413C52.3145 46.0905 52.3688 46.0453 52.4286 46.0114C52.4883 45.9774 52.5535 45.9548 52.6241 45.9379C52.6947 45.9209 52.7599 45.9153 52.8305 45.9153C52.9555 45.9153 53.0641 45.9322 53.1564 45.9718C53.2542 46.0114 53.3302 46.0679 53.3954 46.1413C53.4606 46.2148 53.5095 46.3052 53.5421 46.4126C53.5747 46.52 53.591 46.6443 53.591 46.7799V48.2324H53.0043V46.7799C53.0043 46.5143 52.8957 46.3787 52.673 46.3787C52.6241 46.3787 52.5752 46.39 52.5372 46.407C52.4938 46.4239 52.4557 46.4522 52.4286 46.4861C52.396 46.52 52.3743 46.5595 52.3525 46.6104C52.3362 46.6613 52.3254 46.7178 52.3254 46.7856V48.238H51.7388V46.7856C51.7388 46.6387 51.7116 46.5369 51.6573 46.4748C51.603 46.4126 51.5215 46.3843 51.4129 46.3843C51.3423 46.3843 51.2825 46.4013 51.2228 46.4352C51.163 46.4691 51.1033 46.5143 51.0544 46.5765V48.2437H50.4678V48.2324Z" fill="#F6BD23"/>
<path d="M54.0635 48.9725V45.9491H54.4274C54.5034 45.9491 54.5523 45.983 54.574 46.0564L54.6175 46.2486C54.661 46.1977 54.7098 46.1525 54.7587 46.1073C54.8076 46.0621 54.8619 46.0282 54.9162 45.9999C54.9706 45.9717 55.0357 45.9434 55.1009 45.9265C55.1661 45.9095 55.2367 45.8982 55.3127 45.8982C55.4322 45.8982 55.5409 45.9264 55.6386 45.9773C55.7364 46.0282 55.8233 46.1073 55.8939 46.2034C55.9645 46.3051 56.0189 46.4238 56.0623 46.5707C56.1003 46.7176 56.1221 46.8815 56.1221 47.068C56.1221 47.2376 56.1003 47.3958 56.0569 47.5427C56.0134 47.6897 55.9482 47.814 55.8668 47.9214C55.7853 48.0287 55.6875 48.1135 55.568 48.17C55.454 48.2322 55.3236 48.2605 55.1824 48.2605C55.0629 48.2605 54.9597 48.2435 54.8782 48.2039C54.7967 48.1644 54.7207 48.1192 54.6555 48.0514V48.9612H54.0635V48.9725ZM55.1118 46.3786C55.0086 46.3786 54.9217 46.4012 54.8511 46.4407C54.7804 46.4859 54.7153 46.5424 54.6501 46.6272V47.6275C54.7044 47.6953 54.7642 47.7405 54.8293 47.7688C54.8945 47.797 54.9651 47.8083 55.0357 47.8083C55.1063 47.8083 55.1715 47.797 55.2313 47.7688C55.291 47.7405 55.3399 47.6953 55.3834 47.6388C55.4268 47.5766 55.4594 47.5032 55.4811 47.4071C55.5028 47.3167 55.5137 47.2037 55.5137 47.0737C55.5137 46.9493 55.5029 46.8363 55.4866 46.7515C55.4648 46.6611 55.4431 46.5933 55.4051 46.5368C55.3725 46.4803 55.329 46.4407 55.2802 46.4181C55.2313 46.3899 55.1715 46.3786 55.1118 46.3786Z" fill="#F6BD23"/>
<path d="M57.4474 45.9097C57.5886 45.9097 57.719 45.9323 57.8385 45.9775C57.958 46.0227 58.0611 46.0905 58.1426 46.1809C58.2295 46.2713 58.2947 46.3787 58.3436 46.5087C58.3925 46.6387 58.4142 46.7856 58.4142 46.9495C58.4142 46.9947 58.4142 47.0343 58.4088 47.0625C58.4033 47.0908 58.3979 47.1134 58.387 47.136C58.3762 47.1529 58.3653 47.1642 58.349 47.1699C58.3327 47.1756 58.311 47.1812 58.2838 47.1812H56.964C56.9803 47.396 57.04 47.5542 57.1378 47.6503C57.2356 47.752 57.3659 47.7972 57.5289 47.7972C57.6103 47.7972 57.6809 47.7859 57.7407 47.7689C57.8004 47.752 57.8493 47.7294 57.8982 47.7011C57.9417 47.6785 57.9851 47.6559 58.0177 47.6333C58.0503 47.6107 58.0883 47.605 58.1263 47.605C58.1698 47.605 58.2078 47.622 58.235 47.6559L58.4033 47.8763C58.3382 47.9498 58.273 48.0119 58.1969 48.0628C58.1209 48.1137 58.0449 48.1532 57.9634 48.1815C57.8819 48.2097 57.8004 48.2323 57.719 48.2436C57.6375 48.2549 57.556 48.2606 57.48 48.2606C57.3279 48.2606 57.1812 48.2323 57.0509 48.1815C56.9205 48.1306 56.801 48.0515 56.7033 47.9498C56.6055 47.8481 56.5295 47.7181 56.4697 47.5655C56.4154 47.4129 56.3828 47.2377 56.3828 47.0343C56.3828 46.8817 56.41 46.7348 56.4589 46.5935C56.5077 46.4578 56.5783 46.3392 56.6707 46.2318C56.763 46.1301 56.8771 46.0509 57.0074 45.9888C57.1324 45.9436 57.2844 45.9097 57.4474 45.9097ZM57.4583 46.3392C57.317 46.3392 57.2084 46.3787 57.1269 46.4635C57.0455 46.5483 56.9966 46.6669 56.9694 46.8195H57.8928C57.8928 46.7574 57.8819 46.6952 57.8656 46.6387C57.8493 46.5822 57.8222 46.5313 57.7896 46.4861C57.757 46.4409 57.7081 46.407 57.6538 46.3787C57.5995 46.3561 57.5343 46.3392 57.4583 46.3392Z" fill="#F6BD23"/>
<path d="M58.7778 48.232V45.9489H59.1418C59.2178 45.9489 59.2667 45.9828 59.2884 46.0562L59.3264 46.2145C59.3699 46.1693 59.4188 46.1297 59.4622 46.0901C59.5111 46.0506 59.56 46.0223 59.6143 45.9941C59.6686 45.9658 59.7229 45.9489 59.7881 45.9319C59.8479 45.9149 59.9185 45.9093 59.9891 45.9093C60.1086 45.9093 60.2118 45.9319 60.3041 45.9715C60.3965 46.0167 60.4725 46.0732 60.5377 46.1523C60.6029 46.2314 60.6463 46.3218 60.6789 46.4292C60.7115 46.5366 60.7278 46.6496 60.7278 46.7796V48.232H60.1412V46.7796C60.1412 46.6553 60.114 46.5535 60.0543 46.4857C59.9999 46.4179 59.913 46.3783 59.8044 46.3783C59.7229 46.3783 59.6415 46.3953 59.5708 46.4349C59.5002 46.4744 59.4296 46.5253 59.3644 46.5874V48.232H58.7778V48.232ZM59.9945 45.1916C60.0325 45.1916 60.0651 45.1803 60.0869 45.1577C60.1086 45.1351 60.1194 45.0955 60.1194 45.0333H60.4779C60.4779 45.1181 60.4671 45.1972 60.4453 45.2707C60.4236 45.3442 60.391 45.4007 60.3476 45.4515C60.3041 45.5024 60.2552 45.542 60.2009 45.5646C60.1466 45.5928 60.0814 45.6041 60.0162 45.6041C59.9674 45.6041 59.9185 45.5928 59.875 45.5759C59.8316 45.5589 59.7881 45.5363 59.7501 45.5137C59.7121 45.4911 59.674 45.4741 59.6415 45.4515C59.6089 45.4346 59.5817 45.4233 59.5546 45.4233C59.5165 45.4233 59.4839 45.4346 59.4622 45.4572C59.4405 45.4798 59.4296 45.525 59.4296 45.5872H59.0657C59.0657 45.5024 59.0766 45.4233 59.0983 45.3498C59.12 45.2764 59.1526 45.2198 59.1961 45.169C59.2395 45.1181 59.2884 45.0786 59.3427 45.0503C59.397 45.022 59.4622 45.0107 59.5274 45.0107C59.5817 45.0107 59.6306 45.022 59.674 45.039C59.7175 45.056 59.761 45.0786 59.799 45.1012C59.837 45.1238 59.875 45.1407 59.9022 45.1633C59.9402 45.1803 59.9674 45.1916 59.9945 45.1916Z" fill="#F6BD23"/>
<path d="M62.1895 45.9097C62.3525 45.9097 62.5046 45.9379 62.6404 45.9944C62.7762 46.051 62.8902 46.1244 62.988 46.2261C63.0858 46.3279 63.1618 46.4522 63.2107 46.5935C63.265 46.7404 63.2922 46.9043 63.2922 47.0851C63.2922 47.266 63.265 47.4299 63.2107 47.5768C63.1564 47.7237 63.0858 47.8481 62.988 47.9498C62.8902 48.0515 62.7762 48.1306 62.6404 48.1872C62.5046 48.2437 62.3579 48.2719 62.1895 48.2719C62.0212 48.2719 61.8745 48.2437 61.7387 48.1872C61.6029 48.1306 61.4889 48.0515 61.3911 47.9498C61.2933 47.8481 61.2173 47.7237 61.1684 47.5768C61.1141 47.4299 61.0869 47.266 61.0869 47.0851C61.0869 46.9043 61.1141 46.7404 61.1684 46.5935C61.2227 46.4465 61.2988 46.3279 61.3911 46.2261C61.4889 46.1244 61.6029 46.0453 61.7387 45.9944C61.8691 45.9379 62.0212 45.9097 62.1895 45.9097ZM62.1895 47.8085C62.3579 47.8085 62.4828 47.7463 62.5643 47.6277C62.6458 47.509 62.6838 47.3282 62.6838 47.0908C62.6838 46.8534 62.6458 46.6782 62.5643 46.5539C62.4828 46.4352 62.3579 46.3731 62.1895 46.3731C62.0157 46.3731 61.8908 46.4352 61.8093 46.5539C61.7278 46.6726 61.6898 46.8534 61.6898 47.0908C61.6898 47.3282 61.7278 47.509 61.8093 47.6277C61.8908 47.7463 62.0157 47.8085 62.1895 47.8085Z" fill="#F6BD23"/>
<path d="M61.9233 29.5833C61.4616 29.5833 61.0216 29.3968 60.6957 29.0521C60.0168 28.3457 60.0168 27.1985 60.6957 26.4978C61.0216 26.1587 61.4616 25.9666 61.9233 25.9666C62.385 25.9666 62.8249 26.153 63.1508 26.4978C63.8298 27.2042 63.8298 28.3513 63.1508 29.0521C62.8249 29.3968 62.385 29.5833 61.9233 29.5833ZM61.9233 26.8764C61.6897 26.8764 61.4725 26.9725 61.3095 27.142C60.9727 27.4924 60.9727 28.0688 61.3095 28.4192C61.6463 28.7695 62.2003 28.7695 62.537 28.4192C62.8738 28.0688 62.8738 27.4924 62.537 27.142C62.3741 26.9668 62.1568 26.8764 61.9233 26.8764Z" fill="#F6BD23"/>
<path d="M22.1531 42.3605H14.6847C14.462 42.3605 14.2773 42.1684 14.2773 41.9367V39.9757C14.2773 39.744 14.462 39.5519 14.6847 39.5519H20.7464C21.5339 39.5519 22.164 39.405 22.6203 39.1054C23.0819 38.8059 23.3101 38.286 23.3101 37.5401C23.3101 36.8111 23.0711 36.2911 22.5877 35.986C22.1043 35.6808 21.4905 35.5282 20.7464 35.5282H15.9122C15.6896 35.5282 15.5049 35.3361 15.5049 35.1044V33.1434C15.5049 32.9117 15.6896 32.7196 15.9122 32.7196H20.6757C21.4525 32.7196 22.0771 32.584 22.5442 32.3071C23.0113 32.0019 23.2503 31.4876 23.2503 30.753C23.2503 29.4136 22.3921 28.7468 20.6757 28.7468H14.6847C14.462 28.7525 14.2773 28.566 14.2773 28.3286V26.3733C14.2773 26.1416 14.462 25.9495 14.6847 25.9495H21.8164C26.5419 25.9495 27.0687 29.1198 27.0687 30.38C27.0687 30.883 26.9818 31.3577 26.808 31.8041C26.6342 32.2505 26.3735 32.68 26.0313 33.0813C25.7543 33.409 25.4555 33.7086 25.1405 33.9798C25.0373 34.0702 25.0482 34.2454 25.1622 34.3189C25.3197 34.4263 25.4773 34.5336 25.6239 34.641C25.8412 34.8105 26.0747 35.0309 26.3246 35.3135C26.5744 35.596 26.7591 35.9803 26.884 36.4663C27.009 36.9523 27.0687 37.4496 27.0687 37.9526C27.0687 41.2642 24.6897 42.3605 22.1531 42.3605Z" fill="white"/>
<path d="M32.3318 32.6744C32.321 32.7987 32.4133 32.9117 32.5328 32.9117H37.9698C39.6536 32.9117 40.9789 33.2452 41.9512 33.9063C42.9234 34.5675 43.4123 35.7147 43.4123 37.3479V37.8283C43.4123 38.4103 43.3145 38.9359 43.1135 39.405C42.918 39.8797 42.5595 40.3826 42.0381 40.9251C41.5166 41.4676 40.7562 41.8802 39.7568 42.174C38.7574 42.4623 37.6711 42.6092 36.4979 42.6092C35.7374 42.6092 34.9118 42.5414 34.0211 42.4057C33.1303 42.2701 32.3047 41.9649 31.5551 41.4902C30.8001 41.0155 30.2081 40.4335 29.7681 39.7327C29.3282 39.032 29.0077 38.2408 28.8013 37.3536C28.5949 36.472 28.4917 35.5226 28.4917 34.5167C28.4917 34.2737 28.4917 34.042 28.4917 33.8216C28.4917 33.6012 28.5297 33.1039 28.6003 32.324C28.6709 31.5441 28.9208 30.6965 29.3336 29.7753C29.7518 28.8542 30.3113 28.1139 31.0228 27.5601C31.7344 27.0062 32.56 26.5994 33.5105 26.3394C34.461 26.0794 35.5854 25.9495 36.8889 25.9495H42.1413C42.364 25.9495 42.5487 26.1416 42.5487 26.3733V28.3286C42.5487 28.5603 42.364 28.7525 42.1413 28.7525H36.802C35.7483 28.7525 34.9173 28.8768 34.3144 29.1311C33.706 29.3797 33.2443 29.7923 32.9184 30.363C32.6251 30.8943 32.4296 31.6628 32.3318 32.6744ZM37.7526 35.6695H32.5165C32.4024 35.6695 32.3101 35.7712 32.3101 35.8899C32.321 36.229 32.3536 36.5398 32.4079 36.8167C32.4731 37.1558 32.5817 37.5062 32.7283 37.8735C32.9184 38.4725 33.3367 38.9472 33.9885 39.3089C34.6403 39.6706 35.493 39.8457 36.5467 39.8457C37.2474 39.8457 37.8775 39.7553 38.4315 39.5688C38.8389 39.4615 39.1648 39.2072 39.3983 38.8116C39.6319 38.416 39.7514 38.0091 39.7514 37.5966C39.7514 37.0767 39.583 36.6189 39.2462 36.2177C38.8932 35.856 38.3935 35.6695 37.7526 35.6695Z" fill="white"/>
<path d="M52.5645 42.5246C50.3429 42.5246 48.2192 41.5356 46.7309 39.8177C44.0369 36.6982 44.0857 31.8552 46.8504 28.7979C48.3441 27.1421 50.3755 26.2266 52.5645 26.2266C53.9767 26.2266 55.3563 26.6165 56.5621 27.3625L56.7902 27.5037L54.8783 29.493L54.748 29.4308C54.069 29.1087 53.314 28.9391 52.5645 28.9391C51.1685 28.9391 49.8541 29.5043 48.8655 30.5328C47.8498 31.5895 47.3067 32.991 47.3393 34.4886C47.3664 35.9862 47.9639 37.3651 49.0231 38.3823C49.9845 39.3091 51.2446 39.8177 52.5699 39.8177C53.868 39.8177 55.101 39.326 56.057 38.4388C58.1644 36.4722 58.398 33.1606 56.5893 30.9001C56.4535 30.7306 56.4643 30.4819 56.611 30.3237L57.8766 29.0069C57.9526 28.9278 58.0558 28.8826 58.1644 28.8826C58.2839 28.8826 58.3926 28.9335 58.4686 29.0239C61.1681 32.2394 61.0052 37.1221 58.1047 40.1454C56.6273 41.6769 54.6611 42.5246 52.5645 42.5246C52.5699 42.5246 52.5699 42.5246 52.5645 42.5246Z" fill="white"/>
<path d="M57.8435 27.6225C57.8435 27.6169 57.8435 27.6169 57.8435 27.6112C57.8435 27.5604 57.8272 27.5095 57.7892 27.47L57.762 27.4417L53.634 23.1468C53.5417 23.0508 53.4004 23.0394 53.319 23.1186L52.0534 24.4353C51.9719 24.5201 51.9828 24.667 52.0806 24.7631L54.8235 27.6169L52.086 30.4764C51.9937 30.5724 51.9828 30.7194 52.0588 30.8041L53.3244 32.1209C53.4059 32.2056 53.5471 32.1943 53.6394 32.0926L56.529 29.0862L57.7674 27.7977L57.7946 27.7695C57.8326 27.7299 57.8489 27.679 57.8489 27.6282C57.8435 27.6282 57.8435 27.6282 57.8435 27.6225Z" fill="white"/>
<defs>
<filter id="filter0_d" x="0" y="1" width="78" height="78" filterUnits="userSpaceOnUse" color-interpolation-filters="sRGB">
<feFlood flood-opacity="0" result="BackgroundImageFix"/>
<feColorMatrix in="SourceAlpha" type="matrix" values="0 0 0 0 0 0 0 0 0 0 0 0 0 0 0 0 0 0 127 0" result="hardAlpha"/>
<feOffset dy="4"/>
<feGaussianBlur stdDeviation="2"/>
<feColorMatrix type="matrix" values="0 0 0 0 0.0156863 0 0 0 0 0.458824 0 0 0 0 0.643137 0 0 0 1 0"/>
<feBlend mode="normal" in2="BackgroundImageFix" result="effect1_dropShadow"/>
<feBlend mode="normal" in="SourceGraphic" in2="effect1_dropShadow" result="shape"/>
</filter>
</defs>
</svg>
