<svg width="73" height="72" viewBox="0 0 73 72" fill="none" xmlns="http://www.w3.org/2000/svg">
<path d="M36.5255 71.013C56.1316 71.0058 72.0198 55.33 72.0127 36C72.0057 16.6701 56.1061 1.00583 36.5 1.01296C16.8939 1.0201 1.0057 16.6959 1.01273 36.0259C1.01976 55.3558 16.9194 71.0201 36.5255 71.013Z" stroke="white"/>
<path d="M44.7059 17.0099L28.3059 17.0159C21.5409 17.0184 16.0078 22.4204 16.0102 29.0204L16.0136 38.3537C16.0159 44.7537 21.1429 50.0185 27.6347 50.3495L27.6367 55.8828C27.6369 56.4828 28.1837 57.016 28.7987 57.0157C29.0721 57.0156 29.4137 56.8822 29.6186 56.6821L30.9165 55.415C34.2636 52.1471 38.773 50.3454 43.488 50.3437L44.718 50.3433C51.483 50.3408 57.016 44.9388 57.0136 38.3388L57.0102 29.0055C57.0078 22.4055 51.4709 17.0075 44.7059 17.0099ZM27.6296 36.3495C26.1262 36.35 24.8958 35.1505 24.8953 33.6838C24.8947 32.2172 26.1243 31.0167 27.6276 31.0162C29.131 31.0156 30.3614 32.2152 30.3619 33.6818C30.3625 35.1485 29.1329 36.3489 27.6296 36.3495ZM36.5129 36.3463C35.0096 36.3468 33.7791 35.1473 33.7786 33.6806C33.7781 32.2139 35.0076 31.0135 36.511 31.0129C38.0143 31.0124 39.2447 32.2119 39.2453 33.6786C39.2458 35.1453 38.0162 36.3457 36.5129 36.3463ZM45.3962 36.343C43.8929 36.3436 42.6625 35.144 42.6619 33.6774C42.6614 32.2107 43.891 31.0102 45.3943 31.0097C46.8976 31.0091 48.1281 32.2087 48.1286 33.6754C48.1291 35.142 46.8996 36.3425 45.3962 36.343Z" fill="white"/>
</svg>
