<svg width="78" height="79" viewBox="0 0 78 79" fill="none" xmlns="http://www.w3.org/2000/svg">
<g filter="url(#filter0_d)">
<path d="M39 71C58.33 71 74 55.33 74 36C74 16.67 58.33 1 39 1C19.67 1 4 16.67 4 36C4 55.33 19.67 71 39 71Z" fill="#2AB296"/>
</g>
<path d="M38.9999 69.585C57.5486 69.585 72.5853 54.5484 72.5853 35.9997C72.5853 17.451 57.5486 2.41431 38.9999 2.41431C20.4512 2.41431 5.41455 17.451 5.41455 35.9997C5.41455 54.5484 20.4512 69.585 38.9999 69.585Z" stroke="white" stroke-width="4"/>
<path d="M22.2089 46.3584V45.5H20.3034V46.9042H22.108V47.6842L20.3041 47.6781V49.9966H18.8027V49.2237H19.4379V45.5H18.8027V44.7271H22.9965V46.3587L22.2089 46.3584Z" fill="#F5F5F5"/>
<path d="M25.2333 49.9964V49.2235H25.7524L25.3699 48.1664H23.7248L23.2695 49.4653V49.9964H21.7832V49.2235H22.4684L23.8907 45.202L24.0495 44.7266H25.8311V45.5H25.312L26.647 49.2239H27.3188V49.9969L25.2333 49.9964ZM24.5542 45.8044L23.9992 47.3937H25.1029L24.5542 45.8044Z" fill="#F5F5F5"/>
<path d="M31.6919 49.0641C31.5315 49.2961 31.3281 49.4952 31.0926 49.6504C30.6455 49.9309 30.1268 50.0763 29.599 50.0689C29.2423 50.0831 28.8864 50.0237 28.5536 49.8943C28.2208 49.7649 27.9182 49.5683 27.6648 49.3167C27.4157 49.0708 27.2239 48.7731 27.1029 48.4446C26.9787 48.0966 26.9175 47.7292 26.9221 47.3597C26.9177 46.9919 26.9802 46.6264 27.1066 46.2809C27.2291 45.954 27.4195 45.6568 27.6653 45.4088C27.9164 45.1558 28.2173 44.9577 28.5489 44.827C28.8806 44.6962 29.2357 44.6358 29.592 44.6493C29.9529 44.6526 30.3092 44.73 30.639 44.8768C30.7297 44.9142 30.8177 44.9579 30.9023 45.0075C30.9894 45.0592 31.0725 45.1174 31.1508 45.1816V45.1538H31.9442V46.7212H31.1869C31.1517 46.5047 31.0772 46.2964 30.9671 46.1068C30.8737 45.964 30.7517 45.8422 30.6089 45.7489C30.3008 45.5531 29.9429 45.4499 29.5778 45.4513C29.3387 45.4429 29.1006 45.4854 28.8792 45.5759C28.6578 45.6664 28.4581 45.8029 28.2933 45.9763C27.9494 46.3531 27.7677 46.8502 27.7876 47.36C27.7695 47.8682 27.9541 48.3629 28.3006 48.7351C28.4684 48.9112 28.6716 49.0496 28.8969 49.1414C29.1221 49.2331 29.3643 49.276 29.6074 49.2671C29.975 49.2765 30.3362 49.1698 30.6397 48.9623C30.7991 48.8473 30.9348 48.7027 31.0396 48.5365C31.2057 48.2669 31.3402 47.9792 31.4408 47.679L32.1839 48.1036C32.0599 48.4428 31.8947 48.7654 31.6919 49.0641V49.0641Z" fill="#F5F5F5"/>
<path d="M36.0649 46.131V45.5H35.1122V49.9969H33.5759V49.2239H34.2464V45.5H33.2937V46.6985H32.5005V44.7271H36.8586V46.1312L36.0649 46.131Z" fill="#F5F5F5"/>
<path d="M41.5065 49.2951C41.2544 49.5499 40.9526 49.75 40.6198 49.883C40.287 50.0159 39.9304 50.0789 39.5722 50.0681C39.2139 50.0792 38.8572 50.0163 38.5244 49.8833C38.1916 49.7503 37.8898 49.5501 37.6379 49.2951C37.1462 48.7702 36.8726 48.078 36.8726 47.3588C36.8726 46.6395 37.1462 45.9473 37.6379 45.4224C37.8896 45.1671 38.1913 44.9665 38.5242 44.8333C38.857 44.7 39.2138 44.6371 39.5722 44.6482C39.9305 44.6373 40.2872 44.7004 40.62 44.8336C40.9529 44.9668 41.2546 45.1672 41.5065 45.4224C41.9974 45.9476 42.2705 46.6398 42.2705 47.3588C42.2705 48.0777 41.9974 48.7699 41.5065 49.2951V49.2951ZM40.8852 45.9823C40.7158 45.8067 40.5114 45.6687 40.2853 45.577C40.0591 45.4854 39.8163 45.4422 39.5724 45.4502C39.3278 45.4433 39.0845 45.4877 38.8582 45.5806C38.6319 45.6735 38.4275 45.8129 38.2584 45.9896C37.9239 46.3673 37.7392 46.8543 37.7392 47.3588C37.7392 47.8632 37.9239 48.3503 38.2584 48.7279C38.4277 48.9043 38.6321 49.0433 38.8584 49.1359C39.0847 49.2285 39.328 49.2726 39.5724 49.2653C39.8163 49.2737 40.0592 49.2306 40.2854 49.1389C40.5116 49.0473 40.716 48.9091 40.8852 48.7333C41.2198 48.3531 41.4044 47.864 41.4044 47.3575C41.4044 46.8511 41.2198 46.362 40.8852 45.9818V45.9823Z" fill="#F5F5F5"/>
<path d="M45.7416 49.9965L44.6371 47.5922H43.9377V50.0038H43.0715V45.5001H42.3506V44.7271H44.9911C45.1957 44.7251 45.3993 44.7561 45.594 44.819C45.7792 44.881 45.9499 44.9797 46.096 45.1092C46.2416 45.2315 46.3579 45.3847 46.4365 45.5578C46.5151 45.7308 46.5539 45.9193 46.5502 46.1093C46.5516 46.2818 46.525 46.4533 46.4715 46.6172C46.4186 46.7752 46.335 46.9211 46.2255 47.0467C46.1382 47.1515 46.0333 47.2403 45.9155 47.309C45.7897 47.3819 45.6565 47.4411 45.518 47.4857L46.3264 49.2238H47.0348V49.9967L45.7416 49.9965ZM45.4892 45.6848C45.4175 45.625 45.3353 45.5792 45.2469 45.5494C45.1364 45.5143 45.0208 45.4978 44.9049 45.5006H43.9377V46.8197H44.7744C44.9167 46.8231 45.0588 46.8066 45.1966 46.7709C45.2971 46.7443 45.3916 46.6983 45.4746 46.6355C45.5418 46.5844 45.5952 46.5172 45.6297 46.4401C45.669 46.3475 45.6875 46.2475 45.6839 46.147C45.6892 46.0601 45.6743 45.9733 45.6406 45.8931C45.6068 45.813 45.555 45.7417 45.4892 45.6848V45.6848Z" fill="#F5F5F5"/>
<path d="M47.5161 49.9971V49.2241H48.13V44.7267H48.995V49.2236H49.6163V49.9971H47.5161ZM48.1227 44.535V43.6279H48.9877V44.535H48.1227Z" fill="#F5F5F5"/>
<path d="M53.247 49.9964V49.2235H53.7661L53.3835 48.1664H51.7385L51.2844 49.4653V49.9964H49.7969V49.2235H50.4828L51.9039 45.202L52.0627 44.7266H53.846V45.5H53.3256L54.6602 49.2237H55.332V49.9966L53.247 49.9964ZM52.5691 45.8044L52.0128 47.3937H53.1165L52.5691 45.8044Z" fill="#F5F5F5"/>
<path d="M55.709 49.9964V49.2235H56.3722V45.5H55.709V44.7271H57.2458L57.2385 49.2239H58.7973V47.9829H59.6486V49.9966L55.709 49.9964Z" fill="#F5F5F5"/>
<path d="M48.0524 36.903C47.2006 37.7752 46.1484 38.4259 44.9875 38.7982C45.4735 39.0231 45.9594 39.2549 46.4454 39.4937C46.9314 39.7324 47.3456 39.9502 47.6881 40.1469L46.2957 42.1703C45.9229 41.9309 45.4692 41.6745 44.9347 41.4011C44.4002 41.1276 43.8642 40.8712 43.3266 40.6318C42.7913 40.3924 42.3079 40.1921 41.8796 40.0306C41.6064 39.9103 41.3177 39.8289 41.0219 39.7888C40.7741 39.7944 40.5286 39.8372 40.2935 39.9158C40.141 39.9685 39.9938 40.0353 39.8537 40.1154C39.6888 40.2072 39.3996 40.3924 38.985 40.6741L37.7636 38.9457C38.0079 38.7776 38.1818 38.6506 38.2891 38.5671C38.3868 38.4884 38.4909 38.418 38.6003 38.3565C37.8419 37.9943 37.1528 37.5023 36.5639 36.9027C35.0493 35.3718 34.292 33.4544 34.292 31.1504C34.292 28.8464 35.0493 26.929 36.5639 25.3981C38.0785 23.8673 39.993 23.1018 42.3074 23.1018C44.6218 23.1018 46.5367 23.8673 48.0521 25.3981C49.5667 26.929 50.324 28.8464 50.324 31.1504C50.324 33.4544 49.5668 35.3719 48.0524 36.903ZM46.2092 27.0627C45.1941 26.009 43.8932 25.4822 42.3067 25.4822C41.5806 25.461 40.8583 25.5927 40.1864 25.8685C39.5145 26.1444 38.908 26.5583 38.4063 27.0835C37.3777 28.1369 36.8634 29.4923 36.8634 31.1497C36.8634 32.8071 37.3777 34.1625 38.4063 35.2159C38.908 35.7411 39.5145 36.155 40.1864 36.4309C40.8583 36.7067 41.5806 36.8384 42.3067 36.8172C43.8939 36.8172 45.1944 36.2903 46.2082 35.2364C47.2368 34.1697 47.7511 32.8074 47.7511 31.1497C47.7518 29.5066 47.2378 28.1442 46.2092 27.0625V27.0627Z" fill="#F5F5F5"/>
<path d="M28.8467 38.9889V36.6925H30.6688V23.3335H33.2417V36.6911H35.0846V38.9874L28.8467 38.9889ZM30.6481 22.7663V20.0679H33.2195V22.7651L30.6481 22.7663Z" fill="#F5F5F5"/>
<defs>
<filter id="filter0_d" x="0" y="1" width="78" height="78" filterUnits="userSpaceOnUse" color-interpolation-filters="sRGB">
<feFlood flood-opacity="0" result="BackgroundImageFix"/>
<feColorMatrix in="SourceAlpha" type="matrix" values="0 0 0 0 0 0 0 0 0 0 0 0 0 0 0 0 0 0 127 0" result="hardAlpha"/>
<feOffset dy="4"/>
<feGaussianBlur stdDeviation="2"/>
<feColorMatrix type="matrix" values="0 0 0 0 0.309804 0 0 0 0 0.792157 0 0 0 0 0.568627 0 0 0 1 0"/>
<feBlend mode="normal" in2="BackgroundImageFix" result="effect1_dropShadow"/>
<feBlend mode="normal" in="SourceGraphic" in2="effect1_dropShadow" result="shape"/>
</filter>
</defs>
</svg>
