<svg width="259" height="259" viewBox="0 0 259 259" fill="none" xmlns="http://www.w3.org/2000/svg">
<circle cx="129.141" cy="129.141" r="129.141" fill="#283C80"/>
<path d="M243.443 129.141C243.443 192.268 192.268 243.443 129.14 243.443C66.0129 243.443 14.8379 192.268 14.8379 129.141C14.8379 66.0131 66.0129 14.8381 129.14 14.8381C192.268 14.8381 243.443 66.0131 243.443 129.141Z" stroke="white" stroke-width="1.5"/>
<path d="M61.3201 109.148C65.5293 109.148 67.649 112.58 67.649 116.011C67.649 119.442 65.5293 122.85 61.3201 122.85H57.3641C57.1789 122.85 57.0278 123.009 57.0278 123.204V127.021C57.0278 128.675 55.7544 130.014 54.1826 130.014V109.502C54.1826 109.308 54.3338 109.148 54.5189 109.148H61.3201ZM61.3201 119.915C63.6892 119.915 64.8605 117.979 64.8605 116.043C64.8605 114.079 63.6892 112.142 61.3201 112.142H57.3641C57.1789 112.142 57.0278 112.301 57.0278 112.496V119.562C57.0278 119.756 57.1789 119.915 57.3641 119.915H61.3201Z" fill="white"/>
<path d="M73.6148 112.191C75.3983 110.282 77.9071 109.082 80.6389 109.082C83.3972 109.082 85.8796 110.282 87.6932 112.191C89.4502 114.099 90.5913 116.707 90.5913 119.614C90.5913 122.52 89.4464 125.128 87.6932 127.037C85.8796 128.973 83.4009 130.146 80.6389 130.146C77.9071 130.146 75.3983 128.973 73.6148 127.037C71.8579 125.128 70.7168 122.52 70.7168 119.614C70.7168 116.707 71.8579 114.099 73.6148 112.191ZM85.6869 114.302C84.3758 112.922 82.5659 112.072 80.6427 112.072C78.7195 112.072 76.9361 112.922 75.6514 114.302C74.3705 115.65 73.5619 117.53 73.5619 119.61C73.5619 121.693 74.3705 123.57 75.6514 124.918C76.9323 126.297 78.7195 127.148 80.6427 127.148C82.5659 127.148 84.3795 126.297 85.6869 124.918C86.9413 123.57 87.7499 121.721 87.7499 119.61C87.7499 117.499 86.9413 115.654 85.6869 114.302Z" fill="white"/>
<path d="M100.374 130.011V112.735C100.374 112.54 100.223 112.381 100.038 112.381H96.0102C94.4384 112.381 93.165 111.041 93.165 109.387H110.561C110.561 111.041 109.288 112.381 107.716 112.381H103.714C103.529 112.381 103.378 112.54 103.378 112.735V126.846C103.378 128.595 102.033 130.011 100.374 130.011Z" fill="white"/>
<path d="M117.146 126.795H123.056C124.613 126.795 125.871 128.123 125.871 129.757H114.305C114.12 129.757 113.969 129.598 113.969 129.403V109.606C113.969 109.412 114.12 109.253 114.305 109.253H125.844C125.844 110.891 124.582 112.215 123.029 112.215H117.15C116.965 112.215 116.814 112.374 116.814 112.569V117.642C116.814 117.837 116.965 117.996 117.15 117.996H123.97C123.97 119.65 122.697 120.99 121.125 120.99H117.146C116.961 120.99 116.81 121.149 116.81 121.344V126.445C116.81 126.636 116.961 126.795 117.146 126.795Z" fill="white"/>
<path d="M129.283 129.435V109.583C129.283 109.384 129.438 109.225 129.623 109.229L131.286 109.253C131.395 109.253 131.497 109.313 131.558 109.404L140.354 122.783C140.543 123.07 140.966 122.931 140.966 122.581V109.607C140.966 109.412 141.117 109.253 141.302 109.253H143.418C143.604 109.253 143.755 109.412 143.755 109.607V129.435C143.755 129.63 143.604 129.789 143.418 129.789H141.699C141.59 129.789 141.484 129.733 141.423 129.638L132.714 116.374C132.525 116.088 132.102 116.227 132.102 116.577V129.435C132.102 129.63 131.951 129.789 131.766 129.789H129.623C129.434 129.785 129.283 129.63 129.283 129.435Z" fill="white"/>
<path d="M149.901 112.246C151.601 110.397 154 109.197 156.645 109.197C160.96 109.197 164.387 111.94 165.615 116.313C165.679 116.54 165.517 116.767 165.29 116.767H163.178C163.038 116.767 162.914 116.679 162.864 116.544C161.795 113.614 159.445 112.135 156.641 112.135C154.775 112.135 153.075 112.986 151.847 114.333C150.619 115.681 149.84 117.502 149.84 119.613C149.84 121.665 150.622 123.486 151.847 124.834C153.075 126.182 154.775 127.032 156.641 127.032C159.524 127.032 161.98 125.331 163.031 122.361C163.08 122.222 163.205 122.134 163.344 122.134H165.426C165.649 122.134 165.812 122.361 165.751 122.583C164.519 127.001 161.036 129.963 156.641 129.963C153.993 129.963 151.597 128.79 149.897 126.913C148.223 125.037 147.108 122.456 147.108 119.609C147.116 116.703 148.231 114.123 149.901 112.246Z" fill="white"/>
<path d="M171.667 109.371V129.462C171.667 129.657 171.516 129.816 171.331 129.816H169.189C169.004 129.816 168.853 129.657 168.853 129.462V109.371C168.853 109.176 169.004 109.017 169.189 109.017H171.331C171.52 109.017 171.667 109.176 171.667 109.371Z" fill="white"/>
<path d="M203.735 126.855H208.915C210.472 126.855 211.73 128.183 211.73 129.817H200.92C200.735 129.817 200.584 129.658 200.584 129.463V109.666C200.584 109.471 200.735 109.312 200.92 109.312H203.063C203.248 109.312 203.399 109.471 203.399 109.666V126.501C203.403 126.696 203.55 126.855 203.735 126.855Z" fill="white"/>
<path d="M52.6449 138.796C54.3452 136.947 56.7446 135.746 59.3895 135.746C63.7045 135.746 67.1315 138.489 68.3595 142.863C68.4238 143.09 68.2613 143.316 68.0346 143.316H65.9224C65.7826 143.316 65.6579 143.229 65.6088 143.094C64.5395 140.163 62.1893 138.684 59.3857 138.684C57.5191 138.684 55.8188 139.535 54.5908 140.883C53.3628 142.231 52.5845 144.052 52.5845 146.163C52.5845 148.215 53.3666 150.036 54.5908 151.384C55.8188 152.732 57.5191 153.583 59.3857 153.583C62.2687 153.583 64.7247 151.881 65.7751 148.911C65.8242 148.772 65.9489 148.684 66.0887 148.684H68.1706C68.3935 148.684 68.556 148.911 68.4955 149.134C67.2638 153.551 63.78 156.513 59.3857 156.513C56.737 156.513 54.3415 155.34 52.6412 153.464C50.9711 151.587 49.8564 149.006 49.8564 146.159C49.8564 143.253 50.9711 140.672 52.6449 138.796Z" fill="white"/>
<path d="M73.6148 138.68C75.3983 136.771 77.9071 135.57 80.6389 135.57C83.3972 135.57 85.8796 136.771 87.6932 138.68C89.4502 140.588 90.5913 143.196 90.5913 146.103C90.5913 149.005 89.4464 151.617 87.6932 153.526C85.8796 155.462 83.4009 156.635 80.6389 156.635C77.9071 156.635 75.3983 155.462 73.6148 153.526C71.8579 151.617 70.7168 149.009 70.7168 146.103C70.7168 143.196 71.8579 140.584 73.6148 138.68ZM85.6869 140.791C84.3758 139.411 82.5659 138.56 80.6427 138.56C78.7195 138.56 76.9361 139.411 75.6514 140.791C74.3705 142.139 73.5619 144.019 73.5619 146.099C73.5619 148.182 74.3705 150.059 75.6514 151.407C76.9323 152.786 78.7195 153.637 80.6427 153.637C82.5659 153.637 84.3795 152.786 85.6869 151.407C86.9413 150.059 87.7499 148.21 87.7499 146.099C87.7499 143.987 86.9413 142.139 85.6869 140.791Z" fill="white"/>
<path d="M95.6437 156.806H93.5013C93.3162 156.806 93.165 156.647 93.165 156.452V136.628C93.165 136.433 93.3162 136.274 93.5013 136.274H95.2734C95.383 136.274 95.4888 136.334 95.553 136.429L101.614 145.817C101.746 146.023 102.037 146.023 102.169 145.817L108.23 136.429C108.294 136.334 108.396 136.274 108.509 136.274H110.225C110.41 136.274 110.561 136.433 110.561 136.628V156.456C110.561 156.651 110.41 156.81 110.225 156.81H108.109C107.924 156.81 107.772 156.651 107.772 156.456V143.507C107.772 143.157 107.342 143.022 107.157 143.308L102.77 150.17C102.706 150.27 102.604 150.325 102.49 150.325H101.258C101.145 150.325 101.043 150.266 100.979 150.17L96.5921 143.308C96.4069 143.018 95.9762 143.157 95.9762 143.507V156.456C95.98 156.651 95.8288 156.806 95.6437 156.806Z" fill="white"/>
<path d="M116.81 153.65H123.056C124.613 153.65 125.871 154.978 125.871 156.612H113.969V136.108H125.844C125.844 137.746 124.582 139.07 123.029 139.07H116.81V144.847H123.966C123.966 146.501 122.693 147.841 121.121 147.841H116.81V153.65Z" fill="white"/>
<path d="M133.909 146.58C133.909 146.386 134.068 146.226 134.261 146.226H137.359C139.845 146.226 141.07 144.437 141.07 142.648C141.07 140.887 139.842 139.098 137.359 139.098H133.18C132.987 139.098 132.829 139.257 132.829 139.452V153.705C132.829 155.323 131.521 156.639 129.904 156.639V136.462C129.904 136.267 130.063 136.108 130.256 136.108H137.355C141.799 136.108 144.02 139.392 144.02 142.648C144.02 145.396 142.426 148.008 139.286 148.807C139.037 148.87 138.942 149.177 139.105 149.375L144.942 156.349C145.037 156.464 144.958 156.639 144.806 156.639C142.619 156.639 140.548 155.661 139.15 153.976L133.985 147.733C133.932 147.67 133.902 147.59 133.902 147.507V146.58H133.909Z" fill="white"/>
<path d="M149.901 139.097C151.601 137.248 154 136.047 156.645 136.047C160.96 136.047 164.387 138.791 165.615 143.164C165.679 143.391 165.517 143.617 165.29 143.617H163.178C163.038 143.617 162.914 143.53 162.864 143.395C161.795 140.464 159.445 138.985 156.641 138.985C154.775 138.985 153.075 139.836 151.847 141.184C150.619 142.532 149.84 144.353 149.84 146.464C149.84 148.515 150.622 150.336 151.847 151.684C153.075 153.032 154.775 153.883 156.641 153.883C159.524 153.883 161.98 152.181 163.031 149.211C163.08 149.072 163.205 148.985 163.344 148.985H165.426C165.649 148.985 165.812 149.211 165.751 149.434C164.519 153.851 161.036 156.813 156.641 156.813C153.993 156.813 151.597 155.64 149.897 153.763C148.223 151.887 147.108 149.307 147.108 146.46C147.116 143.558 148.231 140.977 149.901 139.097Z" fill="white"/>
<path d="M171.661 136.52V156.317C171.661 156.512 171.51 156.671 171.324 156.671H169.182C168.997 156.671 168.846 156.512 168.846 156.317V136.52C168.846 136.325 168.997 136.166 169.182 136.166H171.324C171.51 136.166 171.661 136.321 171.661 136.52Z" fill="white"/>
<path d="M203.735 153.708H208.915C210.472 153.708 211.73 155.036 211.73 156.671H200.92C200.735 156.671 200.584 156.512 200.584 156.317V136.52C200.584 136.325 200.735 136.166 200.92 136.166H203.063C203.248 136.166 203.399 136.325 203.399 136.52V153.355C203.403 153.549 203.55 153.708 203.735 153.708Z" fill="white"/>
<path d="M191.9 154.744L186.16 141.479C185.983 141.065 185.424 141.065 185.242 141.479L179.503 154.744C178.751 156.485 176.718 157.292 174.965 156.541L185.242 132.779C185.42 132.365 185.979 132.365 186.16 132.779L196.438 156.541C194.685 157.292 192.652 156.485 191.9 154.744Z" fill="white"/>
<path d="M191.9 127.508L186.16 114.244C185.983 113.83 185.424 113.83 185.242 114.244L179.503 127.508C178.751 129.249 176.718 130.056 174.965 129.305L185.242 105.544C185.42 105.13 185.979 105.13 186.16 105.544L196.438 129.305C194.685 130.056 192.652 129.253 191.9 127.508Z" fill="white"/>
</svg>
