<svg width="259" height="259" viewBox="0 0 259 259" fill="none" xmlns="http://www.w3.org/2000/svg">
<circle cx="129.141" cy="129.141" r="129.141" fill="#1E5D79"/>
<circle cx="129.14" cy="129.141" r="114.303" stroke="white" stroke-width="1.5"/>
<path d="M52.028 159.785V161.566H47.4641V164.389H51.0138V166.103H47.4641V168.993H52.028V170.774H45.2666V159.785H52.028V159.785Z" fill="#F6BD23"/>
<path d="M52.3678 162.978H54.0412C54.1934 162.978 54.2948 163.011 54.4131 163.079C54.5146 163.163 54.5822 163.23 54.616 163.347L55.8837 167.212C55.9514 167.481 56.0359 167.733 56.1035 167.985C56.1542 168.237 56.2218 168.489 56.2725 168.741C56.3232 168.489 56.3909 168.237 56.4585 167.985C56.5261 167.733 56.6106 167.481 56.6782 167.212L57.9798 163.347C58.0136 163.23 58.0812 163.146 58.1826 163.079C58.2841 162.995 58.3855 162.978 58.5207 162.978H60.1265L57.1515 170.774H55.3259L52.334 162.978H52.3678Z" fill="#F6BD23"/>
<path d="M65.7875 170.79C65.6016 170.79 65.4495 170.774 65.365 170.706C65.2635 170.656 65.179 170.538 65.1283 170.354L64.9593 169.866C64.7733 170.034 64.5874 170.202 64.4015 170.303C64.2155 170.438 64.0465 170.538 63.8436 170.639C63.6577 170.74 63.4548 170.79 63.2351 170.841C63.0154 170.874 62.7618 170.925 62.5082 170.925C62.1702 170.925 61.8659 170.891 61.5955 170.79C61.3081 170.69 61.0883 170.555 60.8855 170.387C60.6827 170.219 60.5305 169.984 60.4122 169.715C60.2939 169.446 60.2432 169.144 60.2432 168.791C60.2432 168.505 60.3108 168.22 60.446 167.917C60.5981 167.632 60.8348 167.38 61.1729 167.144C61.5109 166.909 61.9842 166.724 62.559 166.573C63.1337 166.422 63.8436 166.321 64.7226 166.304V165.901C64.7226 165.414 64.6212 165.044 64.4184 164.826C64.2155 164.591 63.9281 164.473 63.5563 164.473C63.2689 164.473 63.0492 164.507 62.8632 164.574C62.6773 164.658 62.5082 164.708 62.373 164.792C62.2378 164.876 62.1195 164.943 61.9842 165.011C61.849 165.095 61.7307 165.111 61.5616 165.111C61.4095 165.111 61.3081 165.078 61.2067 164.994C61.1052 164.91 61.0376 164.843 60.97 164.725L60.615 164.053C61.0714 163.65 61.5447 163.33 62.0857 163.129C62.6266 162.91 63.2013 162.826 63.8267 162.826C64.2831 162.826 64.6888 162.91 65.0438 163.062C65.3988 163.213 65.703 163.431 65.9397 163.7C66.1763 163.969 66.3623 164.305 66.4975 164.658C66.6327 165.027 66.7003 165.448 66.7003 165.901V170.807H65.8044V170.841L65.7875 170.79ZM63.1168 169.497C63.4548 169.497 63.7253 169.446 63.9958 169.312C64.2324 169.194 64.5029 169.009 64.7395 168.741V167.531C64.2493 167.548 63.8436 167.581 63.5056 167.665C63.1675 167.716 62.9308 167.817 62.728 167.917C62.5252 168.018 62.3899 168.136 62.3223 168.27C62.2547 168.405 62.204 168.539 62.204 168.69C62.204 168.993 62.2716 169.211 62.4406 169.329C62.5928 169.463 62.8294 169.514 63.1168 169.514V169.497Z" fill="#F6BD23"/>
<path d="M70.3351 159.483V170.791H68.3066V159.483H70.3351Z" fill="#F6BD23"/>
<path d="M73.9526 162.978V167.934C73.9526 168.354 74.054 168.707 74.2399 168.942C74.4259 169.178 74.7301 169.312 75.102 169.312C75.3894 169.312 75.6429 169.262 75.9134 169.127C76.15 168.993 76.4036 168.825 76.6233 168.606V162.978H78.6349V170.774H77.384C77.1304 170.774 76.9614 170.656 76.8769 170.404L76.7417 169.867C76.4374 170.169 76.0993 170.421 75.7443 170.623C75.3894 170.807 74.9668 170.908 74.4766 170.908C74.0709 170.908 73.699 170.824 73.3778 170.69C73.0567 170.539 72.8031 170.337 72.5665 170.068C72.3467 169.799 72.1946 169.497 72.0763 169.127C71.9579 168.758 71.9072 168.371 71.9072 167.934V162.978H73.9357H73.9526Z" fill="#F6BD23"/>
<path d="M85.312 170.79C85.126 170.79 84.9739 170.774 84.8894 170.706C84.7879 170.656 84.7034 170.538 84.6527 170.354L84.4837 169.866C84.2977 170.034 84.1118 170.202 83.9259 170.303C83.7399 170.438 83.5709 170.538 83.368 170.639C83.1821 170.74 82.9793 170.79 82.7595 170.841C82.5398 170.874 82.2862 170.925 82.0327 170.925C81.6946 170.925 81.3903 170.891 81.1199 170.79C80.8325 170.69 80.6128 170.555 80.4099 170.387C80.2071 170.219 80.0549 169.984 79.9366 169.715C79.8183 169.446 79.7676 169.144 79.7676 168.791C79.7676 168.505 79.8352 168.22 79.9704 167.917C80.1226 167.632 80.3592 167.38 80.6973 167.144C81.0353 166.909 81.5086 166.724 82.0834 166.573C82.6581 166.422 83.368 166.321 84.247 166.304V165.901C84.247 165.414 84.1456 165.044 83.9428 164.826C83.7399 164.591 83.4526 164.473 83.0807 164.473C82.7933 164.473 82.5736 164.507 82.3876 164.574C82.2017 164.658 82.0327 164.708 81.8974 164.792C81.7622 164.876 81.6439 164.943 81.5086 165.011C81.3734 165.095 81.2551 165.111 81.0861 165.111C80.9339 165.111 80.8325 165.078 80.7311 164.994C80.6297 164.91 80.562 164.843 80.4944 164.725L80.1395 164.053C80.5959 163.65 81.0692 163.33 81.6101 163.129C82.151 162.91 82.7257 162.826 83.3511 162.826C83.8075 162.826 84.2132 162.91 84.5682 163.062C84.9232 163.213 85.2274 163.431 85.4641 163.7C85.7007 163.969 85.8867 164.305 86.0219 164.658C86.1571 165.027 86.2248 165.448 86.2248 165.901V170.807H85.3289V170.841L85.312 170.79ZM82.6412 169.497C82.9793 169.497 83.2497 169.446 83.5202 169.312C83.7568 169.194 84.0273 169.009 84.2639 168.741V167.531C83.7737 167.548 83.368 167.581 83.03 167.665C82.6919 167.716 82.4553 167.817 82.2524 167.917C82.0496 168.018 81.9143 168.136 81.8467 168.27C81.7791 168.405 81.7284 168.539 81.7284 168.69C81.7284 168.993 81.796 169.211 81.965 169.329C82.1341 169.463 82.3538 169.514 82.6412 169.514V169.497Z" fill="#F6BD23"/>
<path d="M93.2907 164.708C93.2907 164.708 93.1723 164.843 93.1216 164.91C93.0709 164.944 92.9695 164.96 92.885 164.96C92.8005 164.96 92.699 164.927 92.5976 164.86C92.4962 164.809 92.4117 164.742 92.2764 164.658C92.1581 164.574 92.0229 164.524 91.8708 164.473C91.7017 164.423 91.5158 164.372 91.2791 164.372C90.9749 164.372 90.7213 164.423 90.5016 164.54C90.2818 164.658 90.0959 164.809 89.9437 165.028C89.7916 165.246 89.6902 165.498 89.6226 165.801C89.555 166.103 89.5042 166.439 89.5042 166.825C89.5042 167.615 89.6564 168.237 89.9776 168.657C90.2987 169.077 90.7044 169.295 91.2453 169.295C91.4313 169.295 91.5834 169.278 91.7355 169.245C91.8708 169.211 91.9722 169.161 92.0905 169.127C92.1919 169.077 92.2764 169.026 92.3441 168.959C92.4117 168.909 92.4962 168.842 92.5469 168.791C92.6145 168.741 92.6821 168.69 92.7497 168.674C92.8174 168.64 92.9019 168.623 92.9695 168.623C93.1216 168.623 93.2569 168.674 93.3414 168.791L93.9161 169.547C93.6963 169.799 93.4597 170.018 93.223 170.186C92.9864 170.354 92.7159 170.488 92.4624 170.589C92.2088 170.69 91.9384 170.757 91.651 170.807C91.3975 170.841 91.1101 170.858 90.8396 170.858C90.3663 170.858 89.9437 170.757 89.5212 170.589C89.1155 170.421 88.7436 170.152 88.4393 169.799C88.1182 169.447 87.8815 169.026 87.6956 168.522C87.5096 168.018 87.4082 167.464 87.4082 166.809C87.4082 166.237 87.4758 165.7 87.6449 165.229C87.8139 164.742 88.0336 164.322 88.3548 163.952C88.676 163.583 89.0479 163.314 89.5212 163.095C89.9945 162.877 90.5185 162.793 91.127 162.793C91.7017 162.793 92.2088 162.894 92.6314 163.079C93.054 163.28 93.4597 163.549 93.8147 163.902L93.2738 164.708H93.2907Z" fill="#F6BD23"/>
<path d="M97.2283 160.76C97.2283 160.928 97.1945 161.113 97.1269 161.247C97.0593 161.398 96.9578 161.533 96.8395 161.65C96.7212 161.768 96.6029 161.869 96.4338 161.919C96.2817 161.97 96.1127 162.02 95.9436 162.02C95.7746 162.02 95.6225 161.986 95.4703 161.919C95.3182 161.852 95.183 161.768 95.0815 161.65C94.9632 161.533 94.8787 161.398 94.828 161.247C94.7604 161.096 94.7266 160.945 94.7266 160.76C94.7266 160.575 94.7604 160.407 94.828 160.256C94.8956 160.105 94.9801 159.97 95.0815 159.853C95.1999 159.735 95.3182 159.634 95.4703 159.584C95.6225 159.533 95.7746 159.483 95.9436 159.483C96.1127 159.483 96.2817 159.517 96.4338 159.584C96.586 159.651 96.7212 159.735 96.8395 159.853C96.9578 159.97 97.0424 160.105 97.1269 160.256C97.1776 160.407 97.2283 160.558 97.2283 160.76ZM96.9916 162.978V170.774H94.9801V162.978H96.9916Z" fill="#F6BD23"/>
<path d="M102.114 162.843C102.672 162.843 103.196 162.944 103.669 163.129C104.142 163.331 104.531 163.566 104.869 163.919C105.207 164.271 105.461 164.691 105.63 165.179C105.816 165.683 105.917 166.237 105.917 166.859C105.917 167.481 105.816 168.035 105.63 168.539C105.444 169.043 105.207 169.463 104.869 169.816C104.531 170.169 104.142 170.438 103.669 170.623C103.196 170.807 102.705 170.908 102.114 170.908C101.522 170.908 101.032 170.807 100.559 170.623C100.085 170.421 99.6966 170.152 99.3586 169.816C99.0205 169.463 98.7669 169.043 98.5979 168.539C98.412 168.035 98.3105 167.481 98.3105 166.859C98.3105 166.237 98.412 165.683 98.5979 165.179C98.7838 164.675 99.0543 164.271 99.3586 163.919C99.6966 163.566 100.085 163.297 100.559 163.129C101.032 162.944 101.522 162.843 102.114 162.843ZM102.114 169.329C102.689 169.329 103.128 169.11 103.399 168.707C103.686 168.304 103.804 167.682 103.804 166.876C103.804 166.069 103.669 165.464 103.399 165.044C103.111 164.641 102.689 164.423 102.114 164.423C101.539 164.423 101.083 164.641 100.812 165.044C100.525 165.448 100.407 166.069 100.407 166.876C100.407 167.682 100.542 168.304 100.812 168.707C101.1 169.11 101.522 169.329 102.114 169.329ZM104.818 159.668L102.976 161.65C102.875 161.751 102.79 161.818 102.689 161.886C102.587 161.936 102.469 161.936 102.317 161.936H101.1L102.131 160.088C102.198 159.953 102.3 159.836 102.384 159.785C102.486 159.735 102.638 159.685 102.875 159.685H104.818V159.668Z" fill="#F6BD23"/>
<path d="M107.186 170.774V162.978H108.436C108.69 162.978 108.859 163.095 108.944 163.347L109.079 163.885C109.231 163.734 109.4 163.599 109.552 163.465C109.721 163.33 109.89 163.23 110.076 163.129C110.262 163.028 110.448 162.978 110.668 162.91C110.871 162.86 111.124 162.826 111.361 162.826C111.766 162.826 112.121 162.91 112.443 163.045C112.764 163.196 113.017 163.398 113.254 163.667C113.474 163.935 113.626 164.238 113.744 164.607C113.862 164.977 113.913 165.363 113.913 165.8V170.757H111.902V165.8C111.902 165.38 111.8 165.027 111.597 164.792C111.411 164.557 111.107 164.423 110.735 164.423C110.448 164.423 110.177 164.473 109.924 164.607C109.687 164.742 109.434 164.91 109.214 165.128V170.757H107.202L107.186 170.774Z" fill="#F6BD23"/>
<path d="M124.394 170.774C124.14 170.774 123.971 170.656 123.886 170.404L123.717 169.732C123.413 170.085 123.058 170.354 122.686 170.555C122.298 170.774 121.841 170.891 121.317 170.891C120.911 170.891 120.54 170.791 120.201 170.623C119.863 170.455 119.559 170.186 119.322 169.85C119.086 169.497 118.9 169.094 118.748 168.59C118.613 168.085 118.545 167.531 118.545 166.893C118.545 166.321 118.613 165.767 118.765 165.263C118.917 164.759 119.137 164.339 119.424 163.969C119.711 163.599 120.032 163.314 120.455 163.112C120.844 162.894 121.3 162.81 121.774 162.81C122.179 162.81 122.517 162.86 122.805 163.011C123.092 163.146 123.346 163.297 123.565 163.532V159.5H125.577V170.807H124.377L124.394 170.774ZM122.044 169.245C122.399 169.245 122.703 169.161 122.94 169.026C123.177 168.892 123.413 168.674 123.633 168.405V164.96C123.447 164.725 123.244 164.574 123.024 164.473C122.805 164.372 122.551 164.339 122.314 164.339C122.078 164.339 121.841 164.372 121.638 164.473C121.435 164.574 121.266 164.725 121.114 164.91C120.962 165.128 120.861 165.38 120.776 165.7C120.709 166.002 120.658 166.389 120.658 166.842C120.658 167.296 120.692 167.649 120.759 167.951C120.81 168.237 120.911 168.489 121.047 168.69C121.182 168.875 121.3 169.026 121.469 169.094C121.638 169.194 121.841 169.228 122.044 169.228V169.245Z" fill="#F6BD23"/>
<path d="M130.596 162.843C131.087 162.843 131.526 162.927 131.949 163.078C132.354 163.23 132.709 163.465 132.997 163.767C133.301 164.07 133.521 164.439 133.69 164.893C133.859 165.33 133.926 165.834 133.926 166.405C133.926 166.556 133.926 166.691 133.91 166.792C133.893 166.892 133.876 166.96 133.842 167.044C133.808 167.094 133.774 167.144 133.707 167.161C133.656 167.178 133.571 167.195 133.487 167.195H128.94C128.991 167.934 129.193 168.472 129.531 168.791C129.87 169.144 130.309 169.295 130.884 169.295C131.171 169.295 131.408 169.262 131.611 169.194C131.813 169.144 131.983 169.06 132.152 168.959C132.304 168.875 132.456 168.808 132.557 168.724C132.676 168.64 132.794 168.623 132.929 168.623C133.081 168.623 133.216 168.673 133.301 168.791L133.876 169.547C133.656 169.799 133.419 170.018 133.166 170.186C132.912 170.354 132.642 170.488 132.354 170.589C132.067 170.69 131.797 170.757 131.509 170.807C131.222 170.841 130.951 170.858 130.681 170.858C130.157 170.858 129.65 170.757 129.21 170.589C128.754 170.421 128.348 170.152 128.01 169.799C127.672 169.446 127.419 169.009 127.199 168.489C127.013 167.968 126.895 167.363 126.895 166.674C126.895 166.153 126.996 165.649 127.148 165.162C127.317 164.691 127.554 164.288 127.875 163.919C128.196 163.566 128.585 163.297 129.041 163.095C129.464 162.944 129.971 162.826 130.563 162.826L130.596 162.843ZM130.63 164.305C130.14 164.305 129.768 164.439 129.498 164.725C129.21 165.011 129.041 165.414 128.957 165.935H132.118C132.118 165.716 132.084 165.515 132.016 165.313C131.966 165.111 131.864 164.943 131.763 164.792C131.661 164.641 131.475 164.523 131.289 164.423C131.12 164.339 130.901 164.288 130.63 164.288V164.305Z" fill="#F6BD23"/>
<path d="M144.103 170.774C143.849 170.774 143.68 170.656 143.595 170.404L143.426 169.732C143.122 170.085 142.767 170.354 142.395 170.555C142.007 170.774 141.55 170.891 141.026 170.891C140.62 170.891 140.249 170.791 139.91 170.623C139.572 170.455 139.268 170.186 139.031 169.85C138.795 169.497 138.609 169.094 138.457 168.59C138.322 168.085 138.254 167.531 138.254 166.893C138.254 166.321 138.322 165.767 138.474 165.263C138.626 164.759 138.846 164.339 139.133 163.969C139.42 163.599 139.741 163.314 140.164 163.112C140.553 162.894 141.009 162.81 141.482 162.81C141.888 162.81 142.226 162.86 142.514 163.011C142.801 163.146 143.055 163.297 143.274 163.532V159.5H145.286V170.807H144.086L144.103 170.774ZM141.753 169.245C142.108 169.245 142.412 169.161 142.649 169.026C142.885 168.892 143.122 168.674 143.342 168.405V164.96C143.156 164.725 142.953 164.574 142.733 164.473C142.514 164.372 142.26 164.339 142.023 164.339C141.787 164.339 141.55 164.372 141.347 164.473C141.144 164.574 140.975 164.725 140.823 164.91C140.671 165.128 140.57 165.38 140.485 165.7C140.418 166.002 140.367 166.389 140.367 166.842C140.367 167.296 140.401 167.649 140.468 167.951C140.519 168.237 140.62 168.489 140.756 168.69C140.891 168.875 141.009 169.026 141.178 169.094C141.347 169.194 141.533 169.228 141.753 169.228V169.245Z" fill="#F6BD23"/>
<path d="M150.306 162.843C150.796 162.843 151.236 162.927 151.658 163.078C152.064 163.23 152.419 163.465 152.706 163.767C153.011 164.07 153.23 164.439 153.399 164.893C153.568 165.33 153.636 165.834 153.636 166.405C153.636 166.556 153.636 166.691 153.619 166.792C153.602 166.892 153.585 166.96 153.552 167.044C153.518 167.094 153.484 167.144 153.416 167.161C153.366 167.178 153.281 167.195 153.197 167.195H148.666C148.717 167.934 148.92 168.472 149.258 168.791C149.596 169.144 150.036 169.295 150.61 169.295C150.898 169.295 151.134 169.262 151.337 169.194C151.54 169.144 151.709 169.06 151.878 168.959C152.03 168.875 152.182 168.808 152.284 168.724C152.402 168.64 152.52 168.623 152.656 168.623C152.808 168.623 152.943 168.673 153.028 168.791L153.602 169.547C153.383 169.799 153.146 170.018 152.892 170.186C152.639 170.354 152.368 170.488 152.081 170.589C151.794 170.69 151.523 170.757 151.236 170.807C150.948 170.841 150.678 170.858 150.408 170.858C149.883 170.858 149.376 170.757 148.937 170.589C148.48 170.421 148.075 170.152 147.737 169.799C147.399 169.446 147.145 169.009 146.925 168.489C146.739 167.968 146.621 167.363 146.621 166.674C146.621 166.153 146.723 165.649 146.875 165.162C147.044 164.691 147.28 164.288 147.602 163.919C147.923 163.566 148.311 163.297 148.768 163.095C149.19 162.944 149.698 162.826 150.289 162.826L150.306 162.843ZM150.34 164.305C149.85 164.305 149.478 164.439 149.207 164.725C148.92 165.011 148.751 165.414 148.666 165.935H151.827C151.827 165.716 151.794 165.515 151.726 165.313C151.675 165.111 151.574 164.943 151.472 164.792C151.354 164.641 151.185 164.523 150.999 164.423C150.813 164.339 150.61 164.288 150.34 164.288V164.305Z" fill="#F6BD23"/>
<path d="M159.569 164.574C159.569 164.574 159.451 164.725 159.4 164.775C159.349 164.809 159.265 164.826 159.18 164.826C159.096 164.826 158.977 164.809 158.876 164.742C158.774 164.691 158.656 164.641 158.538 164.591C158.403 164.54 158.25 164.473 158.115 164.439C157.946 164.389 157.76 164.355 157.557 164.355C157.219 164.355 156.983 164.439 156.797 164.574C156.611 164.708 156.509 164.91 156.509 165.111C156.509 165.263 156.56 165.397 156.661 165.498C156.763 165.599 156.898 165.683 157.067 165.767C157.236 165.851 157.422 165.918 157.642 165.985C157.845 166.069 158.064 166.12 158.301 166.22C158.521 166.304 158.758 166.388 158.96 166.506C159.163 166.624 159.366 166.741 159.535 166.909C159.704 167.077 159.839 167.262 159.941 167.481C160.042 167.716 160.093 167.985 160.093 168.287C160.093 168.673 160.025 169.026 159.89 169.329C159.755 169.665 159.552 169.934 159.298 170.152C159.045 170.387 158.724 170.555 158.335 170.69C157.946 170.824 157.507 170.874 157.016 170.874C156.763 170.874 156.492 170.858 156.256 170.79C156.002 170.757 155.749 170.673 155.529 170.572C155.309 170.471 155.073 170.387 154.87 170.27C154.667 170.152 154.498 170.018 154.346 169.883L154.819 169.11C154.87 169.009 154.937 168.959 155.022 168.892C155.089 168.841 155.208 168.808 155.343 168.808C155.478 168.808 155.58 168.841 155.681 168.909C155.783 168.959 155.901 169.043 156.019 169.127C156.154 169.211 156.307 169.262 156.476 169.346C156.645 169.396 156.864 169.446 157.135 169.446C157.321 169.446 157.49 169.43 157.642 169.362C157.794 169.329 157.895 169.245 157.98 169.178C158.081 169.094 158.132 169.009 158.166 168.909C158.2 168.808 158.217 168.724 158.217 168.606C158.217 168.438 158.166 168.304 158.064 168.186C157.946 168.069 157.828 167.968 157.659 167.901C157.49 167.817 157.304 167.749 157.084 167.682C156.864 167.632 156.628 167.548 156.408 167.464C156.188 167.38 155.952 167.296 155.732 167.178C155.512 167.06 155.326 166.926 155.157 166.758C154.988 166.59 154.853 166.372 154.751 166.136C154.633 165.884 154.599 165.599 154.599 165.229C154.599 164.893 154.65 164.591 154.785 164.305C154.92 164.019 155.089 163.767 155.326 163.532C155.563 163.297 155.867 163.129 156.239 163.011C156.594 162.877 157.016 162.826 157.507 162.826C158.048 162.826 158.538 162.927 158.96 163.095C159.383 163.263 159.772 163.515 160.042 163.818L159.62 164.574H159.569Z" fill="#F6BD23"/>
<path d="M164.623 162.843C165.114 162.843 165.553 162.927 165.976 163.078C166.381 163.23 166.736 163.465 167.024 163.767C167.328 164.07 167.548 164.439 167.717 164.893C167.886 165.33 167.953 165.834 167.953 166.405C167.953 166.556 167.953 166.691 167.937 166.792C167.92 166.892 167.903 166.96 167.869 167.044C167.835 167.094 167.801 167.144 167.734 167.161C167.683 167.178 167.598 167.195 167.514 167.195H162.984C163.035 167.934 163.237 168.472 163.575 168.791C163.914 169.144 164.353 169.295 164.928 169.295C165.215 169.295 165.452 169.262 165.655 169.194C165.857 169.144 166.026 169.06 166.195 168.959C166.348 168.875 166.5 168.808 166.601 168.724C166.72 168.64 166.838 168.623 166.973 168.623C167.125 168.623 167.26 168.673 167.345 168.791L167.92 169.547C167.7 169.799 167.463 170.018 167.21 170.186C166.956 170.354 166.686 170.488 166.398 170.589C166.111 170.69 165.841 170.757 165.553 170.807C165.266 170.841 164.995 170.858 164.725 170.858C164.201 170.858 163.694 170.757 163.254 170.589C162.798 170.421 162.392 170.152 162.054 169.799C161.716 169.446 161.462 169.009 161.243 168.489C161.057 167.968 160.938 167.363 160.938 166.674C160.938 166.153 161.04 165.649 161.192 165.162C161.361 164.691 161.598 164.288 161.919 163.919C162.24 163.566 162.629 163.297 163.085 163.095C163.508 162.944 164.032 162.826 164.59 162.826L164.623 162.843ZM164.657 164.305C164.167 164.305 163.795 164.439 163.525 164.725C163.237 165.011 163.068 165.414 162.984 165.935H166.145C166.145 165.716 166.111 165.515 166.043 165.313C165.993 165.111 165.891 164.943 165.79 164.792C165.688 164.641 165.502 164.523 165.317 164.423C165.147 164.339 164.928 164.288 164.657 164.288V164.305Z" fill="#F6BD23"/>
<path d="M169.204 170.774V162.978H170.455C170.709 162.978 170.878 163.095 170.962 163.347L171.08 163.851C171.216 163.717 171.334 163.583 171.486 163.465C171.638 163.347 171.773 163.23 171.942 163.163C172.112 163.062 172.281 163.011 172.466 162.944C172.652 162.894 172.855 162.86 173.075 162.86C173.548 162.86 173.92 162.995 174.241 163.247C174.563 163.499 174.765 163.851 174.934 164.271C175.07 164.019 175.222 163.801 175.391 163.633C175.577 163.465 175.763 163.297 175.966 163.196C176.168 163.079 176.388 163.011 176.642 162.944C176.878 162.894 177.115 162.86 177.352 162.86C177.774 162.86 178.163 162.911 178.467 163.062C178.805 163.196 179.059 163.398 179.296 163.633C179.515 163.885 179.684 164.187 179.803 164.557C179.921 164.927 179.972 165.347 179.972 165.817V170.774H177.96V165.817C177.96 164.91 177.588 164.439 176.828 164.439C176.659 164.439 176.49 164.473 176.354 164.54C176.202 164.591 176.067 164.692 175.982 164.809C175.864 164.927 175.797 165.061 175.729 165.229C175.678 165.397 175.627 165.599 175.627 165.834V170.791H173.616V165.834C173.616 165.33 173.515 164.977 173.329 164.776C173.143 164.557 172.855 164.473 172.483 164.473C172.247 164.473 172.027 164.523 171.824 164.641C171.621 164.759 171.418 164.91 171.249 165.128V170.824H169.238V170.791L169.204 170.774Z" fill="#F6BD23"/>
<path d="M181.577 173.311V162.978H182.828C183.082 162.978 183.251 163.095 183.335 163.347L183.487 164.003C183.639 163.835 183.808 163.667 183.977 163.515C184.146 163.364 184.332 163.247 184.518 163.146C184.704 163.045 184.924 162.961 185.161 162.894C185.397 162.827 185.634 162.793 185.888 162.793C186.293 162.793 186.665 162.894 187.003 163.062C187.341 163.23 187.646 163.499 187.882 163.835C188.119 164.188 188.305 164.591 188.457 165.095C188.592 165.599 188.66 166.153 188.66 166.792C188.66 167.363 188.592 167.918 188.44 168.422C188.288 168.926 188.068 169.346 187.781 169.715C187.493 170.085 187.172 170.371 186.75 170.572C186.361 170.791 185.904 170.875 185.431 170.875C185.025 170.875 184.671 170.824 184.383 170.69C184.096 170.555 183.842 170.404 183.622 170.169V173.277H181.594V173.311H181.577ZM185.178 164.44C184.823 164.44 184.518 164.524 184.282 164.658C184.045 164.809 183.808 165.011 183.589 165.296V168.707C183.775 168.942 183.977 169.094 184.197 169.194C184.417 169.295 184.671 169.329 184.907 169.329C185.144 169.329 185.38 169.295 185.583 169.194C185.786 169.094 185.955 168.942 186.107 168.758C186.259 168.539 186.361 168.287 186.445 167.968C186.513 167.666 186.564 167.279 186.564 166.825C186.564 166.372 186.53 166.019 186.462 165.716C186.395 165.414 186.31 165.179 186.175 164.977C186.057 164.792 185.921 164.641 185.752 164.574C185.583 164.473 185.38 164.44 185.178 164.44V164.44Z" fill="#F6BD23"/>
<path d="M193.207 162.843C193.697 162.843 194.136 162.927 194.559 163.078C194.965 163.23 195.32 163.465 195.607 163.767C195.911 164.07 196.131 164.439 196.3 164.893C196.469 165.33 196.537 165.834 196.537 166.405C196.537 166.556 196.537 166.691 196.52 166.792C196.503 166.892 196.486 166.96 196.452 167.044C196.418 167.094 196.385 167.144 196.317 167.161C196.266 167.178 196.182 167.195 196.097 167.195H191.55C191.601 167.934 191.804 168.472 192.142 168.791C192.48 169.144 192.919 169.295 193.494 169.295C193.781 169.295 194.018 169.262 194.221 169.194C194.424 169.144 194.593 169.06 194.762 168.959C194.914 168.875 195.066 168.808 195.168 168.724C195.286 168.64 195.404 168.623 195.539 168.623C195.692 168.623 195.827 168.673 195.911 168.791L196.486 169.547C196.266 169.799 196.03 170.018 195.776 170.186C195.523 170.354 195.252 170.488 194.965 170.589C194.677 170.69 194.407 170.757 194.12 170.807C193.832 170.841 193.562 170.858 193.291 170.858C192.767 170.858 192.26 170.757 191.821 170.589C191.364 170.421 190.959 170.152 190.621 169.799C190.282 169.446 190.029 169.009 189.809 168.489C189.623 167.968 189.505 167.363 189.505 166.674C189.505 166.153 189.606 165.649 189.758 165.162C189.927 164.691 190.164 164.288 190.485 163.919C190.806 163.566 191.195 163.297 191.635 163.095C192.057 162.944 192.581 162.826 193.139 162.826L193.207 162.843ZM193.241 164.305C192.75 164.305 192.378 164.439 192.108 164.725C191.821 165.011 191.652 165.414 191.567 165.935H194.745C194.745 165.716 194.711 165.515 194.644 165.313C194.593 165.111 194.491 164.943 194.39 164.792C194.289 164.641 194.103 164.523 193.917 164.423C193.731 164.339 193.511 164.288 193.241 164.288V164.305Z" fill="#F6BD23"/>
<path d="M197.789 170.774V162.978H199.04C199.293 162.978 199.463 163.095 199.547 163.347L199.682 163.885C199.834 163.734 200.003 163.599 200.156 163.465C200.325 163.331 200.494 163.23 200.68 163.129C200.866 163.028 201.051 162.978 201.271 162.911C201.474 162.86 201.728 162.827 201.964 162.827C202.37 162.827 202.725 162.911 203.046 163.045C203.367 163.196 203.621 163.398 203.857 163.667C204.077 163.935 204.229 164.238 204.348 164.608C204.466 164.977 204.517 165.364 204.517 165.8V170.757H202.505V165.8C202.505 165.38 202.404 165.028 202.201 164.792C202.015 164.557 201.711 164.423 201.339 164.423C201.051 164.423 200.781 164.473 200.527 164.608C200.291 164.742 200.037 164.91 199.818 165.128V170.757H197.806L197.789 170.774ZM201.981 160.39C202.116 160.39 202.218 160.357 202.302 160.273C202.37 160.189 202.421 160.054 202.421 159.853H203.655C203.655 160.138 203.621 160.407 203.536 160.659C203.469 160.911 203.35 161.096 203.198 161.281C203.046 161.466 202.877 161.583 202.691 161.667C202.505 161.768 202.285 161.802 202.049 161.802C201.88 161.802 201.711 161.768 201.559 161.701C201.406 161.65 201.254 161.566 201.136 161.482C201.001 161.398 200.882 161.348 200.764 161.264C200.646 161.214 200.561 161.163 200.46 161.163C200.325 161.163 200.223 161.197 200.139 161.281C200.071 161.365 200.02 161.516 200.02 161.718H198.769C198.769 161.432 198.803 161.163 198.888 160.911C198.955 160.659 199.074 160.474 199.226 160.289C199.378 160.121 199.547 159.987 199.733 159.886C199.919 159.785 200.139 159.752 200.375 159.752C200.561 159.752 200.73 159.785 200.882 159.853C201.035 159.92 201.187 159.987 201.305 160.071C201.44 160.155 201.559 160.205 201.66 160.289C201.795 160.34 201.88 160.39 201.981 160.39V160.39Z" fill="#F6BD23"/>
<path d="M209.519 162.843C210.077 162.843 210.601 162.944 211.074 163.129C211.548 163.314 211.936 163.566 212.274 163.919C212.612 164.272 212.866 164.692 213.035 165.179C213.221 165.683 213.322 166.237 213.322 166.859C213.322 167.481 213.221 168.035 213.035 168.539C212.849 169.043 212.612 169.463 212.274 169.816C211.936 170.169 211.548 170.438 211.074 170.623C210.601 170.824 210.111 170.908 209.519 170.908C208.928 170.908 208.437 170.807 207.964 170.623C207.491 170.438 207.102 170.152 206.764 169.816C206.426 169.463 206.172 169.043 206.003 168.539C205.817 168.035 205.716 167.481 205.716 166.859C205.716 166.237 205.817 165.683 206.003 165.179C206.189 164.675 206.46 164.272 206.764 163.919C207.102 163.566 207.491 163.297 207.964 163.129C208.42 162.944 208.928 162.843 209.519 162.843ZM209.519 169.329C210.094 169.329 210.533 169.11 210.804 168.707C211.091 168.304 211.209 167.682 211.209 166.876C211.209 166.069 211.074 165.464 210.804 165.044C210.516 164.641 210.094 164.423 209.519 164.423C208.944 164.423 208.488 164.641 208.218 165.044C207.93 165.448 207.812 166.069 207.812 166.876C207.812 167.682 207.947 168.304 208.218 168.707C208.505 169.11 208.928 169.329 209.519 169.329Z" fill="#F6BD23"/>
<path d="M71.6919 150.487H46.0153C45.2546 150.487 44.6123 149.832 44.6123 149.042V142.338C44.6123 141.548 45.2546 140.893 46.0153 140.893H66.8575C69.562 140.893 71.7257 140.389 73.2977 139.364C74.8867 138.339 75.6642 136.558 75.6642 134.021C75.6642 131.484 74.836 129.753 73.1794 128.712C71.5228 127.67 69.4099 127.149 66.8405 127.149H50.2412C49.4805 127.149 48.8382 126.494 48.8382 125.704V119C48.8382 118.21 49.4805 117.555 50.2412 117.555H66.6208C69.2916 117.555 71.4383 117.085 73.0442 116.144C74.65 115.102 75.4783 113.338 75.4783 110.834C75.4783 106.264 72.5202 103.979 66.6208 103.979H46.0153C45.2546 103.996 44.6123 103.358 44.6123 102.551V95.864C44.6123 95.0743 45.2546 94.4191 46.0153 94.4191H70.5424C86.7868 94.4191 88.5955 105.256 88.5955 109.558C88.5955 111.271 88.2912 112.901 87.6996 114.43C87.108 115.959 86.2121 117.421 85.0288 118.799C84.0822 119.924 83.0511 120.949 81.9693 121.873C81.6143 122.176 81.6481 122.781 82.0369 123.033C82.5778 123.402 83.1187 123.772 83.6258 124.142C84.3696 124.713 85.181 125.469 86.0431 126.443C86.9051 127.401 87.5306 128.728 87.9701 130.392C88.3927 132.055 88.6124 133.752 88.6124 135.466C88.6124 146.79 80.4311 150.537 71.7088 150.537L71.6919 150.487Z" fill="white"/>
<path d="M106.698 117.387C106.665 117.807 106.986 118.194 107.391 118.194H126.087C131.885 118.194 136.432 119.336 139.779 121.588C143.126 123.839 144.799 127.771 144.799 133.349V134.996C144.799 136.978 144.461 138.776 143.768 140.389C143.092 142.019 141.858 143.732 140.066 145.581C138.274 147.429 135.654 148.84 132.223 149.848C128.791 150.84 125.056 151.344 121.016 151.344C118.396 151.344 115.556 151.108 112.496 150.655C109.437 150.184 106.597 149.143 104.011 147.53C101.408 145.9 99.3792 143.917 97.8578 141.515C96.3365 139.112 95.2378 136.424 94.5278 133.383C93.8179 130.375 93.4629 127.132 93.4629 123.688V121.319C93.4629 120.563 93.5981 118.866 93.8348 116.194C94.0714 113.523 94.9335 110.633 96.3534 107.491C97.7902 104.349 99.7172 101.812 102.168 99.9133C104.619 98.0147 107.459 96.6369 110.721 95.7464C113.984 94.8559 117.855 94.4191 122.334 94.4191H140.387C141.148 94.4191 141.79 95.0743 141.79 95.864V102.551C141.79 103.341 141.148 103.996 140.387 103.996H122.03C118.413 103.996 115.556 104.416 113.477 105.29C111.381 106.147 109.792 107.558 108.676 109.507C107.662 111.322 107.003 113.943 106.665 117.404L106.698 117.387ZM125.343 127.62H107.341C106.952 127.62 106.631 127.972 106.631 128.376C106.665 129.535 106.783 130.593 106.969 131.551C107.189 132.71 107.561 133.903 108.068 135.164C108.727 137.213 110.164 138.826 112.395 140.07C114.643 141.313 117.567 141.901 121.185 141.901C123.602 141.901 125.766 141.599 127.659 140.96C129.062 140.591 130.178 139.717 130.989 138.373C131.8 137.029 132.206 135.634 132.206 134.223C132.206 132.442 131.631 130.879 130.465 129.518C129.248 128.275 127.541 127.636 125.326 127.636L125.343 127.62Z" fill="white"/>
<path d="M196.575 104.903C196.322 104.601 195.933 104.416 195.527 104.416C195.156 104.416 194.801 104.567 194.53 104.836L190.186 109.339C189.679 109.877 189.645 110.734 190.118 111.305C196.339 119.034 195.527 130.341 188.293 137.079C185.013 140.103 180.771 141.8 176.308 141.8C171.845 141.8 167.417 140.07 164.104 136.894C160.469 133.416 158.407 128.712 158.306 123.587C158.187 118.463 160.064 113.674 163.546 110.062C166.943 106.55 171.457 104.618 176.257 104.618C177.305 104.618 178.353 104.735 179.384 104.92L174.618 109.86C174.297 110.196 174.263 110.683 174.516 110.986L178.86 115.489C179.148 115.774 179.621 115.741 179.942 115.388L189.882 105.105L194.141 100.703L194.243 100.602C194.378 100.468 194.429 100.3 194.429 100.115C194.429 100.115 194.423 100.109 194.412 100.098V100.065C194.412 99.8965 194.361 99.7117 194.226 99.5773L194.124 99.4765L179.942 84.8085C179.621 84.4724 179.131 84.4388 178.86 84.7077L174.516 89.2106C174.229 89.4962 174.28 90.0002 174.618 90.3363L179.672 95.5616C178.556 95.4104 177.424 95.3432 176.274 95.3432C168.752 95.3432 161.754 98.4684 156.632 104.131C147.132 114.581 146.963 131.131 156.227 141.8C161.348 147.664 168.651 151.058 176.291 151.058C183.509 151.058 190.254 148.168 195.341 142.926C205.315 132.593 205.872 115.909 196.592 104.92L196.575 104.903Z" fill="white"/>
<path d="M208.458 106.819C206.869 106.819 205.364 106.18 204.232 105.004C201.899 102.585 201.899 98.6699 204.232 96.2672C205.348 95.1079 206.869 94.4526 208.458 94.4526C210.047 94.4526 211.551 95.0911 212.684 96.2672C215.016 98.6867 215.016 102.602 212.684 105.004C211.568 106.18 210.047 106.819 208.458 106.819ZM208.458 97.561C207.646 97.561 206.903 97.897 206.345 98.4683C205.179 99.6612 205.179 101.644 206.345 102.837C207.511 104.03 209.404 104.03 210.571 102.837C211.737 101.644 211.737 99.6612 210.571 98.4683C210.013 97.8634 209.269 97.561 208.458 97.561V97.561Z" fill="#F6BD23"/>
</svg>
