<svg width="259" height="259" viewBox="0 0 259 259" fill="none" xmlns="http://www.w3.org/2000/svg">
<ellipse cx="129.141" cy="129.141" rx="129.141" ry="129.141" fill="#2AB296"/>
<circle cx="129.14" cy="129.141" r="114.303" stroke="white" stroke-width="1.5"/>
<path d="M193.77 191.226V188.163H196.398V173.406H193.77V170.343H199.86L199.831 188.164H206.009V183.246H209.383V191.227L193.77 191.226Z" fill="white"/>
<path d="M184.013 191.226V188.163H186.07L184.554 183.973H178.035L176.235 189.121V191.226H170.34V188.163H173.058L178.69 172.225L179.319 170.341H186.387V173.406H184.324L189.613 188.163H192.276V191.227L184.013 191.226ZM181.326 174.613L179.122 180.911H183.496L181.326 174.613Z" fill="white"/>
<path d="M161.303 191.229V188.165H163.736V170.342H167.164V188.163H169.626V191.229H161.303ZM163.707 169.582V165.987H167.135V169.582H163.707Z" fill="white"/>
<path d="M154.268 191.226L149.891 181.698H147.119V191.255H143.686V173.407H140.829V170.344H151.294C152.104 170.335 152.911 170.458 153.683 170.708C154.417 170.953 155.093 171.344 155.672 171.858C156.249 172.342 156.71 172.95 157.022 173.635C157.333 174.321 157.487 175.068 157.472 175.821C157.478 176.505 157.373 177.184 157.16 177.834C156.951 178.46 156.62 179.038 156.186 179.536C155.84 179.951 155.424 180.303 154.957 180.576C154.458 180.865 153.93 181.099 153.382 181.276L156.585 188.164H159.393V191.227L154.268 191.226ZM153.268 174.139C152.983 173.902 152.658 173.72 152.307 173.602C151.869 173.463 151.411 173.397 150.952 173.409H147.119V178.637H150.435C150.999 178.65 151.562 178.585 152.108 178.443C152.506 178.337 152.881 178.155 153.21 177.907C153.476 177.704 153.688 177.438 153.824 177.132C153.98 176.765 154.053 176.369 154.039 175.97C154.06 175.626 154.001 175.282 153.867 174.964C153.734 174.647 153.528 174.364 153.268 174.139V174.139Z" fill="white"/>
<path d="M137.485 188.447C136.486 189.456 135.29 190.249 133.971 190.776C132.653 191.303 131.239 191.553 129.82 191.51C128.4 191.554 126.986 191.305 125.667 190.778C124.349 190.251 123.152 189.457 122.154 188.447C120.205 186.367 119.121 183.623 119.121 180.773C119.121 177.923 120.205 175.179 122.154 173.099C123.151 172.087 124.347 171.292 125.666 170.764C126.986 170.236 128.4 169.987 129.82 170.031C131.24 169.987 132.654 170.238 133.973 170.765C135.292 171.293 136.487 172.088 137.485 173.099C139.431 175.181 140.513 177.923 140.513 180.773C140.513 183.622 139.431 186.365 137.485 188.447V188.447ZM135.023 175.318C134.352 174.622 133.542 174.075 132.646 173.712C131.75 173.348 130.787 173.177 129.821 173.209C128.851 173.182 127.887 173.358 126.99 173.726C126.093 174.094 125.284 174.646 124.613 175.347C123.287 176.843 122.555 178.774 122.555 180.773C122.555 182.772 123.287 184.702 124.613 186.199C125.284 186.898 126.094 187.449 126.991 187.816C127.888 188.183 128.852 188.357 129.821 188.329C130.787 188.362 131.75 188.191 132.646 187.828C133.543 187.464 134.353 186.917 135.023 186.22C136.349 184.713 137.081 182.775 137.081 180.768C137.081 178.761 136.349 176.823 135.023 175.316V175.318Z" fill="white"/>
<path d="M115.917 175.907V173.406H112.141V191.228H106.053V188.164H108.71V173.406H104.935V178.156H101.791V170.343H119.062V175.908L115.917 175.907Z" fill="white"/>
<path d="M98.5883 187.531C97.9527 188.451 97.1465 189.239 96.2135 189.855C94.4414 190.966 92.3859 191.542 90.2943 191.513C88.8803 191.569 87.4699 191.334 86.151 190.821C84.8321 190.308 83.6331 189.529 82.6287 188.532C81.6416 187.558 80.8813 186.378 80.402 185.076C79.9097 183.697 79.6672 182.241 79.6855 180.777C79.6682 179.319 79.9158 177.87 80.4165 176.501C80.9022 175.206 81.6568 174.028 82.6306 173.045C83.6259 172.042 84.8184 171.257 86.1327 170.739C87.447 170.221 88.8545 169.981 90.2662 170.035C91.6965 170.048 93.1088 170.355 94.4156 170.936C94.7751 171.085 95.1238 171.258 95.4593 171.454C95.8044 171.659 96.1335 171.89 96.4439 172.145V172.034H99.5884V178.246H96.5872C96.4475 177.388 96.1522 176.563 95.7158 175.811C95.3457 175.245 94.8625 174.762 94.2966 174.393C93.0752 173.617 91.657 173.208 90.2101 173.213C89.2627 173.18 88.319 173.348 87.4415 173.707C86.5639 174.066 85.7725 174.607 85.1197 175.294C83.7567 176.787 83.0367 178.757 83.1156 180.777C83.0439 182.792 83.7752 184.752 85.1487 186.227C85.8136 186.925 86.619 187.474 87.5116 187.837C88.4043 188.201 89.364 188.371 90.3272 188.336C91.7841 188.373 93.2156 187.95 94.4185 187.127C95.0501 186.672 95.5881 186.099 96.0034 185.44C96.6613 184.372 97.1947 183.232 97.593 182.042L100.538 183.724C100.047 185.069 99.392 186.347 98.5883 187.531V187.531Z" fill="white"/>
<path d="M72.9922 191.226V188.163H75.0495L73.5334 183.973H67.014L65.2094 189.121V191.226H59.3193V188.163H62.0349L67.6714 172.225L68.3007 170.341H75.3612V173.406H73.304L78.5948 188.164H81.2572V191.228L72.9922 191.226ZM70.3008 174.613L68.1012 180.911H72.4753L70.3008 174.613Z" fill="white"/>
<path d="M61.0064 176.808V173.406H53.455V178.971H60.6066V182.062L53.4579 182.038V191.227H47.5078V188.164H50.025V173.406H47.5078V170.343H64.1277V176.809L61.0064 176.808Z" fill="white"/>
<path d="M165.181 137.882C161.505 141.606 156.965 144.384 151.956 145.973C154.053 146.933 156.15 147.923 158.247 148.942C160.344 149.961 162.131 150.891 163.609 151.731L157.601 160.369C155.992 159.347 154.035 158.252 151.728 157.085C149.422 155.918 147.109 154.823 144.789 153.801C142.48 152.779 140.394 151.924 138.546 151.234C137.367 150.721 136.122 150.373 134.845 150.202C133.776 150.226 132.716 150.409 131.702 150.744C131.044 150.969 130.409 151.254 129.805 151.596C129.093 151.988 127.845 152.779 126.056 153.981L120.786 146.603C121.84 145.885 122.591 145.343 123.053 144.986C123.475 144.651 123.924 144.35 124.396 144.087C121.124 142.541 118.15 140.441 115.61 137.881C109.074 131.346 105.807 123.16 105.807 113.324C105.807 103.489 109.074 95.303 115.61 88.7676C122.145 82.2322 130.406 78.9645 140.392 78.9645C150.378 78.9645 158.641 82.2322 165.18 88.7676C171.715 95.303 174.982 103.489 174.982 113.324C174.982 123.16 171.715 131.346 165.181 137.882ZM157.228 95.8738C152.848 91.3755 147.235 89.1264 140.389 89.1264C137.256 89.0361 134.139 89.598 131.24 90.7756C128.341 91.9533 125.724 93.7204 123.559 95.9625C119.121 100.459 116.902 106.246 116.902 113.321C116.902 120.397 119.121 126.183 123.559 130.68C125.724 132.922 128.341 134.689 131.24 135.867C134.139 137.045 137.256 137.606 140.389 137.516C147.237 137.516 152.849 135.267 157.223 130.768C161.662 126.214 163.881 120.398 163.881 113.321C163.884 106.307 161.666 100.491 157.228 95.8728V95.8738Z" fill="white"/>
<path d="M82.2861 146.688V136.891H90.1668V79.8991H101.294V136.885H109.265V146.681L82.2861 146.688ZM90.077 77.4792V65.9672H101.198V77.4739L90.077 77.4792Z" fill="white"/>
</svg>
