<svg width="259" height="260" viewBox="0 0 259 260" fill="none" xmlns="http://www.w3.org/2000/svg">
<ellipse cx="129.141" cy="129.818" rx="129.141" ry="129.744" fill="#75242A"/>
<path d="M243.443 129.818C243.443 193.246 192.265 244.658 129.14 244.658C66.0162 244.658 14.8379 193.246 14.8379 129.818C14.8379 66.3904 66.0162 14.978 129.14 14.978C192.265 14.978 243.443 66.3904 243.443 129.818Z" stroke="white" stroke-width="1.5"/>
<path d="M73.0384 135.922C73.1672 135.904 73.2986 135.915 73.4221 135.956C73.5456 135.996 73.6579 136.065 73.75 136.156C73.8421 136.246 73.9115 136.357 73.9526 136.479C73.9938 136.602 74.0056 136.731 73.987 136.859V138.887C73.987 139.571 73.6722 139.91 73.0384 139.91H53.8307C51.2411 139.91 49.9163 138.777 49.8564 136.511V127.749C50.2243 125.612 51.549 124.478 53.8307 124.345H73.0384C73.6751 124.345 73.987 124.718 73.987 125.459V127.266C73.987 127.921 73.6722 128.245 73.0384 128.245H57.4512C57.2983 128.224 57.1425 128.238 56.996 128.286C56.8496 128.335 56.7166 128.416 56.6075 128.524C56.4985 128.632 56.4165 128.764 56.3679 128.909C56.3194 129.054 56.3057 129.208 56.3279 129.359C56.3279 129.989 56.7007 130.296 57.4512 130.296H72.9514C73.0918 130.277 73.2348 130.291 73.3691 130.336C73.5035 130.38 73.6256 130.455 73.7258 130.554C73.8261 130.653 73.9018 130.774 73.9472 130.907C73.9925 131.039 74.0061 131.181 73.987 131.32V132.979C73.987 133.576 73.6722 133.872 73.0384 133.872H57.3642C56.6717 133.872 56.3286 134.24 56.3286 134.986C56.3286 135.608 56.6724 135.924 57.3642 135.924L73.0384 135.922Z" fill="white"/>
<path d="M92.9728 139.907C92.7123 139.746 92.4918 139.514 92.3314 139.234C92.1709 138.953 92.0756 138.631 92.0541 138.299V130.034C92.0541 129.02 91.6863 128.509 90.9431 128.509H77.986C77.2166 128.509 76.8363 128.141 76.8363 127.4V125.612C76.8295 125.301 76.9276 124.997 77.1112 124.763C77.2948 124.528 77.5504 124.379 77.8274 124.345H95.0968C96.8873 124.55 97.9003 125.564 98.1351 127.399V138.471C98.042 138.796 97.8851 139.095 97.6759 139.344C97.4668 139.593 97.2106 139.786 96.9261 139.91L92.9728 139.907Z" fill="white"/>
<path d="M108.9 129.011C108.9 129.867 109.246 130.295 109.939 130.297H117.734C118.333 130.297 118.627 129.958 118.627 129.274V125.961C118.66 125.599 118.791 125.254 119.005 124.968C119.219 124.681 119.507 124.465 119.835 124.345H123.828C124.13 124.471 124.402 124.665 124.624 124.914C124.847 125.162 125.014 125.46 125.114 125.785V138.386C125.048 138.724 124.904 139.04 124.694 139.306C124.484 139.572 124.215 139.78 123.91 139.91H119.835C119.499 139.836 119.198 139.645 118.979 139.368C118.76 139.091 118.636 138.745 118.627 138.386V134.81C118.645 134.682 118.634 134.552 118.595 134.43C118.556 134.308 118.491 134.197 118.404 134.106C118.317 134.015 118.212 133.947 118.095 133.906C117.979 133.866 117.855 133.854 117.734 133.873H109.793C109.2 133.873 108.9 134.212 108.9 134.895V138.386C108.891 138.748 108.764 139.097 108.541 139.374C108.318 139.651 108.012 139.84 107.673 139.91H103.621C103.317 139.775 103.048 139.566 102.835 139.301C102.621 139.037 102.471 138.723 102.395 138.386V125.785C102.496 125.457 102.666 125.158 102.892 124.908C103.119 124.659 103.396 124.467 103.703 124.345H107.675C108.007 124.461 108.3 124.675 108.517 124.962C108.735 125.249 108.869 125.596 108.902 125.961L108.9 129.011Z" fill="white"/>
<path d="M135.054 125.961V138.386C135.042 138.748 134.876 139.097 134.584 139.374C134.292 139.651 133.892 139.84 133.448 139.91H128.14C127.743 139.774 127.391 139.565 127.112 139.3C126.833 139.036 126.636 138.722 126.534 138.386V125.785C126.668 125.457 126.891 125.158 127.188 124.909C127.484 124.66 127.846 124.468 128.248 124.345H133.448C133.883 124.46 134.267 124.674 134.552 124.961C134.837 125.248 135.012 125.596 135.054 125.961V125.961Z" fill="white"/>
<path d="M137.894 137.058V125.505C137.894 124.806 138.341 124.421 139.232 124.349H142.212C142.825 124.349 143.182 124.74 143.294 125.524V133.959C143.273 134.392 143.317 134.826 143.425 135.245C143.429 135.271 143.442 135.295 143.461 135.312C143.481 135.328 143.506 135.337 143.532 135.335C143.644 135.335 143.873 135.101 144.214 134.636L154.907 124.345H161.394C161.823 124.345 162.033 124.46 162.033 124.695C161.982 124.989 161.838 125.257 161.624 125.459L154.694 132.214L161.624 138.8C161.835 138.996 161.978 139.256 162.033 139.542C162.033 139.771 161.823 139.895 161.394 139.909H154.907L150.91 136.052L149.292 137.142C147.366 138.987 145.481 139.91 143.636 139.91H141.299C139.027 139.912 137.892 138.961 137.894 137.058Z" fill="white"/>
<path d="M178.706 139.909H166.716C164.802 139.709 163.714 138.692 163.452 136.86V127.309C163.744 125.521 164.935 124.533 167.026 124.345H182.68C184.703 124.522 185.866 125.506 186.171 127.309V137.1C185.852 138.871 184.772 139.808 182.931 139.91L178.706 139.909ZM171.495 128.423C171.287 128.391 171.074 128.411 170.874 128.481C170.674 128.55 170.492 128.667 170.343 128.823C170.193 128.979 170.08 129.17 170.013 129.379C169.946 129.589 169.926 129.812 169.955 130.032V134.219C169.955 135.237 170.342 135.744 171.122 135.744H178.624C179.386 135.744 179.769 135.309 179.769 134.439V129.946C179.79 129.74 179.767 129.532 179.701 129.337C179.635 129.142 179.529 128.965 179.389 128.818C179.25 128.672 179.081 128.56 178.895 128.492C178.709 128.423 178.511 128.399 178.314 128.421L171.495 128.423Z" fill="white"/>
<path d="M192.275 133.868C191.514 133.811 191.076 133.467 190.967 132.845V127.747C191.313 125.612 192.56 124.478 194.708 124.345H210.751C211.402 124.345 211.731 124.625 211.731 125.195V127.265C211.731 127.919 211.402 128.243 210.751 128.243H198.118C197.407 128.243 197.056 128.573 197.056 129.228C197.048 129.366 197.067 129.505 197.113 129.636C197.158 129.766 197.229 129.885 197.321 129.985C197.413 130.085 197.523 130.164 197.645 130.217C197.768 130.27 197.899 130.296 198.031 130.293H210.669C210.804 130.279 210.941 130.295 211.07 130.341C211.199 130.386 211.317 130.459 211.418 130.556C211.518 130.652 211.597 130.77 211.651 130.901C211.705 131.032 211.732 131.173 211.731 131.316V136.677C211.412 138.713 210.171 139.788 208.008 139.903H189.905C189.798 139.918 189.69 139.91 189.586 139.879C189.482 139.849 189.386 139.796 189.302 139.725C189.218 139.654 189.149 139.566 189.1 139.465C189.05 139.365 189.02 139.255 189.012 139.143V136.916C189.009 136.782 189.033 136.649 189.081 136.525C189.129 136.401 189.201 136.288 189.293 136.195C189.384 136.101 189.493 136.028 189.612 135.98C189.732 135.932 189.859 135.911 189.987 135.917H204.686C205.361 135.917 205.703 135.626 205.703 135.043C205.712 134.747 205.611 134.459 205.421 134.24C205.231 134.021 204.968 133.887 204.686 133.868H192.275Z" fill="white"/>
</svg>
