<svg width="259" height="259" viewBox="0 0 259 259" fill="none" xmlns="http://www.w3.org/2000/svg">
<circle cx="129.141" cy="129.141" r="129.141" fill="#035171"/>
<circle cx="129.14" cy="129.141" r="114.303" stroke="white" stroke-width="1.5"/>
<path d="M156.484 112.975H150.279V109.639H166.385V112.975H160.178V129.086H156.484V112.975Z" fill="white"/>
<path d="M187.381 129.086H172.726V109.639H187.381V113.196H176.393V117.668H186.992V121.086H176.393V125.471H187.382L187.381 129.086Z" fill="white"/>
<path d="M207.853 109.613H211.543V129.085H209.247V129.113L198.958 115.973V129.084H195.269V109.637H198.259L207.854 121.695L207.853 109.613Z" fill="white"/>
<path d="M167.508 142.292C167.62 147.267 164.414 152.301 157.524 152.301H150.851V132.739H157.524C164.189 132.737 167.395 137.489 167.508 142.292ZM152.374 134.159V150.842H157.522C163.37 150.842 166.069 146.481 165.985 142.29C165.901 138.209 163.202 134.157 157.522 134.157L152.374 134.159Z" fill="white"/>
<path d="M171.278 152.297V132.735H172.771V152.297H171.278Z" fill="white"/>
<path d="M190.43 136.51C189 134.216 186.689 133.885 184.469 133.853C182.164 133.853 178.503 134.691 178.503 137.821C178.503 140.311 181.207 140.899 184.525 141.51C188.323 142.237 192.261 142.909 192.261 147.129C192.233 151.545 187.76 152.608 184.469 152.608C181.404 152.608 177.916 151.35 176.396 148.36L177.747 147.693C178.953 150.066 182.052 151.241 184.469 151.241C186.887 151.241 190.74 150.574 190.74 147.106C190.769 144.172 187.505 143.529 184.272 142.911C180.671 142.211 176.987 141.489 176.987 137.879C176.902 133.749 181.235 132.461 184.469 132.461C187.28 132.461 189.731 132.908 191.669 135.785L190.43 136.51Z" fill="white"/>
<path d="M211.729 149.583C209.82 151.471 207.242 152.528 204.556 152.521C197.92 152.521 194.46 147.909 194.431 142.625C194.375 137.403 197.806 132.512 204.556 132.512C207.241 132.505 209.819 133.56 211.729 135.445L210.692 136.34C209.883 135.542 208.925 134.912 207.872 134.485C206.819 134.057 205.693 133.842 204.556 133.85C198.82 133.85 195.863 137.874 195.891 142.569C195.947 147.154 198.877 151.121 204.556 151.121C206.856 151.125 209.066 150.234 210.72 148.636L211.729 149.583Z" fill="white"/>
<path d="M90.8684 129.356C91.2407 124.961 93.2031 120.838 96.4046 117.725C99.6062 114.612 103.838 112.713 108.343 112.367V102.394C101.122 102.75 94.2905 105.701 89.1657 110.679C84.041 115.657 80.9851 122.311 80.5869 129.357L90.8684 129.356Z" fill="white"/>
<path d="M111.316 112.367C115.821 112.714 120.053 114.613 123.255 117.726C126.456 120.839 128.419 124.961 128.791 129.357H139.072C138.674 122.311 135.618 115.657 130.494 110.679C125.369 105.701 118.538 102.75 111.316 102.394V112.367Z" fill="white"/>
<path d="M108.343 149.202C103.855 148.855 99.6372 146.961 96.4383 143.857C93.2394 140.753 91.2657 136.639 90.8672 132.246H80.5869C80.8607 137.218 82.4731 142.031 85.2603 146.195L82.7383 153.96L90.7601 152.328C95.6831 156.464 101.867 158.883 108.343 159.209V149.202Z" fill="white"/>
<path d="M128.789 132.246C128.391 136.639 126.417 140.752 123.219 143.855C120.021 146.959 115.804 148.852 111.316 149.2V159.209C118.52 158.852 125.336 155.904 130.458 150.928C135.579 145.953 138.647 139.3 139.072 132.246H128.789Z" fill="white"/>
<path d="M63.643 117.521V129.357H74.6386V102.394H63.643L49.8564 115.803L57.631 123.365L63.643 117.521Z" fill="white"/>
<path d="M74.6395 132.246H63.7354V158.246H74.6395V132.246Z" fill="white"/>
</svg>
