<svg width="78" height="79" viewBox="0 0 78 79" fill="none" xmlns="http://www.w3.org/2000/svg">
<g filter="url(#filter0_d)">
<circle cx="39" cy="36" r="35" fill="#3E3885"/>
</g>
<path d="M38.9994 70.03C57.6998 70.03 72.8494 54.8272 72.8494 36.0861C72.8494 17.3449 57.6998 2.14209 38.9994 2.14209C20.299 2.14209 5.14941 17.3449 5.14941 36.0861C5.14941 54.8272 20.299 70.03 38.9994 70.03Z" stroke="white" stroke-width="4"/>
<path d="M17.2756 29.781C18.5393 29.781 19.1757 30.8112 19.1757 31.8413C19.1757 32.8714 18.5393 33.8944 17.2756 33.8944H16.088C16.0324 33.8944 15.987 33.9422 15.987 34.0007V35.1466C15.987 35.6432 15.6047 36.0454 15.1328 36.0454V29.8872C15.1328 29.8288 15.1782 29.781 15.2338 29.781H17.2756ZM17.2756 33.0135C17.9869 33.0135 18.3386 32.4322 18.3386 31.8508C18.3386 31.2612 17.9869 30.6798 17.2756 30.6798H16.088C16.0324 30.6798 15.987 30.7276 15.987 30.7861V32.9073C15.987 32.9657 16.0324 33.0135 16.088 33.0135H17.2756Z" fill="#F5F5F5"/>
<path d="M20.9667 30.6944C21.5022 30.1215 22.2554 29.761 23.0755 29.761C23.9036 29.761 24.6489 30.1215 25.1934 30.6944C25.7209 31.2674 26.0635 32.0504 26.0635 32.923C26.0635 33.7955 25.7197 34.5786 25.1934 35.1515C24.6489 35.7328 23.9048 36.0849 23.0755 36.0849C22.2554 36.0849 21.5022 35.7328 20.9667 35.1515C20.4393 34.5786 20.0967 33.7955 20.0967 32.923C20.0967 32.0504 20.4393 31.2674 20.9667 30.6944ZM24.5911 31.3282C24.1974 30.9141 23.6541 30.6586 23.0767 30.6586C22.4993 30.6586 21.9639 30.9141 21.5782 31.3282C21.1936 31.7329 20.9509 32.2975 20.9509 32.9218C20.9509 33.5472 21.1936 34.1107 21.5782 34.5153C21.9627 34.9295 22.4993 35.1849 23.0767 35.1849C23.6541 35.1849 24.1986 34.9295 24.5911 34.5153C24.9677 34.1107 25.2104 33.5556 25.2104 32.9218C25.2104 32.2879 24.9677 31.7341 24.5911 31.3282Z" fill="#F5F5F5"/>
<path d="M29.0008 36.0443V30.8576C29.0008 30.7992 28.9554 30.7514 28.8998 30.7514H27.6906C27.2187 30.7514 26.8364 30.3491 26.8364 29.8525H32.0591C32.0591 30.3491 31.6768 30.7514 31.2049 30.7514H30.0036C29.948 30.7514 29.9026 30.7992 29.9026 30.8576V35.0941C29.9026 35.6194 29.4988 36.0443 29.0008 36.0443Z" fill="#F5F5F5"/>
<path d="M34.036 35.0789H35.8102C36.2776 35.0789 36.6553 35.4776 36.6553 35.9682H33.183C33.1274 35.9682 33.082 35.9204 33.082 35.8619V29.9185C33.082 29.86 33.1274 29.8123 33.183 29.8123H36.6474C36.6474 30.3041 36.2685 30.7016 35.8023 30.7016H34.0372C33.9816 30.7016 33.9362 30.7493 33.9362 30.8078V32.331C33.9362 32.3895 33.9816 32.4372 34.0372 32.4372H36.0847C36.0847 32.9338 35.7024 33.3361 35.2305 33.3361H34.036C33.9805 33.3361 33.9351 33.3838 33.9351 33.4423V34.9738C33.9351 35.0311 33.9805 35.0789 34.036 35.0789Z" fill="#F5F5F5"/>
<path d="M37.6797 35.8715V29.9114C37.6797 29.8518 37.7262 29.804 37.7818 29.8052L38.2809 29.8124C38.3138 29.8124 38.3444 29.8303 38.3626 29.8577L41.0034 33.8745C41.0601 33.9604 41.1872 33.9186 41.1872 33.8136V29.9186C41.1872 29.8601 41.2326 29.8124 41.2881 29.8124H41.9234C41.979 29.8124 42.0244 29.8601 42.0244 29.9186V35.8715C42.0244 35.93 41.979 35.9777 41.9234 35.9777H41.4073C41.3744 35.9777 41.3426 35.961 41.3244 35.9324L38.7097 31.9502C38.653 31.8643 38.5259 31.9061 38.5259 32.0111V35.8715C38.5259 35.93 38.4806 35.9777 38.425 35.9777H37.7818C37.7251 35.9765 37.6797 35.93 37.6797 35.8715Z" fill="#F5F5F5"/>
<path d="M43.8696 30.7109C44.38 30.1559 45.1004 29.7954 45.8944 29.7954C47.1899 29.7954 48.2187 30.619 48.5874 31.9321C48.6067 32.0001 48.5579 32.0681 48.4899 32.0681H47.8557C47.8138 32.0681 47.7763 32.0419 47.7616 32.0013C47.4406 31.1216 46.735 30.6775 45.8933 30.6775C45.3329 30.6775 44.8224 30.933 44.4538 31.3376C44.0851 31.7423 43.8514 32.289 43.8514 32.9228C43.8514 33.5387 44.0862 34.0854 44.4538 34.4901C44.8224 34.8947 45.3329 35.1502 45.8933 35.1502C46.7588 35.1502 47.4962 34.6393 47.8115 33.7476C47.8263 33.7058 47.8637 33.6796 47.9057 33.6796H48.5307C48.5976 33.6796 48.6464 33.7476 48.6283 33.8145C48.2585 35.1406 47.2126 36.0299 45.8933 36.0299C45.0981 36.0299 44.3789 35.6778 43.8684 35.1144C43.3659 34.551 43.0312 33.7763 43.0312 32.9216C43.0335 32.049 43.3682 31.2744 43.8696 30.7109Z" fill="#F5F5F5"/>
<path d="M50.4047 29.8477V35.8797C50.4047 35.9382 50.3593 35.9859 50.3037 35.9859H49.6605C49.6049 35.9859 49.5596 35.9382 49.5596 35.8797V29.8477C49.5596 29.7892 49.6049 29.7415 49.6605 29.7415H50.3037C50.3604 29.7415 50.4047 29.7892 50.4047 29.8477Z" fill="#F5F5F5"/>
<path d="M60.032 35.0969H61.5872C62.0546 35.0969 62.4323 35.4956 62.4323 35.9862H59.1869C59.1313 35.9862 59.0859 35.9384 59.0859 35.8799V29.9363C59.0859 29.8778 59.1313 29.8301 59.1869 29.8301H59.8301C59.8857 29.8301 59.931 29.8778 59.931 29.9363V34.9906C59.9322 35.0491 59.9764 35.0969 60.032 35.0969Z" fill="#F5F5F5"/>
<path d="M14.6712 38.6817C15.1816 38.1266 15.902 37.7661 16.696 37.7661C17.9915 37.7661 19.0204 38.5898 19.389 39.9029C19.4083 39.9709 19.3595 40.039 19.2915 40.039H18.6574C18.6154 40.039 18.578 40.0127 18.5632 39.9721C18.2422 39.0923 17.5366 38.6483 16.6949 38.6483C16.1345 38.6483 15.624 38.9037 15.2554 39.3084C14.8867 39.7131 14.653 40.2598 14.653 40.8937C14.653 41.5097 14.8878 42.0564 15.2554 42.4611C15.624 42.8657 16.1345 43.1212 16.6949 43.1212C17.5604 43.1212 18.2978 42.6103 18.6131 41.7186C18.6279 41.6768 18.6653 41.6505 18.7073 41.6505H19.3323C19.3993 41.6505 19.448 41.7186 19.4299 41.7854C19.0601 43.1116 18.0142 44.001 16.6949 44.001C15.8997 44.001 15.1805 43.6488 14.67 43.0854C14.1686 42.5219 13.834 41.7472 13.834 40.8925C13.834 40.0199 14.1686 39.2451 14.6712 38.6817Z" fill="#F5F5F5"/>
<path d="M20.9667 38.6468C21.5022 38.0739 22.2554 37.7134 23.0755 37.7134C23.9036 37.7134 24.6489 38.0739 25.1934 38.6468C25.7209 39.2198 26.0635 40.0029 26.0635 40.8755C26.0635 41.7468 25.7197 42.5311 25.1934 43.1041C24.6489 43.6854 23.9048 44.0375 23.0755 44.0375C22.2554 44.0375 21.5022 43.6854 20.9667 43.1041C20.4393 42.5311 20.0967 41.748 20.0967 40.8755C20.0967 40.0029 20.4393 39.2186 20.9667 38.6468ZM24.5911 39.2807C24.1974 38.8665 23.6541 38.611 23.0767 38.611C22.4993 38.611 21.9639 38.8665 21.5782 39.2807C21.1936 39.6853 20.9509 40.25 20.9509 40.8743C20.9509 41.4998 21.1936 42.0632 21.5782 42.4678C21.9627 42.882 22.4993 43.1375 23.0767 43.1375C23.6541 43.1375 24.1986 42.882 24.5911 42.4678C24.9677 42.0632 25.2104 41.5081 25.2104 40.8743C25.2104 40.2404 24.9677 39.6853 24.5911 39.2807Z" fill="#F5F5F5"/>
<path d="M27.5806 44.089H26.9374C26.8818 44.089 26.8364 44.0412 26.8364 43.9827V38.031C26.8364 37.9726 26.8818 37.9248 26.9374 37.9248H27.4694C27.5023 37.9248 27.5341 37.9427 27.5533 37.9714L29.3729 40.7896C29.4126 40.8517 29.4999 40.8517 29.5396 40.7896L31.3592 37.9714C31.3785 37.9427 31.4091 37.9248 31.4431 37.9248H31.9581C32.0137 37.9248 32.0591 37.9726 32.0591 38.031V43.9839C32.0591 44.0424 32.0137 44.0902 31.9581 44.0902H31.3229C31.2673 44.0902 31.2219 44.0424 31.2219 43.9839V40.0961C31.2219 39.9911 31.0926 39.9505 31.037 40.0364L29.72 42.0967C29.7007 42.1266 29.6701 42.1433 29.6361 42.1433H29.2663C29.2322 42.1433 29.2016 42.1254 29.1823 42.0967L27.8653 40.0364C27.8097 39.9493 27.6804 39.9911 27.6804 40.0961V43.9839C27.6815 44.0424 27.6362 44.089 27.5806 44.089Z" fill="#F5F5F5"/>
<path d="M33.9351 43.1414H35.8102C36.2776 43.1414 36.6553 43.5401 36.6553 44.0307H33.082V37.8748H36.6474C36.6474 38.3666 36.2685 38.7641 35.8023 38.7641H33.9351V40.4985H36.0836C36.0836 40.9951 35.7013 41.3974 35.2294 41.3974H33.9351V43.1414Z" fill="#F5F5F5"/>
<path d="M39.0682 41.0189C39.0682 40.9604 39.1158 40.9126 39.1737 40.9126H40.1038C40.8502 40.9126 41.2178 40.3755 41.2178 39.8383C41.2178 39.3095 40.8491 38.7724 40.1038 38.7724H38.8492C38.7914 38.7724 38.7437 38.8201 38.7437 38.8786V43.1579C38.7437 43.6437 38.3512 44.0388 37.8657 44.0388V37.981C37.8657 37.9225 37.9134 37.8748 37.9712 37.8748H40.1027C41.4367 37.8748 42.1037 38.8607 42.1037 39.8383C42.1037 40.6631 41.625 41.4474 40.6824 41.6873C40.6075 41.7064 40.5791 41.7983 40.6279 41.858L42.3805 43.9517C42.4089 43.9863 42.385 44.0388 42.3397 44.0388C41.6829 44.0388 41.0612 43.7452 40.6415 43.2391L39.0908 41.365C39.075 41.3459 39.0659 41.322 39.0659 41.297V41.0189H39.0682Z" fill="#F5F5F5"/>
<path d="M43.8696 38.7722C44.38 38.2172 45.1004 37.8567 45.8944 37.8567C47.1899 37.8567 48.2187 38.6803 48.5874 39.9933C48.6067 40.0613 48.5579 40.1294 48.4899 40.1294H47.8557C47.8138 40.1294 47.7763 40.1031 47.7616 40.0625C47.4406 39.1828 46.735 38.7388 45.8933 38.7388C45.3329 38.7388 44.8224 38.9942 44.4538 39.3989C44.0851 39.8035 43.8514 40.3502 43.8514 40.984C43.8514 41.5999 44.0862 42.1466 44.4538 42.5512C44.8224 42.9559 45.3329 43.2113 45.8933 43.2113C46.7588 43.2113 47.4962 42.7004 47.8115 41.8088C47.8263 41.767 47.8637 41.7407 47.9057 41.7407H48.5307C48.5976 41.7407 48.6464 41.8088 48.6283 41.8756C48.2585 43.2017 47.2126 44.091 45.8933 44.091C45.0981 44.091 44.3789 43.7389 43.8684 43.1755C43.3659 42.6121 43.0312 41.8374 43.0312 40.9828C43.0335 40.1114 43.3682 39.3368 43.8696 38.7722Z" fill="#F5F5F5"/>
<path d="M50.4022 37.9986V43.942C50.4022 44.0005 50.3569 44.0483 50.3013 44.0483H49.6581C49.6025 44.0483 49.5571 44.0005 49.5571 43.942V37.9986C49.5571 37.9401 49.6025 37.8923 49.6581 37.8923H50.3013C50.3569 37.8923 50.4022 37.9389 50.4022 37.9986Z" fill="#F5F5F5"/>
<path d="M60.032 43.159H61.5872C62.0546 43.159 62.4323 43.5576 62.4323 44.0483H59.1869C59.1313 44.0483 59.0859 44.0005 59.0859 43.942V37.9986C59.0859 37.9401 59.1313 37.8923 59.1869 37.8923H59.8301C59.8857 37.8923 59.931 37.9401 59.931 37.9986V43.0527C59.9322 43.1112 59.9764 43.159 60.032 43.159Z" fill="#F5F5F5"/>
<path d="M56.4793 43.4697L54.7562 39.4873C54.7029 39.3631 54.535 39.3631 54.4805 39.4873L52.7574 43.4697C52.5317 43.9926 51.9214 44.2349 51.395 44.0093L54.4805 36.8753C54.5338 36.7512 54.7017 36.7512 54.7562 36.8753L57.8417 44.0093C57.3153 44.2349 56.705 43.9926 56.4793 43.4697Z" fill="#F5F5F5"/>
<path d="M56.4793 35.2929L54.7562 31.3107C54.7029 31.1865 54.535 31.1865 54.4805 31.3107L52.7574 35.2929C52.5317 35.8157 51.9214 36.058 51.395 35.8324L54.4805 28.6988C54.5338 28.5747 54.7017 28.5747 54.7562 28.6988L57.8417 35.8324C57.3153 36.058 56.705 35.8169 56.4793 35.2929Z" fill="#F5F5F5"/>
<defs>
<filter id="filter0_d" x="0" y="1" width="78" height="78" filterUnits="userSpaceOnUse" color-interpolation-filters="sRGB">
<feFlood flood-opacity="0" result="BackgroundImageFix"/>
<feColorMatrix in="SourceAlpha" type="matrix" values="0 0 0 0 0 0 0 0 0 0 0 0 0 0 0 0 0 0 127 0" result="hardAlpha"/>
<feOffset dy="4"/>
<feGaussianBlur stdDeviation="2"/>
<feColorMatrix type="matrix" values="0 0 0 0 0.164706 0 0 0 0 0.164706 0 0 0 0 0.501961 0 0 0 1 0"/>
<feBlend mode="normal" in2="BackgroundImageFix" result="effect1_dropShadow"/>
<feBlend mode="normal" in="SourceGraphic" in2="effect1_dropShadow" result="shape"/>
</filter>
</defs>
</svg>
