<svg width="230" height="100" viewBox="0 0 230 100" fill="none" xmlns="http://www.w3.org/2000/svg">
<path d="M112.986 66.8602C113.164 66.8602 113.32 66.8374 113.454 66.7919C113.59 66.7464 113.703 66.6827 113.792 66.6008C113.883 66.5166 113.951 66.4154 113.997 66.2971C114.042 66.1788 114.065 66.0468 114.065 65.9012C114.065 65.7579 114.042 65.6293 113.997 65.5156C113.953 65.4018 113.887 65.3051 113.799 65.2255C113.71 65.1459 113.597 65.0856 113.461 65.0446C113.327 65.0014 113.168 64.9798 112.986 64.9798H112.256V66.8602H112.986ZM112.986 64.3553C113.307 64.3553 113.585 64.3928 113.819 64.4679C114.056 64.543 114.25 64.6487 114.403 64.7853C114.557 64.9195 114.672 65.0822 114.747 65.2733C114.822 65.4621 114.86 65.6714 114.86 65.9012C114.86 66.1355 114.82 66.3505 114.741 66.5462C114.661 66.7396 114.543 66.9068 114.386 67.0479C114.229 67.1867 114.033 67.2959 113.799 67.3755C113.567 67.4529 113.296 67.4915 112.986 67.4915H112.256V69.2695H111.458V64.3553H112.986Z" fill="#0A0A21"/>
<path d="M119.533 66.4199C119.515 66.4518 119.494 66.4745 119.471 66.4882C119.449 66.5018 119.42 66.5087 119.386 66.5087C119.347 66.5087 119.305 66.4973 119.26 66.4745C119.214 66.4495 119.161 66.4222 119.099 66.3926C119.038 66.3631 118.965 66.3369 118.881 66.3141C118.799 66.2891 118.702 66.2766 118.591 66.2766C118.5 66.2766 118.417 66.288 118.342 66.3107C118.269 66.3312 118.206 66.3619 118.154 66.4029C118.104 66.4416 118.065 66.4882 118.038 66.5428C118.011 66.5951 117.997 66.652 117.997 66.7134C117.997 66.7953 118.022 66.8636 118.072 66.9182C118.122 66.9728 118.188 67.0206 118.27 67.0615C118.352 67.1002 118.445 67.1355 118.55 67.1673C118.655 67.1992 118.762 67.2333 118.871 67.2697C118.98 67.3061 119.087 67.3482 119.192 67.396C119.296 67.4438 119.39 67.5029 119.471 67.5734C119.553 67.6417 119.619 67.7259 119.669 67.826C119.719 67.9238 119.744 68.0432 119.744 68.1843C119.744 68.3481 119.715 68.4994 119.656 68.6382C119.597 68.777 119.51 68.8976 119.396 68.9999C119.283 69.1023 119.14 69.182 118.97 69.2388C118.801 69.2957 118.608 69.3241 118.39 69.3241C118.269 69.3241 118.152 69.3128 118.038 69.29C117.927 69.2695 117.82 69.2411 117.717 69.2047C117.617 69.166 117.523 69.1205 117.434 69.0682C117.348 69.0159 117.27 68.959 117.202 68.8976L117.373 68.6177C117.393 68.5836 117.418 68.5574 117.448 68.5392C117.48 68.5188 117.518 68.5085 117.564 68.5085C117.612 68.5085 117.658 68.5244 117.704 68.5563C117.751 68.5859 117.806 68.6189 117.867 68.6553C117.931 68.6917 118.007 68.7258 118.096 68.7576C118.185 68.7872 118.295 68.802 118.427 68.802C118.536 68.802 118.631 68.7895 118.71 68.7645C118.79 68.7372 118.856 68.7008 118.908 68.6553C118.961 68.6098 118.999 68.5586 119.024 68.5017C119.049 68.4425 119.062 68.38 119.062 68.314C119.062 68.2253 119.037 68.1525 118.987 68.0956C118.937 68.0387 118.87 67.9898 118.785 67.9488C118.704 67.9079 118.609 67.8715 118.502 67.8396C118.398 67.8078 118.291 67.7736 118.181 67.7372C118.072 67.7008 117.964 67.6588 117.857 67.611C117.753 67.5632 117.658 67.5029 117.574 67.4301C117.492 67.355 117.426 67.2652 117.376 67.1605C117.326 67.0536 117.301 66.9239 117.301 66.7714C117.301 66.6327 117.328 66.5007 117.383 66.3756C117.44 66.2504 117.522 66.1401 117.629 66.0445C117.738 65.949 117.871 65.8739 118.028 65.8193C118.187 65.7624 118.37 65.734 118.577 65.734C118.812 65.734 119.024 65.7715 119.215 65.8466C119.407 65.9217 119.567 66.0241 119.697 66.1538L119.533 66.4199Z" fill="#0A0A21"/>
<path d="M123.246 65.7886V69.2695H122.512V65.7886H123.246ZM123.369 64.7375C123.369 64.8035 123.355 64.866 123.328 64.9252C123.303 64.9843 123.268 65.0367 123.222 65.0822C123.177 65.1254 123.123 65.1607 123.062 65.188C123.003 65.213 122.939 65.2255 122.871 65.2255C122.805 65.2255 122.742 65.213 122.683 65.188C122.626 65.1607 122.576 65.1254 122.533 65.0822C122.49 65.0367 122.454 64.9843 122.427 64.9252C122.402 64.866 122.389 64.8035 122.389 64.7375C122.389 64.6692 122.402 64.6055 122.427 64.5464C122.454 64.4872 122.49 64.436 122.533 64.3928C122.576 64.3473 122.626 64.312 122.683 64.287C122.742 64.2597 122.805 64.2461 122.871 64.2461C122.939 64.2461 123.003 64.2597 123.062 64.287C123.123 64.312 123.177 64.3473 123.222 64.3928C123.268 64.436 123.303 64.4872 123.328 64.5464C123.355 64.6055 123.369 64.6692 123.369 64.7375Z" fill="#0A0A21"/>
<path d="M128.676 66.4711C128.653 66.5007 128.632 66.5235 128.611 66.5394C128.591 66.5553 128.561 66.5633 128.523 66.5633C128.484 66.5633 128.443 66.5496 128.4 66.5223C128.359 66.495 128.309 66.4654 128.25 66.4336C128.193 66.3995 128.123 66.3688 128.041 66.3414C127.959 66.3141 127.857 66.3005 127.734 66.3005C127.575 66.3005 127.435 66.3289 127.314 66.3858C127.196 66.4427 127.096 66.5246 127.014 66.6315C126.935 66.7362 126.874 66.8647 126.833 67.0172C126.795 67.1673 126.775 67.3368 126.775 67.5257C126.775 67.7213 126.797 67.8954 126.84 68.0478C126.883 68.2002 126.945 68.3288 127.024 68.4334C127.106 68.5381 127.204 68.6177 127.318 68.6723C127.434 68.7269 127.564 68.7542 127.707 68.7542C127.848 68.7542 127.963 68.7372 128.052 68.703C128.14 68.6689 128.214 68.6314 128.273 68.5904C128.333 68.5495 128.383 68.5119 128.424 68.4778C128.467 68.4437 128.512 68.4266 128.56 68.4266C128.619 68.4266 128.665 68.4494 128.697 68.4949L128.905 68.7645C128.821 68.8668 128.727 68.9533 128.625 69.0238C128.523 69.0944 128.414 69.1524 128.301 69.1979C128.187 69.2411 128.069 69.2718 127.946 69.29C127.823 69.3105 127.699 69.3207 127.574 69.3207C127.358 69.3207 127.155 69.2809 126.966 69.2013C126.78 69.1194 126.616 69.0022 126.475 68.8498C126.336 68.6951 126.226 68.5074 126.144 68.2867C126.064 68.0637 126.024 67.81 126.024 67.5257C126.024 67.2686 126.061 67.0308 126.134 66.8124C126.206 66.5917 126.312 66.4017 126.451 66.2425C126.592 66.0832 126.766 65.9592 126.973 65.8705C127.18 65.7795 127.419 65.734 127.69 65.734C127.942 65.734 128.164 65.7749 128.355 65.8568C128.549 65.9388 128.72 66.0548 128.871 66.2049L128.676 66.4711Z" fill="#0A0A21"/>
<path d="M132.988 65.734C133.245 65.734 133.477 65.7761 133.684 65.8603C133.893 65.9444 134.071 66.0639 134.216 66.2186C134.364 66.3733 134.478 66.561 134.557 66.7817C134.637 67.0024 134.677 67.2504 134.677 67.5257C134.677 67.8009 134.637 68.0489 134.557 68.2696C134.478 68.4903 134.364 68.6791 134.216 68.8361C134.071 68.9908 133.893 69.1103 133.684 69.1945C133.477 69.2786 133.245 69.3207 132.988 69.3207C132.728 69.3207 132.494 69.2786 132.285 69.1945C132.078 69.1103 131.9 68.9908 131.752 68.8361C131.604 68.6791 131.491 68.4903 131.411 68.2696C131.331 68.0489 131.291 67.8009 131.291 67.5257C131.291 67.2504 131.331 67.0024 131.411 66.7817C131.491 66.561 131.604 66.3733 131.752 66.2186C131.9 66.0639 132.078 65.9444 132.285 65.8603C132.494 65.7761 132.728 65.734 132.988 65.734ZM132.988 68.7474C133.302 68.7474 133.535 68.6427 133.687 68.4334C133.842 68.2218 133.919 67.9204 133.919 67.5291C133.919 67.1377 133.842 66.8363 133.687 66.6247C133.535 66.4108 133.302 66.3039 132.988 66.3039C132.669 66.3039 132.432 66.4108 132.278 66.6247C132.123 66.8363 132.046 67.1377 132.046 67.5291C132.046 67.9204 132.123 68.2218 132.278 68.4334C132.432 68.6427 132.669 68.7474 132.988 68.7474Z" fill="#0A0A21"/>
<path d="M140.073 67.4267L139.397 65.6316C139.343 65.4928 139.287 65.3165 139.23 65.1026C139.205 65.2096 139.178 65.3085 139.148 65.3995C139.119 65.4883 139.091 65.5668 139.066 65.635L138.391 67.4267H140.073ZM141.585 69.2695H140.967C140.897 69.2695 140.84 69.2525 140.797 69.2184C140.753 69.182 140.72 69.1376 140.698 69.0853L140.288 68H138.172L137.763 69.0853C137.745 69.1308 137.713 69.1729 137.667 69.2115C137.622 69.2502 137.565 69.2695 137.497 69.2695H136.879L138.828 64.3553H139.636L141.585 69.2695Z" fill="#0A0A21"/>
<path d="M144.804 64.2188V69.2695H144.07V64.2188H144.804Z" fill="#0A0A21"/>
<path d="M148.521 65.7886V69.2695H147.788V65.7886H148.521ZM148.644 64.7375C148.644 64.8035 148.631 64.866 148.603 64.9252C148.578 64.9843 148.543 65.0367 148.497 65.0822C148.452 65.1254 148.398 65.1607 148.337 65.188C148.278 65.213 148.214 65.2255 148.146 65.2255C148.08 65.2255 148.017 65.213 147.958 65.188C147.901 65.1607 147.851 65.1254 147.808 65.0822C147.765 65.0367 147.73 64.9843 147.702 64.9252C147.677 64.866 147.665 64.8035 147.665 64.7375C147.665 64.6692 147.677 64.6055 147.702 64.5464C147.73 64.4872 147.765 64.436 147.808 64.3928C147.851 64.3473 147.901 64.312 147.958 64.287C148.017 64.2597 148.08 64.2461 148.146 64.2461C148.214 64.2461 148.278 64.2597 148.337 64.287C148.398 64.312 148.452 64.3473 148.497 64.3928C148.543 64.436 148.578 64.4872 148.603 64.5464C148.631 64.6055 148.644 64.6692 148.644 64.7375Z" fill="#0A0A21"/>
<path d="M153.351 67.7475C153.089 67.7566 152.868 67.7782 152.689 67.8123C152.509 67.8442 152.363 67.8863 152.252 67.9386C152.14 67.9886 152.06 68.0489 152.01 68.1195C151.962 68.19 151.938 68.2673 151.938 68.3515C151.938 68.4334 151.95 68.504 151.975 68.5631C152.003 68.62 152.039 68.6678 152.085 68.7064C152.132 68.7429 152.187 68.7702 152.248 68.7884C152.312 68.8043 152.382 68.8122 152.457 68.8122C152.648 68.8122 152.812 68.777 152.948 68.7064C153.087 68.6336 153.221 68.529 153.351 68.3925V67.7475ZM151.406 66.2732C151.799 65.9069 152.268 65.7238 152.812 65.7238C153.012 65.7238 153.189 65.7567 153.344 65.8227C153.501 65.8864 153.632 65.9774 153.736 66.0957C153.843 66.214 153.924 66.3551 153.979 66.5189C154.036 66.6804 154.064 66.8602 154.064 67.0581V69.2695H153.736C153.666 69.2695 153.612 69.2593 153.576 69.2388C153.54 69.2161 153.509 69.1717 153.484 69.1057L153.412 68.8225C153.323 68.9021 153.236 68.9738 153.149 69.0375C153.063 69.0989 152.973 69.1512 152.88 69.1945C152.789 69.2377 152.69 69.2695 152.583 69.29C152.478 69.3128 152.362 69.3241 152.235 69.3241C152.094 69.3241 151.962 69.3048 151.839 69.2661C151.718 69.2275 151.614 69.1694 151.525 69.0921C151.436 69.0125 151.366 68.9146 151.313 68.7986C151.263 68.6826 151.238 68.5461 151.238 68.3891C151.238 68.2548 151.274 68.124 151.344 67.9966C151.417 67.8692 151.535 67.7554 151.699 67.6553C151.865 67.553 152.082 67.4688 152.351 67.4028C152.622 67.3368 152.955 67.2993 153.351 67.2902V67.0581C153.351 66.8079 153.297 66.6213 153.19 66.4984C153.083 66.3756 152.926 66.3141 152.719 66.3141C152.578 66.3141 152.46 66.3323 152.365 66.3688C152.269 66.4029 152.186 66.4404 152.115 66.4814C152.045 66.5223 151.982 66.561 151.928 66.5974C151.873 66.6315 151.815 66.6486 151.754 66.6486C151.704 66.6486 151.66 66.6361 151.624 66.6111C151.59 66.5838 151.561 66.5508 151.539 66.5121L151.406 66.2732Z" fill="#0A0A21"/>
<path d="M157.657 66.2493C157.732 66.172 157.81 66.1026 157.889 66.0411C157.971 65.9774 158.058 65.9228 158.149 65.8773C158.24 65.8318 158.336 65.7966 158.439 65.7715C158.541 65.7465 158.653 65.734 158.773 65.734C158.964 65.734 159.131 65.7658 159.275 65.8295C159.42 65.8932 159.542 65.9831 159.64 66.0991C159.74 66.2152 159.815 66.3551 159.865 66.5189C159.915 66.6804 159.94 66.859 159.94 67.0547V69.2695H159.21V67.0547C159.21 66.8204 159.155 66.6384 159.046 66.5087C158.939 66.379 158.775 66.3141 158.555 66.3141C158.391 66.3141 158.238 66.3517 158.097 66.4268C157.959 66.5018 157.828 66.6042 157.705 66.7339V69.2695H156.971V65.7886H157.415C157.515 65.7886 157.579 65.8352 157.606 65.9285L157.657 66.2493Z" fill="#0A0A21"/>
<path d="M165.298 66.0957C165.298 66.1481 165.289 66.1993 165.271 66.2493C165.255 66.2994 165.231 66.3414 165.2 66.3756L163.435 68.6996H165.24V69.2695H162.585V68.9624C162.585 68.9283 162.593 68.8873 162.609 68.8395C162.625 68.7918 162.649 68.7463 162.681 68.703L164.459 66.3585H162.688V65.7886H165.298V66.0957Z" fill="#0A0A21"/>
<path d="M169.865 67.7475C169.603 67.7566 169.383 67.7782 169.203 67.8123C169.023 67.8442 168.878 67.8863 168.766 67.9386C168.655 67.9886 168.574 68.0489 168.524 68.1195C168.476 68.19 168.452 68.2673 168.452 68.3515C168.452 68.4334 168.465 68.504 168.49 68.5631C168.517 68.62 168.553 68.6678 168.599 68.7064C168.647 68.7429 168.701 68.7702 168.763 68.7884C168.826 68.8043 168.896 68.8122 168.971 68.8122C169.162 68.8122 169.326 68.777 169.462 68.7064C169.601 68.6336 169.735 68.529 169.865 68.3925V67.7475ZM167.92 66.2732C168.313 65.9069 168.782 65.7238 169.326 65.7238C169.526 65.7238 169.704 65.7567 169.858 65.8227C170.015 65.8864 170.146 65.9774 170.251 66.0957C170.358 66.214 170.438 66.3551 170.493 66.5189C170.55 66.6804 170.578 66.8602 170.578 67.0581V69.2695H170.251C170.18 69.2695 170.127 69.2593 170.09 69.2388C170.054 69.2161 170.023 69.1717 169.998 69.1057L169.926 68.8225C169.838 68.9021 169.75 68.9738 169.664 69.0375C169.577 69.0989 169.487 69.1512 169.394 69.1945C169.303 69.2377 169.204 69.2695 169.097 69.29C168.993 69.3128 168.877 69.3241 168.749 69.3241C168.608 69.3241 168.476 69.3048 168.353 69.2661C168.233 69.2275 168.128 69.1694 168.039 69.0921C167.951 69.0125 167.88 68.9146 167.828 68.7986C167.778 68.6826 167.753 68.5461 167.753 68.3891C167.753 68.2548 167.788 68.124 167.858 67.9966C167.931 67.8692 168.05 67.7554 168.213 67.6553C168.379 67.553 168.597 67.4688 168.865 67.4028C169.136 67.3368 169.469 67.2993 169.865 67.2902V67.0581C169.865 66.8079 169.812 66.6213 169.705 66.4984C169.598 66.3756 169.441 66.3141 169.234 66.3141C169.093 66.3141 168.974 66.3323 168.879 66.3688C168.783 66.4029 168.7 66.4404 168.63 66.4814C168.559 66.5223 168.497 66.561 168.442 66.5974C168.387 66.6315 168.329 66.6486 168.268 66.6486C168.218 66.6486 168.175 66.6361 168.138 66.6111C168.104 66.5838 168.076 66.5508 168.053 66.5121L167.92 66.2732Z" fill="#0A0A21"/>
<path d="M75.8872 39.6604H79.3092C79.6749 39.6604 79.9666 39.7475 80.1843 39.9216C80.402 40.0958 80.537 40.3178 80.5892 40.5877L82.5745 51.0758C82.6529 51.5025 82.7443 51.9857 82.8488 52.5256C82.962 53.0567 83.0534 53.5966 83.1231 54.1452C83.3059 53.5966 83.5149 53.0611 83.75 52.5387C83.9851 52.0075 84.1941 51.5199 84.3769 51.0758L88.8177 40.5877C88.87 40.4745 88.944 40.3613 89.0398 40.2481C89.1355 40.1349 89.2487 40.0348 89.3793 39.9477C89.5187 39.8607 89.6667 39.791 89.8234 39.7387C89.9889 39.6865 90.1587 39.6604 90.3328 39.6604H93.7809L84.4292 58.6904H80.5631L75.8872 39.6604Z" fill="url(#paint0_linear_1502_7272)"/>
<path d="M97.8242 55.8954C98.277 55.8954 98.6819 55.7604 99.0389 55.4905C99.3959 55.2118 99.6963 54.8374 99.9401 54.3672C100.193 53.8883 100.384 53.3354 100.515 52.7084C100.654 52.0728 100.724 51.398 100.724 50.684C100.724 49.7 100.589 48.9991 100.319 48.5811C100.058 48.1545 99.6266 47.9411 99.0258 47.9411C98.573 47.9411 98.1681 48.0805 97.8111 48.3591C97.4541 48.629 97.1494 48.9991 96.8968 49.4693C96.653 49.9395 96.4615 50.4924 96.3222 51.128C96.1915 51.7637 96.1262 52.4385 96.1262 53.1525C96.1262 54.119 96.2568 54.82 96.5181 55.2554C96.788 55.682 97.2234 55.8954 97.8242 55.8954ZM97.4585 58.8994C96.7009 58.8994 95.9913 58.7732 95.3295 58.5206C94.6764 58.2681 94.1061 57.9024 93.6185 57.4235C93.1396 56.9359 92.7608 56.3394 92.4822 55.6341C92.2123 54.9201 92.0773 54.1016 92.0773 53.1786C92.0773 51.977 92.2732 50.8755 92.665 49.8742C93.0656 48.8641 93.6011 47.9934 94.2716 47.262C94.942 46.5305 95.717 45.9602 96.5964 45.5509C97.4846 45.1417 98.4163 44.9371 99.3915 44.9371C100.149 44.9371 100.854 45.0633 101.507 45.3158C102.16 45.5684 102.726 45.9384 103.205 46.426C103.693 46.905 104.076 47.5014 104.355 48.2154C104.633 48.9207 104.773 49.7349 104.773 50.6578C104.773 51.8421 104.572 52.9392 104.172 53.9493C103.78 54.9506 103.249 55.8213 102.578 56.5615C101.908 57.2929 101.129 57.8676 100.24 58.2855C99.361 58.6948 98.4337 58.8994 97.4585 58.8994Z" fill="url(#paint1_linear_1502_7272)"/>
<path d="M117.641 56.3133C117.205 56.7922 116.787 57.1971 116.387 57.528C115.986 57.8589 115.573 58.1245 115.146 58.3247C114.719 58.525 114.262 58.6687 113.774 58.7557C113.296 58.8515 112.764 58.8994 112.181 58.8994C111.389 58.8994 110.675 58.7645 110.039 58.4945C109.403 58.2246 108.859 57.8415 108.406 57.3451C107.962 56.8488 107.618 56.248 107.375 55.5427C107.131 54.8374 107.009 54.045 107.009 53.1656C107.009 52.0597 107.187 51.0105 107.544 50.0179C107.91 49.0252 108.415 48.1545 109.059 47.4056C109.712 46.6568 110.483 46.0647 111.371 45.6293C112.259 45.1852 113.235 44.9632 114.297 44.9632C115.202 44.9632 115.977 45.1199 116.622 45.4334C117.275 45.7382 117.858 46.2214 118.372 46.8832L117.066 48.3852C116.97 48.481 116.861 48.5681 116.739 48.6464C116.617 48.7161 116.482 48.7509 116.334 48.7509C116.16 48.7509 116.012 48.7161 115.89 48.6464C115.777 48.5681 115.651 48.4897 115.512 48.4113C115.372 48.3243 115.202 48.2459 115.002 48.1762C114.802 48.0979 114.541 48.0587 114.219 48.0587C113.818 48.0587 113.426 48.1762 113.043 48.4113C112.669 48.6377 112.333 48.9686 112.037 49.404C111.741 49.8394 111.502 50.3749 111.319 51.0105C111.145 51.6461 111.058 52.3689 111.058 53.1786C111.058 53.6314 111.11 54.0276 111.214 54.3672C111.319 54.6981 111.463 54.9767 111.646 55.2031C111.828 55.4208 112.042 55.5862 112.285 55.6994C112.529 55.8126 112.791 55.8692 113.069 55.8692C113.487 55.8692 113.822 55.8126 114.075 55.6994C114.336 55.5775 114.562 55.4469 114.754 55.3076C114.946 55.1683 115.124 55.042 115.29 54.9288C115.455 54.8069 115.655 54.746 115.89 54.746C116.021 54.746 116.147 54.7765 116.269 54.8374C116.4 54.8984 116.509 54.9811 116.596 55.0856L117.641 56.3133Z" fill="url(#paint2_linear_1502_7272)"/>
<path d="M130.949 58.6904H128.781C128.529 58.6904 128.315 58.66 128.141 58.599C127.976 58.5294 127.841 58.4379 127.736 58.3247C127.64 58.2115 127.571 58.0766 127.527 57.9198C127.492 57.7631 127.475 57.5933 127.475 57.4104V56.4439C126.918 57.2102 126.299 57.811 125.62 58.2464C124.941 58.6817 124.192 58.8994 123.374 58.8994C122.886 58.8994 122.416 58.8036 121.963 58.6121C121.51 58.4118 121.11 58.1157 120.762 57.7239C120.413 57.3234 120.135 56.8183 119.926 56.2088C119.717 55.5906 119.612 54.8635 119.612 54.0276C119.612 52.7999 119.834 51.6374 120.278 50.5403C120.731 49.4345 121.358 48.4679 122.159 47.6407C122.969 46.8135 123.927 46.1561 125.033 45.6685C126.138 45.1809 127.353 44.9371 128.677 44.9371C129.321 44.9371 129.974 44.9806 130.636 45.0677C131.298 45.1548 131.951 45.3115 132.595 45.5379L130.949 58.6904ZM124.993 55.6994C125.289 55.6994 125.577 55.5906 125.855 55.3729C126.134 55.1465 126.395 54.8418 126.639 54.4586C126.892 54.0755 127.122 53.6271 127.331 53.1133C127.54 52.5996 127.719 52.051 127.867 51.4676L128.337 47.7191H128.102C127.44 47.7191 126.835 47.8671 126.286 48.1632C125.747 48.4592 125.281 48.8641 124.889 49.3779C124.497 49.8829 124.192 50.475 123.975 51.1542C123.766 51.8246 123.661 52.543 123.661 53.3093C123.661 53.7446 123.696 54.1147 123.766 54.4195C123.835 54.7242 123.927 54.9724 124.04 55.1639C124.162 55.3468 124.301 55.4818 124.458 55.5688C124.623 55.6559 124.802 55.6994 124.993 55.6994Z" fill="url(#paint3_linear_1502_7272)"/>
<path d="M145.533 56.3133C145.098 56.7922 144.68 57.1971 144.279 57.528C143.879 57.8589 143.465 58.1245 143.039 58.3247C142.612 58.525 142.155 58.6687 141.667 58.7557C141.188 58.8515 140.657 58.8994 140.074 58.8994C139.281 58.8994 138.567 58.7645 137.932 58.4945C137.296 58.2246 136.752 57.8415 136.299 57.3451C135.855 56.8488 135.511 56.248 135.267 55.5427C135.023 54.8374 134.901 54.045 134.901 53.1656C134.901 52.0597 135.08 51.0105 135.437 50.0179C135.803 49.0252 136.308 48.1545 136.952 47.4056C137.605 46.6568 138.376 46.0647 139.264 45.6293C140.152 45.1852 141.127 44.9632 142.19 44.9632C143.095 44.9632 143.87 45.1199 144.514 45.4334C145.167 45.7382 145.751 46.2214 146.265 46.8832L144.959 48.3852C144.863 48.481 144.754 48.5681 144.632 48.6464C144.51 48.7161 144.375 48.7509 144.227 48.7509C144.053 48.7509 143.905 48.7161 143.783 48.6464C143.67 48.5681 143.544 48.4897 143.404 48.4113C143.265 48.3243 143.095 48.2459 142.895 48.1762C142.695 48.0979 142.433 48.0587 142.111 48.0587C141.711 48.0587 141.319 48.1762 140.936 48.4113C140.561 48.6377 140.226 48.9686 139.93 49.404C139.634 49.8394 139.394 50.3749 139.212 51.0105C139.037 51.6461 138.95 52.3689 138.95 53.1786C138.95 53.6314 139.003 54.0276 139.107 54.3672C139.212 54.6981 139.355 54.9767 139.538 55.2031C139.721 55.4208 139.934 55.5862 140.178 55.6994C140.422 55.8126 140.683 55.8692 140.962 55.8692C141.38 55.8692 141.715 55.8126 141.968 55.6994C142.229 55.5775 142.455 55.4469 142.647 55.3076C142.838 55.1683 143.017 55.042 143.182 54.9288C143.348 54.8069 143.548 54.746 143.783 54.746C143.914 54.746 144.04 54.7765 144.162 54.8374C144.292 54.8984 144.401 54.9811 144.488 55.0856L145.533 56.3133Z" fill="url(#paint4_linear_1502_7272)"/>
<path d="M153.461 45.1461L151.841 58.6904H147.844L149.464 45.1461H153.461ZM154.218 41.4367C154.218 41.7589 154.149 42.0636 154.009 42.351C153.87 42.6296 153.687 42.8778 153.461 43.0955C153.234 43.3044 152.973 43.4742 152.677 43.6048C152.39 43.7267 152.094 43.7877 151.789 43.7877C151.484 43.7877 151.192 43.7267 150.914 43.6048C150.635 43.4742 150.387 43.3044 150.169 43.0955C149.96 42.8778 149.791 42.6296 149.66 42.351C149.529 42.0636 149.464 41.7589 149.464 41.4367C149.464 41.1145 149.529 40.8098 149.66 40.5224C149.791 40.2351 149.965 39.9826 150.182 39.7649C150.409 39.5472 150.661 39.3774 150.94 39.2555C151.219 39.1249 151.51 39.0596 151.815 39.0596C152.128 39.0596 152.429 39.1205 152.716 39.2424C153.004 39.3643 153.256 39.5341 153.474 39.7518C153.7 39.9695 153.879 40.222 154.009 40.5094C154.149 40.7967 154.218 41.1058 154.218 41.4367Z" fill="url(#paint5_linear_1502_7272)"/>
<path d="M161.625 55.8954C162.077 55.8954 162.482 55.7604 162.839 55.4905C163.196 55.2118 163.497 54.8374 163.741 54.3672C163.993 53.8883 164.185 53.3354 164.315 52.7084C164.455 52.0728 164.524 51.398 164.524 50.684C164.524 49.7 164.389 48.9991 164.119 48.5811C163.858 48.1545 163.427 47.9411 162.826 47.9411C162.374 47.9411 161.969 48.0805 161.612 48.3591C161.255 48.629 160.95 48.9991 160.697 49.4693C160.454 49.9395 160.262 50.4924 160.123 51.128C159.992 51.7637 159.927 52.4385 159.927 53.1525C159.927 54.119 160.057 54.82 160.319 55.2554C160.589 55.682 161.024 55.8954 161.625 55.8954ZM161.259 58.8994C160.501 58.8994 159.792 58.7732 159.13 58.5206C158.477 58.2681 157.907 57.9024 157.419 57.4235C156.94 56.9359 156.561 56.3394 156.283 55.6341C156.013 54.9201 155.878 54.1016 155.878 53.1786C155.878 51.977 156.074 50.8755 156.466 49.8742C156.866 48.8641 157.402 47.9934 158.072 47.262C158.743 46.5305 159.518 45.9602 160.397 45.5509C161.285 45.1417 162.217 44.9371 163.192 44.9371C163.95 44.9371 164.655 45.0633 165.308 45.3158C165.961 45.5684 166.527 45.9384 167.006 46.426C167.494 46.905 167.877 47.5014 168.155 48.2154C168.434 48.9207 168.573 49.7349 168.573 50.6578C168.573 51.8421 168.373 52.9392 167.972 53.9493C167.581 54.9506 167.049 55.8213 166.379 56.5615C165.708 57.2929 164.929 57.8676 164.041 58.2855C163.162 58.6948 162.234 58.8994 161.259 58.8994Z" fill="url(#paint6_linear_1502_7272)"/>
<path d="M178.646 58.6904L179.665 50.0832C179.682 49.9438 179.695 49.8176 179.704 49.7044C179.713 49.5825 179.717 49.4693 179.717 49.3648C179.717 48.9033 179.634 48.5855 179.469 48.4113C179.312 48.2285 179.073 48.1371 178.751 48.1371C178.454 48.1371 178.145 48.2285 177.823 48.4113C177.501 48.5942 177.192 48.8511 176.896 49.1819C176.608 49.5128 176.343 49.9177 176.099 50.3966C175.855 50.8668 175.664 51.3893 175.524 51.964L174.78 58.6904H170.731L172.351 45.1461H174.44C174.858 45.1461 175.185 45.2462 175.42 45.4465C175.655 45.638 175.773 45.9558 175.773 46.3999V47.484C176.426 46.6133 177.14 45.9733 177.915 45.564C178.69 45.1461 179.491 44.9371 180.318 44.9371C180.823 44.9371 181.284 45.0285 181.702 45.2114C182.129 45.3942 182.495 45.6641 182.799 46.0211C183.104 46.3694 183.344 46.8005 183.518 47.3142C183.692 47.8279 183.779 48.42 183.779 49.0905C183.779 49.2472 183.77 49.4083 183.753 49.5738C183.744 49.7392 183.731 49.909 183.714 50.0832L182.695 58.6904H178.646Z" fill="url(#paint7_linear_1502_7272)"/>
<path d="M197.658 58.6904H195.49C195.237 58.6904 195.024 58.66 194.85 58.599C194.684 58.5294 194.549 58.4379 194.445 58.3247C194.349 58.2115 194.279 58.0766 194.236 57.9198C194.201 57.7631 194.184 57.5933 194.184 57.4104V56.4439C193.626 57.2102 193.008 57.811 192.329 58.2464C191.65 58.6817 190.901 58.8994 190.082 58.8994C189.595 58.8994 189.125 58.8036 188.672 58.6121C188.219 58.4118 187.819 58.1157 187.47 57.7239C187.122 57.3234 186.843 56.8183 186.634 56.2088C186.425 55.5906 186.321 54.8635 186.321 54.0276C186.321 52.7999 186.543 51.6374 186.987 50.5403C187.44 49.4345 188.067 48.4679 188.868 47.6407C189.678 46.8135 190.635 46.1561 191.741 45.6685C192.847 45.1809 194.062 44.9371 195.385 44.9371C196.03 44.9371 196.683 44.9806 197.344 45.0677C198.006 45.1548 198.659 45.3115 199.304 45.5379L197.658 58.6904ZM191.702 55.6994C191.998 55.6994 192.285 55.5906 192.564 55.3729C192.843 55.1465 193.104 54.8418 193.348 54.4586C193.6 54.0755 193.831 53.6271 194.04 53.1133C194.249 52.5996 194.427 52.051 194.575 51.4676L195.046 47.7191H194.811C194.149 47.7191 193.544 47.8671 192.995 48.1632C192.455 48.4592 191.989 48.8641 191.598 49.3779C191.206 49.8829 190.901 50.475 190.683 51.1542C190.474 51.8246 190.37 52.543 190.37 53.3093C190.37 53.7446 190.405 54.1147 190.474 54.4195C190.544 54.7242 190.635 54.9724 190.749 55.1639C190.87 55.3468 191.01 55.4818 191.167 55.5688C191.332 55.6559 191.51 55.6994 191.702 55.6994Z" fill="url(#paint8_linear_1502_7272)"/>
<path d="M201.636 58.6904L204.013 39.1379H208.01L205.633 58.6904H201.636Z" fill="url(#paint9_linear_1502_7272)"/>
<path d="M44.0597 41.8559C45.5746 41.8498 47.0406 41.3285 48.2079 40.3811C49.3753 39.4336 50.1719 38.1184 50.4621 36.6594C50.7524 35.2004 50.5183 33.6878 49.7997 32.3791C49.0811 31.0705 47.9226 30.0466 46.5211 29.4819C45.1197 28.9172 43.5621 28.8465 42.1136 29.2819C40.665 29.7173 39.4151 30.6319 38.5765 31.8699C37.738 33.108 37.3626 34.5929 37.5144 36.072C37.6662 37.551 38.3357 38.9327 39.409 39.9819C40.0193 40.5806 40.7446 41.0546 41.5429 41.3762C42.3412 41.698 43.1966 41.861 44.0597 41.8559ZM59.339 43.8893C57.5661 43.8893 55.8659 44.5803 54.6122 45.8104C53.3585 47.0404 52.6543 48.7089 52.6543 50.4484C52.6543 52.6975 51.7437 54.8544 50.123 56.4447C48.5022 58.035 46.3039 58.9284 44.0119 58.9284C41.7198 58.9284 39.5215 58.035 37.9008 56.4447C36.28 54.8544 35.3694 52.6975 35.3694 50.4484C35.3694 49.1511 34.9775 47.8829 34.2429 46.8043C33.5084 45.7257 32.4644 44.8849 31.2429 44.3885C30.0214 43.8921 28.6773 43.7622 27.3806 44.0153C26.0839 44.2683 24.8928 44.8931 23.9579 45.8104C23.023 46.7276 22.3864 47.8964 22.1284 49.1688C21.8705 50.4412 22.0029 51.7599 22.5088 52.9585C23.0148 54.157 23.8716 55.1815 24.9709 55.9022C26.0702 56.6229 27.3626 57.0076 28.6847 57.0076C30.9761 56.9976 33.1779 57.8799 34.807 59.4609C36.4363 61.042 37.3598 63.1924 37.3749 65.4407C37.3749 67.1804 38.0792 68.8487 39.3328 70.0788C40.5864 71.3088 42.2867 72 44.0597 72C45.8325 72 47.5328 71.3088 48.7864 70.0788C50.0401 68.8487 50.7444 67.1804 50.7444 65.4407C50.7594 63.2087 51.6697 61.0722 53.2783 59.4939C54.8869 57.9155 57.0642 57.0223 59.339 57.0076C61.112 57.0076 62.8122 56.3165 64.0658 55.0865C65.3194 53.8563 66.0238 52.188 66.0238 50.4484C66.0238 48.7089 65.3194 47.0404 64.0658 45.8104C62.8122 44.5803 61.112 43.8893 59.339 43.8893Z" fill="url(#paint10_linear_1502_7272)"/>
<defs>
<linearGradient id="paint0_linear_1502_7272" x1="208.01" y1="39.0596" x2="76.1882" y2="37.2287" gradientUnits="userSpaceOnUse">
<stop offset="0.0001" stop-color="#2B307C"/>
<stop offset="1" stop-color="#298BBA"/>
</linearGradient>
<linearGradient id="paint1_linear_1502_7272" x1="208.01" y1="39.0596" x2="76.1882" y2="37.2287" gradientUnits="userSpaceOnUse">
<stop offset="0.0001" stop-color="#2B307C"/>
<stop offset="1" stop-color="#298BBA"/>
</linearGradient>
<linearGradient id="paint2_linear_1502_7272" x1="208.01" y1="39.0596" x2="76.1882" y2="37.2287" gradientUnits="userSpaceOnUse">
<stop offset="0.0001" stop-color="#2B307C"/>
<stop offset="1" stop-color="#298BBA"/>
</linearGradient>
<linearGradient id="paint3_linear_1502_7272" x1="208.01" y1="39.0596" x2="76.1882" y2="37.2287" gradientUnits="userSpaceOnUse">
<stop offset="0.0001" stop-color="#2B307C"/>
<stop offset="1" stop-color="#298BBA"/>
</linearGradient>
<linearGradient id="paint4_linear_1502_7272" x1="208.01" y1="39.0596" x2="76.1882" y2="37.2287" gradientUnits="userSpaceOnUse">
<stop offset="0.0001" stop-color="#2B307C"/>
<stop offset="1" stop-color="#298BBA"/>
</linearGradient>
<linearGradient id="paint5_linear_1502_7272" x1="208.01" y1="39.0596" x2="76.1882" y2="37.2287" gradientUnits="userSpaceOnUse">
<stop offset="0.0001" stop-color="#2B307C"/>
<stop offset="1" stop-color="#298BBA"/>
</linearGradient>
<linearGradient id="paint6_linear_1502_7272" x1="208.01" y1="39.0596" x2="76.1882" y2="37.2287" gradientUnits="userSpaceOnUse">
<stop offset="0.0001" stop-color="#2B307C"/>
<stop offset="1" stop-color="#298BBA"/>
</linearGradient>
<linearGradient id="paint7_linear_1502_7272" x1="208.01" y1="39.0596" x2="76.1882" y2="37.2287" gradientUnits="userSpaceOnUse">
<stop offset="0.0001" stop-color="#2B307C"/>
<stop offset="1" stop-color="#298BBA"/>
</linearGradient>
<linearGradient id="paint8_linear_1502_7272" x1="208.01" y1="39.0596" x2="76.1882" y2="37.2287" gradientUnits="userSpaceOnUse">
<stop offset="0.0001" stop-color="#2B307C"/>
<stop offset="1" stop-color="#298BBA"/>
</linearGradient>
<linearGradient id="paint9_linear_1502_7272" x1="208.01" y1="39.0596" x2="76.1882" y2="37.2287" gradientUnits="userSpaceOnUse">
<stop offset="0.0001" stop-color="#2B307C"/>
<stop offset="1" stop-color="#298BBA"/>
</linearGradient>
<linearGradient id="paint10_linear_1502_7272" x1="66.0238" y1="29" x2="22.069" y2="28.9296" gradientUnits="userSpaceOnUse">
<stop offset="0.0001" stop-color="#2B307C"/>
<stop offset="1" stop-color="#298BBA"/>
</linearGradient>
</defs>
</svg>
