<svg width="230" height="60" fill="none" xmlns="http://www.w3.org/2000/svg"><path d="M112.986 46.86c.178 0 .334-.023.468-.068a.925.925 0 00.338-.191.804.804 0 00.205-.304c.045-.118.068-.25.068-.396 0-.143-.023-.272-.068-.385a.75.75 0 00-.198-.29.88.88 0 00-.338-.181 1.557 1.557 0 00-.475-.065h-.73v1.88h.73zm0-2.505c.321 0 .599.038.833.113.237.075.431.18.584.317.154.135.269.297.344.488.075.19.113.398.113.628 0 .235-.04.45-.119.645a1.37 1.37 0 01-.355.502 1.702 1.702 0 01-.587.328 2.572 2.572 0 01-.813.116h-.73v1.778h-.798v-4.915h1.528zm6.547 2.065a.18.18 0 01-.062.068.16.16 0 01-.085.02.282.282 0 01-.126-.033 3.25 3.25 0 00-.161-.082 1.25 1.25 0 00-.508-.116.854.854 0 00-.249.034.531.531 0 00-.188.092.4.4 0 00-.157.31c0 .082.025.15.075.205.05.055.116.103.198.144.082.038.175.074.28.105.105.032.212.066.321.103.109.036.216.078.321.126.104.048.198.107.279.178a.773.773 0 01.198.252.78.78 0 01.075.358c0 .164-.029.316-.088.454-.059.14-.146.26-.26.362a1.189 1.189 0 01-.426.239 1.816 1.816 0 01-.58.085 2.102 2.102 0 01-.673-.12 1.936 1.936 0 01-.283-.136 1.539 1.539 0 01-.232-.17l.171-.28a.21.21 0 01.191-.11c.048 0 .094.017.14.048l.163.1c.064.036.14.07.229.102.089.03.199.044.331.044a.947.947 0 00.283-.037.583.583 0 00.198-.11.428.428 0 00.154-.34.319.319 0 00-.075-.22.624.624 0 00-.202-.146 1.717 1.717 0 00-.283-.11 14.77 14.77 0 01-.321-.102 3.554 3.554 0 01-.324-.126 1.187 1.187 0 01-.283-.18.87.87 0 01-.198-.27.913.913 0 01-.075-.39.97.97 0 01.082-.395.992.992 0 01.246-.331 1.19 1.19 0 01.399-.226c.159-.056.342-.085.549-.085.235 0 .447.038.638.113.192.075.352.177.482.307l-.164.266zm3.713-.631v3.48h-.734v-3.48h.734zm.123-1.051a.447.447 0 01-.041.187.482.482 0 01-.266.263.486.486 0 01-.529-.106.478.478 0 01-.106-.536.526.526 0 01.256-.259.45.45 0 01.379 0 .48.48 0 01.16.106.445.445 0 01.106.154.45.45 0 01.041.19zm5.307 1.733a.371.371 0 01-.065.069.14.14 0 01-.088.023.231.231 0 01-.123-.04 1.935 1.935 0 00-.15-.09.983.983 0 00-.516-.133.978.978 0 00-.42.086.826.826 0 00-.3.246c-.079.104-.14.233-.181.385-.038.15-.058.32-.058.509 0 .195.022.37.065.522.043.152.105.28.184.386a.822.822 0 00.683.32.979.979 0 00.345-.05c.088-.035.162-.072.221-.114.06-.04.11-.078.151-.112a.215.215 0 01.136-.051c.059 0 .105.023.137.068l.208.27a1.372 1.372 0 01-.28.259 1.66 1.66 0 01-.324.174 1.7 1.7 0 01-.355.092c-.123.02-.247.03-.372.03-.216 0-.419-.039-.608-.119a1.47 1.47 0 01-.491-.351 1.736 1.736 0 01-.331-.563 2.245 2.245 0 01-.12-.761c0-.257.037-.495.11-.714.072-.22.178-.41.317-.57a1.44 1.44 0 01.522-.371c.207-.091.446-.137.717-.137.252 0 .474.041.665.123.194.082.365.198.516.348l-.195.266zm4.312-.737c.257 0 .489.042.696.126.209.085.387.204.532.359.148.154.262.342.341.563.08.22.12.469.12.744s-.04.523-.12.744c-.079.22-.193.41-.341.566a1.473 1.473 0 01-.532.359 1.832 1.832 0 01-.696.126 1.87 1.87 0 01-.703-.126 1.52 1.52 0 01-.533-.359 1.616 1.616 0 01-.341-.566 2.17 2.17 0 01-.12-.744c0-.276.04-.524.12-.744.08-.22.193-.409.341-.563a1.52 1.52 0 01.533-.359 1.87 1.87 0 01.703-.126zm0 3.014c.314 0 .547-.105.699-.314.155-.212.232-.514.232-.905s-.077-.693-.232-.904c-.152-.214-.385-.321-.699-.321-.319 0-.556.107-.71.32-.155.212-.232.514-.232.905s.077.693.232.905c.154.209.391.314.71.314zm7.085-1.321l-.676-1.795a5.153 5.153 0 01-.167-.53 3.491 3.491 0 01-.082.298 6.956 6.956 0 01-.082.235l-.675 1.792h1.682zm1.512 1.843h-.618a.266.266 0 01-.17-.052.343.343 0 01-.099-.133l-.41-1.085h-2.116l-.409 1.085a.322.322 0 01-.096.127.253.253 0 01-.17.058h-.618l1.949-4.915h.808l1.949 4.915zm3.219-5.051v5.05h-.734v-5.05h.734zm3.717 1.57v3.48h-.733v-3.48h.733zm.123-1.051a.433.433 0 01-.041.187.482.482 0 01-.266.263.486.486 0 01-.529-.106.477.477 0 01-.143-.345.48.48 0 01.037-.19.545.545 0 01.256-.26.45.45 0 01.379 0 .48.48 0 01.16.106.445.445 0 01.106.154.44.44 0 01.041.19zm4.707 3.01c-.262.009-.483.03-.662.064a1.77 1.77 0 00-.437.127.574.574 0 00-.242.18.404.404 0 00-.072.233c0 .082.012.152.037.211a.434.434 0 00.11.144.496.496 0 00.163.081.868.868 0 00.209.024c.191 0 .355-.035.491-.105.139-.073.273-.178.403-.314v-.645zm-1.945-1.475c.393-.366.862-.55 1.406-.55.2 0 .377.034.532.1.157.063.288.154.392.273.107.118.188.26.243.423.057.162.085.341.085.54v2.21h-.328a.334.334 0 01-.16-.03.262.262 0 01-.092-.133l-.072-.283c-.089.08-.176.15-.263.215a1.684 1.684 0 01-.269.157c-.091.043-.19.075-.297.095a1.642 1.642 0 01-.348.034c-.141 0-.273-.02-.396-.058a.88.88 0 01-.314-.174.875.875 0 01-.212-.293 1.029 1.029 0 01-.075-.41c0-.134.036-.265.106-.392a.987.987 0 01.355-.341c.166-.103.383-.187.652-.253a4.763 4.763 0 011-.113v-.232c0-.25-.054-.437-.161-.56-.107-.122-.264-.184-.471-.184a.996.996 0 00-.354.055 1.512 1.512 0 00-.25.112c-.07.041-.133.08-.187.116a.325.325 0 01-.174.052.224.224 0 01-.13-.038.346.346 0 01-.085-.099l-.133-.239zm6.251-.023c.075-.078.153-.147.232-.209.082-.063.169-.118.26-.164a1.369 1.369 0 01.624-.143c.191 0 .358.032.502.096a.993.993 0 01.365.27c.1.115.175.255.225.419.05.162.075.34.075.536v2.215h-.73v-2.215c0-.234-.055-.416-.164-.546-.107-.13-.271-.195-.491-.195a.96.96 0 00-.458.113 1.59 1.59 0 00-.392.307v2.536h-.734v-3.481h.444c.1 0 .164.046.191.14l.051.32zm7.641-.154a.45.45 0 01-.098.28l-1.765 2.324h1.805v.57h-2.655v-.308a.49.49 0 01.096-.26l1.778-2.343h-1.771v-.57h2.61v.307zm4.567 1.652a4.47 4.47 0 00-.662.064c-.18.032-.325.074-.437.127a.581.581 0 00-.242.18.404.404 0 00-.072.233.54.54 0 00.038.211.419.419 0 00.109.144.501.501 0 00.164.081.853.853 0 00.208.024c.191 0 .355-.035.491-.105.139-.073.273-.178.403-.314v-.645zm-1.945-1.475c.393-.366.862-.55 1.406-.55.2 0 .378.034.532.1.157.063.288.154.393.273.107.118.187.26.242.423.057.162.085.341.085.54v2.21h-.327a.338.338 0 01-.161-.03.262.262 0 01-.092-.133l-.072-.283c-.088.08-.176.15-.262.215a1.738 1.738 0 01-.27.157 1.617 1.617 0 01-.645.129c-.141 0-.273-.02-.396-.058a.888.888 0 01-.314-.174.872.872 0 01-.211-.293 1.029 1.029 0 01-.075-.41c0-.134.035-.265.105-.392a.996.996 0 01.355-.341 2.28 2.28 0 01.652-.253 4.763 4.763 0 011-.113v-.232c0-.25-.053-.437-.16-.56-.107-.122-.264-.184-.471-.184-.141 0-.26.019-.355.055a1.463 1.463 0 00-.249.112c-.071.041-.133.08-.188.116a.325.325 0 01-.174.052.226.226 0 01-.13-.038.363.363 0 01-.085-.099l-.133-.239z" fill="#0A0A21"/><path d="M75.887 19.66h3.422c.366 0 .658.088.875.262.218.174.353.396.405.666l1.986 10.488c.078.427.17.91.274 1.45.113.53.204 1.07.274 1.62a17.03 17.03 0 01.627-1.607 61.21 61.21 0 00.627-1.463l4.44-10.488a1.613 1.613 0 01.562-.64c.14-.087.288-.157.444-.21a1.68 1.68 0 01.51-.078h3.448l-9.352 19.03h-3.866l-4.676-19.03z" fill="url(#paint0_linear_118_758)"/><path d="M97.824 35.895c.453 0 .858-.135 1.215-.404.357-.28.657-.654.901-1.124a6.297 6.297 0 00.575-1.658 9.46 9.46 0 00.209-2.025c0-.984-.135-1.685-.405-2.103-.261-.426-.692-.64-1.293-.64-.453 0-.858.14-1.215.418-.357.27-.662.64-.914 1.11a6.728 6.728 0 00-.575 1.66 10.08 10.08 0 00-.196 2.024c0 .966.13 1.667.392 2.102.27.427.705.64 1.306.64zM97.46 38.9a5.922 5.922 0 01-2.13-.38 4.972 4.972 0 01-1.71-1.096 5.29 5.29 0 01-1.137-1.79c-.27-.714-.405-1.532-.405-2.455 0-1.202.196-2.303.588-3.305.4-1.01.936-1.88 1.607-2.612a7.316 7.316 0 012.324-1.71 6.602 6.602 0 012.795-.615c.758 0 1.463.127 2.116.379a4.752 4.752 0 011.698 1.11c.488.48.871 1.076 1.15 1.79.278.705.418 1.519.418 2.442 0 1.184-.201 2.281-.601 3.291a8.409 8.409 0 01-1.594 2.613 7.431 7.431 0 01-2.338 1.724 6.513 6.513 0 01-2.781.614z" fill="url(#paint1_linear_118_758)"/><path d="M117.641 36.313a12.48 12.48 0 01-1.254 1.215 5.854 5.854 0 01-1.241.797c-.427.2-.884.344-1.372.43a8.145 8.145 0 01-1.593.145c-.792 0-1.506-.135-2.142-.405a4.63 4.63 0 01-1.633-1.15 5.214 5.214 0 01-1.031-1.802c-.244-.706-.366-1.498-.366-2.377a9.23 9.23 0 01.535-3.148 8.443 8.443 0 011.515-2.612 7.306 7.306 0 012.312-1.777c.888-.444 1.864-.666 2.926-.666.905 0 1.68.157 2.325.47.653.305 1.236.788 1.75 1.45l-1.306 1.502a1.963 1.963 0 01-.327.262.803.803 0 01-.405.104.883.883 0 01-.444-.104 4.777 4.777 0 00-.378-.235 2.56 2.56 0 00-.51-.236c-.2-.078-.461-.117-.783-.117-.401 0-.793.117-1.176.352-.374.227-.71.558-1.006.993-.296.436-.535.971-.718 1.607-.174.635-.261 1.358-.261 2.168 0 .453.052.849.156 1.188.105.331.249.61.432.836.182.218.396.383.639.497.244.113.506.17.784.17.418 0 .753-.057 1.006-.17.261-.122.487-.253.679-.392.192-.14.37-.266.536-.379a.982.982 0 01.6-.183c.131 0 .257.03.379.091.131.061.24.144.327.249l1.045 1.227z" fill="url(#paint2_linear_118_758)"/><path d="M130.949 38.69h-2.168c-.252 0-.466-.03-.64-.09-.165-.07-.3-.162-.405-.275a1.057 1.057 0 01-.209-.405 2.338 2.338 0 01-.052-.51v-.966c-.557.766-1.176 1.367-1.855 1.802a4.077 4.077 0 01-2.246.654 3.58 3.58 0 01-1.411-.288 3.476 3.476 0 01-1.201-.888c-.349-.4-.627-.905-.836-1.515-.209-.618-.314-1.345-.314-2.181 0-1.228.222-2.39.666-3.488a9.059 9.059 0 011.881-2.9 9.131 9.131 0 012.874-1.971c1.105-.488 2.32-.732 3.644-.732.644 0 1.297.044 1.959.13a9.714 9.714 0 011.959.471l-1.646 13.153zm-5.956-2.99c.296 0 .584-.11.862-.327.279-.226.54-.531.784-.914.253-.383.483-.832.692-1.346.209-.513.388-1.062.536-1.645l.47-3.749h-.235c-.662 0-1.267.148-1.816.444a4.427 4.427 0 00-1.397 1.215 5.693 5.693 0 00-.914 1.776 7.204 7.204 0 00-.314 2.155c0 .436.035.806.105 1.11.069.305.161.553.274.745.122.183.261.318.418.405.165.087.344.13.535.13z" fill="url(#paint3_linear_118_758)"/><path d="M145.533 36.313c-.435.48-.853.884-1.254 1.215-.4.331-.814.597-1.24.797-.427.2-.884.344-1.372.43a8.152 8.152 0 01-1.593.145c-.793 0-1.507-.135-2.142-.405a4.63 4.63 0 01-1.633-1.15 5.232 5.232 0 01-1.032-1.802c-.244-.706-.366-1.498-.366-2.377a9.23 9.23 0 01.536-3.148 8.443 8.443 0 011.515-2.612 7.306 7.306 0 012.312-1.777c.888-.444 1.863-.666 2.926-.666.905 0 1.68.157 2.324.47.653.305 1.237.788 1.751 1.45l-1.306 1.502a1.963 1.963 0 01-.327.262.803.803 0 01-.405.104.883.883 0 01-.444-.104 4.627 4.627 0 00-.379-.235 2.524 2.524 0 00-.509-.236c-.2-.078-.462-.117-.784-.117-.4 0-.792.117-1.175.352-.375.227-.71.558-1.006.993-.296.436-.536.971-.718 1.607-.175.635-.262 1.358-.262 2.168 0 .453.053.849.157 1.188.105.331.248.61.431.836.183.218.396.383.64.497.244.113.505.17.784.17.418 0 .753-.057 1.006-.17.261-.122.487-.253.679-.392.191-.14.37-.266.535-.379a.987.987 0 01.601-.183c.131 0 .257.03.379.091a.93.93 0 01.326.249l1.045 1.227z" fill="url(#paint4_linear_118_758)"/><path d="M153.461 25.146l-1.62 13.545h-3.997l1.62-13.545h3.997zm.757-3.71c0 .323-.069.628-.209.915a2.703 2.703 0 01-.548.745 2.839 2.839 0 01-.784.509 2.25 2.25 0 01-.888.183c-.305 0-.597-.061-.875-.183-.279-.13-.527-.3-.745-.51a2.764 2.764 0 01-.509-.744 2.178 2.178 0 01-.196-.914c0-.322.065-.627.196-.915a2.57 2.57 0 01.522-.757 2.6 2.6 0 01.758-.51c.279-.13.57-.195.875-.195a2.369 2.369 0 011.659.692c.226.218.405.47.535.758.14.287.209.596.209.927z" fill="url(#paint5_linear_118_758)"/><path d="M161.625 35.895c.452 0 .857-.135 1.214-.404.357-.28.658-.654.902-1.124a6.293 6.293 0 00.574-1.658c.14-.636.209-1.31.209-2.025 0-.984-.135-1.685-.405-2.103-.261-.426-.692-.64-1.293-.64-.452 0-.857.14-1.214.418-.357.27-.662.64-.915 1.11a6.75 6.75 0 00-.574 1.66c-.131.635-.196 1.31-.196 2.024 0 .966.13 1.667.392 2.102.27.427.705.64 1.306.64zm-.366 3.005a5.92 5.92 0 01-2.129-.38 4.977 4.977 0 01-1.711-1.096 5.279 5.279 0 01-1.136-1.79c-.27-.714-.405-1.532-.405-2.455 0-1.202.196-2.303.588-3.305.4-1.01.936-1.88 1.606-2.612a7.328 7.328 0 012.325-1.71 6.602 6.602 0 012.795-.615c.758 0 1.463.127 2.116.379a4.752 4.752 0 011.698 1.11c.488.48.871 1.076 1.149 1.79.279.705.418 1.519.418 2.442 0 1.184-.2 2.281-.601 3.291a8.406 8.406 0 01-1.593 2.613 7.454 7.454 0 01-2.338 1.724 6.516 6.516 0 01-2.782.614z" fill="url(#paint6_linear_118_758)"/><path d="M178.646 38.69l1.019-8.607c.017-.139.03-.265.039-.378a4.64 4.64 0 00.013-.34c0-.462-.083-.78-.248-.953-.157-.183-.396-.275-.718-.275-.297 0-.606.092-.928.274-.322.183-.631.44-.927.771-.288.33-.553.736-.797 1.215a6.96 6.96 0 00-.575 1.567l-.744 6.727h-4.049l1.62-13.545h2.089c.418 0 .745.1.98.3.235.192.353.51.353.954v1.084c.653-.87 1.367-1.51 2.142-1.92a5.001 5.001 0 012.403-.627c.505 0 .966.092 1.384.274a2.95 2.95 0 011.097.81c.305.349.545.78.719 1.293.174.514.261 1.106.261 1.777 0 .156-.009.317-.026.483a11.91 11.91 0 01-.039.51l-1.019 8.607h-4.049z" fill="url(#paint7_linear_118_758)"/><path d="M197.658 38.69h-2.168c-.253 0-.466-.03-.64-.09a1.137 1.137 0 01-.405-.275 1.043 1.043 0 01-.209-.405 2.338 2.338 0 01-.052-.51v-.966c-.558.766-1.176 1.367-1.855 1.802a4.078 4.078 0 01-2.247.654c-.487 0-.957-.096-1.41-.288a3.488 3.488 0 01-1.202-.888c-.348-.4-.627-.905-.836-1.515-.209-.618-.313-1.345-.313-2.181 0-1.228.222-2.39.666-3.488a9.059 9.059 0 011.881-2.9 9.127 9.127 0 012.873-1.971c1.106-.488 2.321-.732 3.644-.732.645 0 1.298.044 1.959.13a9.739 9.739 0 011.96.471l-1.646 13.153zm-5.956-2.99c.296 0 .583-.11.862-.327.279-.226.54-.531.784-.914a7.79 7.79 0 00.692-1.346 12.56 12.56 0 00.535-1.645l.471-3.749h-.235c-.662 0-1.267.148-1.816.444a4.405 4.405 0 00-1.397 1.215 5.716 5.716 0 00-.915 1.776 7.204 7.204 0 00-.313 2.155c0 .436.035.806.104 1.11.07.305.161.553.275.745.121.183.261.318.418.405.165.087.343.13.535.13z" fill="url(#paint8_linear_118_758)"/><path d="M201.636 38.69l2.377-19.552h3.997l-2.377 19.553h-3.997z" fill="url(#paint9_linear_118_758)"/><path d="M44.06 21.856a6.627 6.627 0 004.148-1.475 6.406 6.406 0 002.254-3.722 6.322 6.322 0 00-.662-4.28 6.51 6.51 0 00-3.279-2.897 6.668 6.668 0 00-4.407-.2 6.541 6.541 0 00-3.537 2.588 6.335 6.335 0 00.832 8.112 6.532 6.532 0 002.134 1.394 6.628 6.628 0 002.517.48zm15.279 2.033a6.75 6.75 0 00-4.727 1.921 6.497 6.497 0 00-1.958 4.638 8.4 8.4 0 01-2.531 5.997 8.727 8.727 0 01-6.111 2.483 8.727 8.727 0 01-6.111-2.483 8.4 8.4 0 01-2.532-5.997 6.471 6.471 0 00-1.126-3.644 6.659 6.659 0 00-3-2.415 6.804 6.804 0 00-3.862-.374 6.725 6.725 0 00-3.423 1.795 6.522 6.522 0 00-1.83 3.359 6.445 6.445 0 00.38 3.79 6.588 6.588 0 002.463 2.943 6.776 6.776 0 003.714 1.106 8.738 8.738 0 016.122 2.453 8.41 8.41 0 012.568 5.98c0 1.74.704 3.408 1.958 4.638A6.75 6.75 0 0044.06 52a6.75 6.75 0 004.726-1.921 6.497 6.497 0 001.958-4.638 8.41 8.41 0 012.534-5.947 8.735 8.735 0 016.061-2.486 6.75 6.75 0 004.727-1.922 6.498 6.498 0 001.958-4.638 6.5 6.5 0 00-1.958-4.638 6.75 6.75 0 00-4.727-1.92z" fill="url(#paint10_linear_118_758)"/><defs><linearGradient id="paint0_linear_118_758" x1="208.01" y1="19.06" x2="76.189" y2="17.227" gradientUnits="userSpaceOnUse"><stop offset="0" stop-color="#2B307C"/><stop offset="1" stop-color="#298BBA"/></linearGradient><linearGradient id="paint1_linear_118_758" x1="208.01" y1="19.06" x2="76.189" y2="17.227" gradientUnits="userSpaceOnUse"><stop offset="0" stop-color="#2B307C"/><stop offset="1" stop-color="#298BBA"/></linearGradient><linearGradient id="paint2_linear_118_758" x1="208.01" y1="19.06" x2="76.189" y2="17.227" gradientUnits="userSpaceOnUse"><stop offset="0" stop-color="#2B307C"/><stop offset="1" stop-color="#298BBA"/></linearGradient><linearGradient id="paint3_linear_118_758" x1="208.01" y1="19.06" x2="76.189" y2="17.227" gradientUnits="userSpaceOnUse"><stop offset="0" stop-color="#2B307C"/><stop offset="1" stop-color="#298BBA"/></linearGradient><linearGradient id="paint4_linear_118_758" x1="208.01" y1="19.06" x2="76.189" y2="17.227" gradientUnits="userSpaceOnUse"><stop offset="0" stop-color="#2B307C"/><stop offset="1" stop-color="#298BBA"/></linearGradient><linearGradient id="paint5_linear_118_758" x1="208.01" y1="19.06" x2="76.189" y2="17.227" gradientUnits="userSpaceOnUse"><stop offset="0" stop-color="#2B307C"/><stop offset="1" stop-color="#298BBA"/></linearGradient><linearGradient id="paint6_linear_118_758" x1="208.01" y1="19.06" x2="76.189" y2="17.227" gradientUnits="userSpaceOnUse"><stop offset="0" stop-color="#2B307C"/><stop offset="1" stop-color="#298BBA"/></linearGradient><linearGradient id="paint7_linear_118_758" x1="208.01" y1="19.06" x2="76.189" y2="17.227" gradientUnits="userSpaceOnUse"><stop offset="0" stop-color="#2B307C"/><stop offset="1" stop-color="#298BBA"/></linearGradient><linearGradient id="paint8_linear_118_758" x1="208.01" y1="19.06" x2="76.189" y2="17.227" gradientUnits="userSpaceOnUse"><stop offset="0" stop-color="#2B307C"/><stop offset="1" stop-color="#298BBA"/></linearGradient><linearGradient id="paint9_linear_118_758" x1="208.01" y1="19.06" x2="76.189" y2="17.227" gradientUnits="userSpaceOnUse"><stop offset="0" stop-color="#2B307C"/><stop offset="1" stop-color="#298BBA"/></linearGradient><linearGradient id="paint10_linear_118_758" x1="66.024" y1="9" x2="22.069" y2="8.93" gradientUnits="userSpaceOnUse"><stop offset="0" stop-color="#2B307C"/><stop offset="1" stop-color="#298BBA"/></linearGradient></defs></svg>