<svg width="78" height="79" viewBox="0 0 78 79" fill="none" xmlns="http://www.w3.org/2000/svg">
<g filter="url(#filter0_d)">
<circle cx="39" cy="36" r="35" fill="#035171"/>
</g>
<path d="M38.9994 70.03C57.6998 70.03 72.8494 54.8272 72.8494 36.0861C72.8494 17.3449 57.6998 2.14209 38.9994 2.14209C20.299 2.14209 5.14941 17.3449 5.14941 36.0861C5.14941 54.8272 20.299 70.03 38.9994 70.03Z" stroke="white" stroke-width="4"/>
<path d="M28.5765 35.7084C28.681 34.4434 29.2323 33.2568 30.1315 32.361C31.0308 31.4652 32.2195 30.9186 33.4849 30.8189V27.9487C31.4565 28.0511 29.5377 28.9005 28.0982 30.3332C26.6587 31.766 25.8003 33.6808 25.6885 35.7087L28.5765 35.7084Z" fill="#F5F5F5"/>
<path d="M34.3481 30.8189C35.6136 30.9186 36.8022 31.4652 37.7015 32.361C38.6008 33.2568 39.152 34.4434 39.2566 35.7084H42.1445C42.0327 33.6805 41.1743 31.7657 39.7348 30.333C38.2953 28.9002 36.3766 28.0508 34.3481 27.9485V30.8189Z" fill="#F5F5F5"/>
<path d="M33.4833 41.4281C32.223 41.3284 31.0388 40.7857 30.1405 39.8961C29.2423 39.0065 28.688 37.8276 28.5762 36.5684H25.6895C25.7663 37.9934 26.2191 39.3727 27.0017 40.5661L26.2936 42.7916L28.5461 42.3239C29.9284 43.5092 31.6648 44.2027 33.4833 44.2959V41.4281Z" fill="#F5F5F5"/>
<path d="M39.2548 36.5684C39.1429 37.8276 38.5887 39.0065 37.6904 39.8961C36.7922 40.7857 35.6079 41.3284 34.3477 41.4281V44.2969C36.3707 44.1948 38.2849 43.3497 39.7233 41.9235C41.1618 40.4973 42.0233 38.5904 42.1428 36.5684H39.2548Z" fill="#F5F5F5"/>
<path d="M20.9543 32.3201V35.7043H24.0325V27.9946H20.9543L17.0947 31.8287L19.2712 33.9909L20.9543 32.3201Z" fill="#F5F5F5"/>
<path d="M24.0323 36.5627H20.9541V44.2502H24.0323V36.5627Z" fill="#F5F5F5"/>
<path d="M46.1569 31.4399H44.4971V30.5474H48.8052V31.4399H47.1451V35.7496H46.1569V31.4399Z" fill="#F5F5F5"/>
<path d="M54.4217 35.7495H50.5015V30.5474H54.4217V31.499H51.4825V32.6953H54.3177V33.6095H51.4825V34.7825H54.422L54.4217 35.7495Z" fill="#F5F5F5"/>
<path d="M59.8981 30.5405H60.885V35.7493H60.2709V35.7567L57.5186 32.2417V35.7491H56.5317V30.5469H57.3317L59.8984 33.7725L59.8981 30.5405Z" fill="#F5F5F5"/>
<path d="M49.1057 39.2822C49.1358 40.6131 48.2782 41.9598 46.435 41.9598H44.6499V36.7271H46.435C48.218 36.7263 49.0756 37.9975 49.1057 39.2822ZM45.0574 37.1068V41.5694H46.4345C47.9989 41.5694 48.7209 40.403 48.6984 39.2817C48.6757 38.1903 47.9538 37.1062 46.4345 37.1062L45.0574 37.1068Z" fill="#F5F5F5"/>
<path d="M50.1143 41.9586V36.7258H50.5136V41.9586H50.1143Z" fill="#F5F5F5"/>
<path d="M55.2376 37.7356C54.8551 37.1218 54.237 37.0333 53.6431 37.0247C53.0265 37.0247 52.0472 37.2491 52.0472 38.0863C52.0472 38.7524 52.7704 38.9094 53.6581 39.0729C54.6741 39.2675 55.7275 39.4473 55.7275 40.5762C55.7199 41.7574 54.5234 42.0417 53.6431 42.0417C52.8232 42.0417 51.8901 41.7051 51.4834 40.9054L51.845 40.7269C52.1676 41.3619 52.9964 41.676 53.6431 41.676C54.2898 41.676 55.3205 41.4975 55.3205 40.5698C55.3282 39.7851 54.4553 39.613 53.5903 39.4478C52.6271 39.2606 51.6415 39.0673 51.6415 38.1018C51.6188 36.9969 52.7778 36.6523 53.6431 36.6523C54.3951 36.6523 55.0507 36.772 55.5692 37.5416L55.2376 37.7356Z" fill="#F5F5F5"/>
<path d="M60.9349 41.2325C60.4243 41.7377 59.7345 42.0202 59.0163 42.0184C57.2409 42.0184 56.3154 40.7847 56.3078 39.3714C56.2928 37.9745 57.2105 36.666 59.0163 36.666C59.7343 36.6643 60.4239 36.9463 60.9349 37.4507L60.6575 37.6901C60.4411 37.4767 60.1848 37.308 59.9032 37.1938C59.6215 37.0795 59.3202 37.0218 59.0163 37.0241C57.4819 37.0241 56.6908 38.1005 56.6982 39.3564C56.7133 40.5827 57.4969 41.6441 59.0163 41.6441C59.6313 41.6451 60.2226 41.4067 60.6649 40.9793L60.9349 41.2325Z" fill="#F5F5F5"/>
<defs>
<filter id="filter0_d" x="0" y="1" width="78" height="78" filterUnits="userSpaceOnUse" color-interpolation-filters="sRGB">
<feFlood flood-opacity="0" result="BackgroundImageFix"/>
<feColorMatrix in="SourceAlpha" type="matrix" values="0 0 0 0 0 0 0 0 0 0 0 0 0 0 0 0 0 0 127 0" result="hardAlpha"/>
<feOffset dy="4"/>
<feGaussianBlur stdDeviation="2"/>
<feColorMatrix type="matrix" values="0 0 0 0 0.0117647 0 0 0 0 0.317647 0 0 0 0 0.443137 0 0 0 1 0"/>
<feBlend mode="normal" in2="BackgroundImageFix" result="effect1_dropShadow"/>
<feBlend mode="normal" in="SourceGraphic" in2="effect1_dropShadow" result="shape"/>
</filter>
</defs>
</svg>
